<svg xmlns="http://www.w3.org/2000/svg" width="221.214" height="75.12" viewBox="0 0 221.214 75.12">
  <path id="Path_191" data-name="Path 191" d="M-5016.673-2825.293c-6.446-1.639-5.47-2.307-7.293-6.852s.034-5.613,0-11.328c-.046-7.712,17.911-8.72,17.911-8.72h0l6.692-5.376,9.054-15.062s9.331-6.983,3.79-6.61,10.54-6.529,10.54-6.529,14.416-9.177,22.294-9.906,9.217,6.988,9.217,6.988-.628-7.093,8.681-9.457a58.362,58.362,0,0,1,28.554,0c9.289,2.364,8.6,9.457,8.6,9.457l2.769,12.382s4.746-2.219,8.109,0,2.589,9.185,5.343,8.875c6.526-.734,4.551-7.225,12.652-11.81s19.753-6.529,19.753-6.529l10.18,6.529s2.837,10.071,7.7,14.446,10.065-4.1,16.817,0,7.643,7.459,10.19,16.382,1.552,12.984,0,19.312S-5016.673-2825.293-5016.673-2825.293Z" transform="translate(5024.769 2899.918)" fill="rgba(101,111,25,0.25)"/>
</svg>
