<svg xmlns="http://www.w3.org/2000/svg" xmlns:xlink="http://www.w3.org/1999/xlink" width="96" height="102" viewBox="0 0 96 102">
  <defs>
    <clipPath id="clip-path">
      <rect id="Rectangle_1472" data-name="Rectangle 1472" width="96" height="102" stroke="#707070" stroke-width="1"/>
    </clipPath>
  </defs>
  <g id="dog" clip-path="url(#clip-path)">
    <g id="Group_31" data-name="Group 31" transform="translate(58.804 73.562) rotate(-172)">
      <path id="Path_192" data-name="Path 192" d="M17.313,27.736s-.471.371-6.651-2.572A19.8,19.8,0,0,1,.043,9.121C-.131,3.882,2.256-.018,7.483.031a12.628,12.628,0,0,0-.5,6.454" transform="translate(0 0.002)" fill="#fff"/>
      <g id="Group_30" data-name="Group 30" transform="translate(0.001 0)">
        <path id="Path_193" data-name="Path 193" d="M17.311,27.742s-.469.364-6.647-2.573A19.811,19.811,0,0,1,.043,9.124C-.128,3.881,2.254-.018,7.484.031a12.578,12.578,0,0,0-.5,6.455" transform="translate(0 0)" fill="rgba(0,0,0,0)" stroke="#000" stroke-linecap="round" stroke-linejoin="round" stroke-width="1"/>
      </g>
    </g>
    <g id="Group_33" data-name="Group 33" transform="translate(70.9 60.023) rotate(-172)">
      <path id="Path_194" data-name="Path 194" d="M4.8.754a3.244,3.244,0,0,0,.964,5.458C-.184,9.165-2.116.656,2.836.034A2.188,2.188,0,0,1,4.8.754Z" transform="translate(0 0)" fill="#fff"/>
      <g id="Group_32" data-name="Group 32" transform="translate(0.002 0.001)">
        <path id="Path_195" data-name="Path 195" d="M4.793.754A3.243,3.243,0,0,0,5.76,6.21C-.185,9.161-2.115.654,2.836.033A2.186,2.186,0,0,1,4.793.754Z" transform="translate(0 0)" fill="rgba(0,0,0,0)" stroke="#000" stroke-linecap="round" stroke-linejoin="round" stroke-width="1"/>
      </g>
    </g>
    <g id="Group_35" data-name="Group 35" transform="translate(44.631 59.296) rotate(-170)">
      <path id="Path_196" data-name="Path 196" d="M.5,8.115C1.44,6.361,4.171,2.9,5.83,2.207,4.16.682,2.239-.342,0,.116" transform="translate(0 0)" fill="#fff"/>
      <g id="Group_34" data-name="Group 34" transform="translate(0 0)">
        <path id="Path_197" data-name="Path 197" d="M.495,8.118C1.442,6.359,4.169,2.9,5.832,2.2,4.161.681,2.239-.344,0,.116" fill="rgba(0,0,0,0)" stroke="#000" stroke-linecap="round" stroke-linejoin="round" stroke-width="1"/>
      </g>
    </g>
    <g id="Group_37" data-name="Group 37" transform="matrix(-0.993, -0.122, 0.122, -0.993, 47.914, 41.75)">
      <g id="Group_36" data-name="Group 36" transform="translate(0 0)">
        <path id="Path_198" data-name="Path 198" d="M11.011.04c2.258,1.589,3.229,3.225,2.1,4.031C8.165,7.379,6,16.4.055,15.565" transform="translate(0 0)" fill="#fff"/>
        <path id="Path_199" data-name="Path 199" d="M11.011.04c2.258,1.589,3.229,3.225,2.1,4.031C8.165,7.379,6,16.4.055,15.565" transform="translate(0 0)" fill="rgba(0,0,0,0)" stroke="#000" stroke-linecap="round" stroke-linejoin="round" stroke-width="1"/>
      </g>
    </g>
    <g id="Group_39" data-name="Group 39" transform="matrix(-0.848, -0.53, 0.53, -0.848, 62.145, 77.418)">
      <path id="Path_200" data-name="Path 200" d="M28.815,28.561s6.491-6.368,3.469-11.089C30.19,14.206,27.769,8.612,25.555,5.7A14.1,14.1,0,0,0,15.823.248,15.187,15.187,0,0,0,5.588,3.461L.132,10.054" transform="translate(0 0)" fill="#fff"/>
      <g id="Group_38" data-name="Group 38" transform="translate(0 0)">
        <path id="Path_201" data-name="Path 201" d="M28.816,28.564s6.494-6.372,3.466-11.091C30.187,14.207,27.769,8.61,25.552,5.7A14.089,14.089,0,0,0,15.825.248,15.173,15.173,0,0,0,5.589,3.46L.132,10.052" transform="translate(0 0)" fill="rgba(0,0,0,0)" stroke="#000" stroke-linecap="round" stroke-linejoin="round" stroke-width="1"/>
      </g>
    </g>
    <g id="Group_41" data-name="Group 41" transform="translate(62.645 56.278) rotate(-173)">
      <g id="Group_40" data-name="Group 40" transform="translate(0 0)">
        <path id="Path_202" data-name="Path 202" d="M9.866,29.536l-.838-.757A83.483,83.483,0,0,1,2,22.683c-3.065-3.061-1.58-9.8-1.614-10.042S.8,5.393.8,5.393-.389.217,1.12.018c2.256-.3,8.746,4.46,8.842,4.481.16.035,11.439,5.517,11.439,5.517l2.343,4.965s-.27,6.513-.362,7.024-4.45,4.193-5.024,4.427a9.927,9.927,0,0,0-1.907,1.846l-3.162.944Z" fill="#fff"/>
        <path id="Path_203" data-name="Path 203" d="M9.866,29.536l-.838-.757A83.483,83.483,0,0,1,2,22.683c-3.065-3.061-1.58-9.8-1.614-10.042S.8,5.393.8,5.393-.389.217,1.12.018c2.256-.3,8.746,4.46,8.842,4.481.16.035,11.439,5.517,11.439,5.517l2.343,4.965s-.27,6.513-.362,7.024-4.45,4.193-5.024,4.427a9.927,9.927,0,0,0-1.907,1.846l-3.162.944Z" fill="rgba(0,0,0,0)" stroke="#000" stroke-width="1"/>
      </g>
    </g>
    <g id="Group_43" data-name="Group 43" transform="matrix(-0.848, -0.53, 0.53, -0.848, 51.859, 62.237)">
      <path id="Path_204" data-name="Path 204" d="M5.325,6.393A11.032,11.032,0,0,1,5.709.078C3.493.012,1.41.492.031,2.341" transform="translate(0 0.003)" fill="#fff"/>
      <g id="Group_42" data-name="Group 42" transform="translate(0 0)">
        <path id="Path_205" data-name="Path 205" d="M5.324,6.4A11.078,11.078,0,0,1,5.707.078C3.492.012,1.407.5.031,2.345" transform="translate(0 0)" fill="rgba(0,0,0,0)" stroke="#000" stroke-linecap="round" stroke-linejoin="round" stroke-width="1"/>
      </g>
    </g>
    <g id="Group_45" data-name="Group 45" transform="translate(66.871 75.13) rotate(-172)">
      <path id="Path_206" data-name="Path 206" d="M8.913,27.71s-.249-2.13-.588-4.288C7.667,19.208.766,18.83.044,9.535c-.174-5.246,2.671-9.55,7.9-9.5a12.628,12.628,0,0,0-.5,6.454" transform="translate(0.001 0.002)" fill="#fff"/>
      <g id="Group_44" data-name="Group 44" transform="translate(0 0)">
        <path id="Path_207" data-name="Path 207" d="M8.917,27.712s-.251-2.131-.589-4.286C7.665,19.21.765,18.835.044,9.535c-.171-5.243,2.671-9.55,7.9-9.5a12.578,12.578,0,0,0-.5,6.455" transform="translate(0 0)" fill="rgba(0,0,0,0)" stroke="#000" stroke-linecap="round" stroke-linejoin="round" stroke-width="1"/>
      </g>
    </g>
    <g id="Group_50" data-name="Group 50" transform="matrix(-0.993, -0.122, 0.122, -0.993, 53.813, 52.02)">
      <path id="Path_208" data-name="Path 208" d="M9.248,16.52c2.92-.829,4.325-.449,5.5.454m0,0a7.953,7.953,0,0,0,3.127-5.569C19.284,2.609,7.324-5.62.018,5.154M13.66,16.549a6.366,6.366,0,0,0,1.932,1.407A1.42,1.42,0,0,0,16.943,18a1.658,1.658,0,0,0,.718-1.515,2.388,2.388,0,0,0-.8-2.19,2.49,2.49,0,0,0-2.364-.128c-.581.22-1.136.5-1.272,1.122A1.385,1.385,0,0,0,13.66,16.549ZM10.607,21.7a17.49,17.49,0,0,0,2.735-4.862" transform="translate(0 0)" fill="#fff"/>
      <g id="Group_46" data-name="Group 46" transform="translate(9.246 16.051)">
        <path id="Path_209" data-name="Path 209" d="M0,.467C2.919-.36,4.329.022,5.5.926" transform="translate(0 0)" fill="rgba(0,0,0,0)" stroke="#000" stroke-linecap="round" stroke-linejoin="round" stroke-width="1"/>
      </g>
      <g id="Group_47" data-name="Group 47" transform="translate(0.003 0)">
        <path id="Path_210" data-name="Path 210" d="M14.742,16.977a7.944,7.944,0,0,0,3.125-5.571C19.281,2.607,7.325-5.618.018,5.153" transform="translate(0 0)" fill="rgba(0,0,0,0)" stroke="#000" stroke-linecap="round" stroke-linejoin="round" stroke-width="1"/>
      </g>
      <g id="Group_48" data-name="Group 48" transform="translate(13.192 13.932)">
        <path id="Path_211" data-name="Path 211" d="M.47,2.621A6.337,6.337,0,0,0,2.4,4.028a1.447,1.447,0,0,0,1.355.045,1.679,1.679,0,0,0,.716-1.52A2.392,2.392,0,0,0,3.664.364,2.485,2.485,0,0,0,1.3.239C.724.454.167.738.032,1.358A1.391,1.391,0,0,0,.47,2.621Z" transform="translate(0 0)"/>
      </g>
      <g id="Group_49" data-name="Group 49" transform="translate(10.589 16.828)">
        <path id="Path_212" data-name="Path 212" d="M.017,4.871A17.231,17.231,0,0,0,2.751.01" transform="translate(0 0)" fill="rgba(0,0,0,0)" stroke="#000" stroke-linecap="round" stroke-linejoin="round" stroke-width="1"/>
      </g>
    </g>
    <g id="Group_53" data-name="Group 53" transform="matrix(-0.993, -0.122, 0.122, -0.993, 57.519, 53.244)">
      <g id="Group_51" data-name="Group 51" transform="translate(0 0)">
        <path id="Path_213" data-name="Path 213" d="M3.078,5.645C-5.037-.188,5.507-2.445,5.365,3.513,5.334,4.807,4.418,6.609,3.078,5.645Z" transform="translate(0 0)" fill="#f89696"/>
        <path id="Path_214" data-name="Path 214" d="M3.078,5.645C-5.037-.188,5.507-2.445,5.365,3.513,5.334,4.807,4.418,6.609,3.078,5.645Z" transform="translate(0 0)" fill="#f89696" stroke="#000" stroke-linecap="round" stroke-linejoin="round" stroke-width="1"/>
      </g>
      <g id="Group_52" data-name="Group 52" transform="translate(2.347 2.344)">
        <path id="Path_215" data-name="Path 215" d="M1.741,3.227A3.17,3.17,0,0,0,0,0" transform="translate(0 0)" fill="#f89696" stroke="#000" stroke-linecap="round" stroke-linejoin="round" stroke-width="1"/>
      </g>
    </g>
    <g id="Group_55" data-name="Group 55" transform="matrix(-0.993, -0.122, 0.122, -0.993, 54.822, 26.937)">
      <g id="Group_54" data-name="Group 54" transform="translate(0 0)">
        <path id="Path_216" data-name="Path 216" d="M0,1.229a17.145,17.145,0,0,1,3.826,2.3c1.31,1.014.221-2.513-.638-2.606a9.135,9.135,0,0,1,2.577,1.2c.78.462.124-1.561-.807-2.1" fill="#fff"/>
        <path id="Path_217" data-name="Path 217" d="M0,1.229a17.145,17.145,0,0,1,3.826,2.3c1.31,1.014.221-2.513-.638-2.606a9.135,9.135,0,0,1,2.577,1.2c.78.462.124-1.561-.807-2.1" fill="rgba(0,0,0,0)" stroke="#000" stroke-linecap="round" stroke-linejoin="round" stroke-width="1"/>
      </g>
    </g>
    <g id="Group_57" data-name="Group 57" transform="matrix(-0.993, -0.122, 0.122, -0.993, 72.07, 51.209)">
      <path id="Path_218" data-name="Path 218" d="M12.447,11.623c-.011-1.5-.241-3.856.332-5.182,1.315-3.052-1.525-1.752-1.378-2.658C12.845-5.074-2.419,4.2.36,6.776c4.235,3.739,5.063,4.858,6.534,7.871,3.324,6.829,8.592,10,13.185,8.567" transform="translate(0.001 0.001)" fill="#fff"/>
      <g id="Group_56" data-name="Group 56" transform="translate(0 0)">
        <path id="Path_219" data-name="Path 219" d="M12.449,11.627c-.012-1.5-.245-3.856.329-5.185C14.1,3.392,11.257,4.688,11.4,3.782c1.441-8.855-13.82.413-11.046,3,4.236,3.74,5.067,4.858,6.535,7.873,3.323,6.823,8.594,10,13.188,8.566" transform="translate(0 0)" fill="rgba(0,0,0,0)" stroke="#000" stroke-linecap="round" stroke-linejoin="round" stroke-width="1"/>
      </g>
    </g>
    <g id="Group_61" data-name="Group 61" transform="translate(43.847 31.638)">
      <g id="Group_60" data-name="Group 60" transform="matrix(-0.993, -0.122, 0.122, -0.993, 9.078, 6.022)">
        <g id="Group_58" data-name="Group 58" transform="translate(0 0)">
          <path id="Path_220" data-name="Path 220" d="M.4,2.783a.958.958,0,0,1-.4-.859,2.191,2.191,0,0,1,.272-1A2.011,2.011,0,0,1,.947.17.821.821,0,0,1,1.84.111a.96.96,0,0,1,.4.859,2.194,2.194,0,0,1-.273,1,2.01,2.01,0,0,1-.668.755A.82.82,0,0,1,.4,2.783Z" transform="translate(0 0)"/>
        </g>
        <g id="Group_59" data-name="Group 59" transform="translate(6.924 2.047)">
          <path id="Path_221" data-name="Path 221" d="M.4,2.784a.96.96,0,0,1-.4-.861,2.193,2.193,0,0,1,.272-1A2.011,2.011,0,0,1,.947.17.821.821,0,0,1,1.84.112a.958.958,0,0,1,.4.859,2.192,2.192,0,0,1-.272,1,2.021,2.021,0,0,1-.668.755A.822.822,0,0,1,.4,2.784Z" transform="translate(0 0)"/>
        </g>
      </g>
    </g>
  </g>
</svg>
