<svg xmlns="http://www.w3.org/2000/svg" xmlns:xlink="http://www.w3.org/1999/xlink" width="124" height="125" viewBox="0 0 124 125">
  <defs>
    <clipPath id="clip-path">
      <rect id="Rectangle_1473" data-name="Rectangle 1473" width="124" height="125" transform="translate(0 0)"/>
    </clipPath>
  </defs>
  <g id="cat" transform="translate(124 125) rotate(-180)" clip-path="url(#clip-path)">
    <g id="Group_63" data-name="Group 63" transform="translate(35.025 30.078)">
      <g id="Group_62" data-name="Group 62" transform="translate(0 0)">
        <path id="Path_222" data-name="Path 222" d="M27.577,6.606c15.22,0,27.577-1.48,27.577-3.3S42.8,0,27.577,0,0,1.48,0,3.3,12.357,6.606,27.577,6.606Z" fill="#f0d000"/>
        <path id="Path_223" data-name="Path 223" d="M27.577,6.606c15.22,0,27.577-1.48,27.577-3.3S42.8,0,27.577,0,0,1.48,0,3.3,12.357,6.606,27.577,6.606Z" fill="rgba(0,0,0,0)" stroke="#fff" stroke-width="1"/>
      </g>
    </g>
    <g id="Group_65" data-name="Group 65" transform="matrix(0.236, -0.972, 0.972, 0.236, 69.188, 48.66)">
      <path id="Path_224" data-name="Path 224" d="M0,4.308s3.371-.389,5.128-.542a4.815,4.815,0,0,0,3.852-2.1c3.757-4.743,6.168,1.81,6.236,4.986.029,1.915-2.726,3.679-5.311,4.083l-8.49.591" transform="translate(0 0)" fill="#fff"/>
      <g id="Group_64" data-name="Group 64" transform="translate(0.002 0)">
        <path id="Path_225" data-name="Path 225" d="M0,4.311s3.373-.391,5.129-.54a4.818,4.818,0,0,0,3.849-2.1c3.76-4.749,6.169,1.805,6.232,4.981.036,1.918-2.725,3.683-5.307,4.081l-8.495.6" transform="translate(0)" fill="rgba(0,0,0,0)" stroke="#000" stroke-linecap="round" stroke-linejoin="round" stroke-width="1"/>
      </g>
    </g>
    <g id="Group_71" data-name="Group 71" transform="translate(35.453 52.729)">
      <path id="Path_226" data-name="Path 226" d="M14.193,6.107c-3.555,2.209-4.914,4.334-4.45,8.476.406,3.606,3.232,6.15,4.433,9.514,1.864,5.221-5.453,9.7-9.894,4.092C-2.464,19.679-1.643,6.207,9.643,1.4c0,0,3.787-2.878,5.444-.368C16.388,3,15.494,4.793,14.193,6.107ZM2.475,25.469c.936-2.979,7.2-5.907,10.019-4.677M.71,21.151c.87-3.2,7.756-5.179,9.994-3.464M.254,13.093c3.422-1.506,7.143-1.079,9.422.678M1.613,8.843a9.129,9.129,0,0,1,8.593,1.305" transform="translate(0 0)" fill="#fff"/>
      <g id="Group_66" data-name="Group 66" transform="translate(0.002 0.003)">
        <path id="Path_227" data-name="Path 227" d="M14.19,6.1c-3.552,2.215-4.917,4.339-4.449,8.48.409,3.611,3.228,6.147,4.431,9.513,1.864,5.219-5.449,9.7-9.89,4.094C-2.463,19.678-1.644,6.205,9.644,1.394c0,0,3.782-2.876,5.439-.366C16.383,3,15.491,4.787,14.19,6.1Z" fill="rgba(0,0,0,0)" stroke="#000" stroke-linecap="round" stroke-linejoin="round" stroke-width="1"/>
      </g>
      <g id="Group_67" data-name="Group 67" transform="translate(2.472 20.501)">
        <path id="Path_228" data-name="Path 228" d="M0,4.965C.94,1.992,7.209-.944,10.022.288" fill="rgba(0,0,0,0)" stroke="#000" stroke-linecap="round" stroke-linejoin="round" stroke-width="1"/>
      </g>
      <g id="Group_68" data-name="Group 68" transform="translate(0.708 17.058)">
        <path id="Path_229" data-name="Path 229" d="M0,4.1C.876.9,7.755-1.083,9.994.632" fill="rgba(0,0,0,0)" stroke="#000" stroke-linecap="round" stroke-linejoin="round" stroke-width="1"/>
      </g>
      <g id="Group_69" data-name="Group 69" transform="translate(0.254 12.174)">
        <path id="Path_230" data-name="Path 230" d="M0,.921C3.42-.586,7.146-.162,9.42,1.6" fill="rgba(0,0,0,0)" stroke="#000" stroke-linecap="round" stroke-linejoin="round" stroke-width="1"/>
      </g>
      <g id="Group_70" data-name="Group 70" transform="translate(1.616 8.334)">
        <path id="Path_231" data-name="Path 231" d="M0,.506a9.1,9.1,0,0,1,8.587,1.31" fill="rgba(0,0,0,0)" stroke="#000" stroke-linecap="round" stroke-linejoin="round" stroke-width="1"/>
      </g>
    </g>
    <g id="Group_74" data-name="Group 74" transform="matrix(0.783, 0.621, -0.621, 0.783, 59.863, 28.93)">
      <path id="Path_232" data-name="Path 232" d="M37.424,39.152S20.319,24.529,15.41,27.544c-6.659-1.115-8.6-7.376-8.6-7.376s-8.995-4.592-5.4-8.753C6.512,5.5,26.227,1.837,32.229,4.616c4.82,2.232,7.556,8.97,8.393,12.693l.01.045.008.038a10.35,10.35,0,0,1,.268,2.353,24.352,24.352,0,0,1-.281,2.652C39.8,28.1,37.424,39.152,37.424,39.152ZM42,19.7C38.563,8.568,33.609,2.218,27.587.63,24.081-.295,7.295-2.367,0,13.437" transform="translate(0 0)" fill="#fff"/>
      <g id="Group_72" data-name="Group 72" transform="translate(0.558 3.669)">
        <path id="Path_233" data-name="Path 233" d="M36.866,35.483S19.761,20.86,14.852,23.875C8.193,22.76,6.25,16.5,6.25,16.5s-8.995-4.592-5.4-8.753C5.954,1.827,25.67-1.832,31.671.947c4.82,2.232,7.556,8.97,8.393,12.693l.01.045.008.038a10.349,10.349,0,0,1,.268,2.353,24.349,24.349,0,0,1-.281,2.652C39.24,24.435,36.866,35.483,36.866,35.483Z" fill="#fff"/>
        <path id="Path_234" data-name="Path 234" d="M36.866,35.483S19.761,20.86,14.852,23.875C8.193,22.76,6.25,16.5,6.25,16.5s-8.995-4.592-5.4-8.753C5.954,1.827,25.67-1.832,31.671.947c4.82,2.232,7.556,8.97,8.393,12.693l.01.045.008.038a10.349,10.349,0,0,1,.268,2.353,24.349,24.349,0,0,1-.281,2.652C39.24,24.435,36.866,35.483,36.866,35.483Z" fill="rgba(0,0,0,0)" stroke="#fff" stroke-width="1"/>
      </g>
      <g id="Group_73" data-name="Group 73" transform="translate(0.004 0.002)">
        <path id="Path_235" data-name="Path 235" d="M41.995,19.7C38.558,8.567,33.606,2.213,27.586.629,24.074-.294,7.294-2.365,0,13.435" transform="translate(0)" fill="rgba(0,0,0,0)" stroke="#000" stroke-linecap="round" stroke-linejoin="round" stroke-width="1"/>
      </g>
    </g>
    <g id="Group_78" data-name="Group 78" transform="translate(42.155 34.208)">
      <path id="Path_236" data-name="Path 236" d="M14.025,27.2a8.766,8.766,0,0,1-1.363-8.125m-2.493,8.2A7.947,7.947,0,0,1,7.48,22.064m9.292,7.723c.277-2.627-1.756-2.678-3.28-2.452-5.386.812-9.773-2.8-12.033-7.715S-.559,4.434,3.042,1.129C4.864-.536,14.149-1.114,10.49,4.844a6.576,6.576,0,0,0-.9,2.268,6.6,6.6,0,0,0,.168,2.376" transform="translate(0 0.002)" fill="#fff"/>
      <g id="Group_75" data-name="Group 75" transform="translate(12.24 19.076)">
        <path id="Path_237" data-name="Path 237" d="M1.783,8.128C-.018,5.628-.421,3.288.423,0" fill="rgba(0,0,0,0)" stroke="#000" stroke-linecap="round" stroke-linejoin="round" stroke-width="1"/>
      </g>
      <g id="Group_76" data-name="Group 76" transform="translate(7.482 22.069)">
        <path id="Path_238" data-name="Path 238" d="M2.683,5.21A7.949,7.949,0,0,1,0,0" fill="rgba(0,0,0,0)" stroke="#000" stroke-linecap="round" stroke-linejoin="round" stroke-width="1"/>
      </g>
      <g id="Group_77" data-name="Group 77" transform="translate(0 0)">
        <path id="Path_239" data-name="Path 239" d="M16.77,29.786c.277-2.625-1.756-2.677-3.277-2.448-5.384.811-9.776-2.8-12.034-7.715S-.562,4.432,3.045,1.13C4.864-.537,14.15-1.114,10.491,4.845a6.6,6.6,0,0,0-.9,2.272,6.591,6.591,0,0,0,.171,2.376" fill="rgba(0,0,0,0)" stroke="#000" stroke-linecap="round" stroke-linejoin="round" stroke-width="1"/>
      </g>
    </g>
    <g id="Group_80" data-name="Group 80" transform="translate(66.044 34.159)">
      <path id="Path_240" data-name="Path 240" d="M9.264,11.361c-.365-1.1-.978-3.037-.729-4.192A6.351,6.351,0,0,1,9.554,4.893C13.027-.078,6.049-.513,3,.358S.058,7.093,0,9.654" transform="translate(0 0)" fill="#fff"/>
      <g id="Group_79" data-name="Group 79" transform="translate(0.003 0.002)">
        <path id="Path_241" data-name="Path 241" d="M9.259,11.356c-.364-1.1-.975-3.032-.724-4.192A6.19,6.19,0,0,1,9.554,4.891C13.024-.076,6.048-.514,2.993.359S.058,7.09,0,9.651" fill="rgba(0,0,0,0)" stroke="#000" stroke-linecap="round" stroke-linejoin="round" stroke-width="1"/>
      </g>
    </g>
    <g id="Group_97" data-name="Group 97" transform="matrix(0.982, 0.189, -0.189, 0.982, 53.508, 52.174)">
      <path id="Path_242" data-name="Path 242" d="M7.667,0S0,7.535,3.129,17.925c-.712.222-.547,3.543-.135,4.43.341.734,2.22,3.075,3.345,2.266,5.569,8.773,15.295,9.092,22.163,5.53a4.733,4.733,0,0,0,4.521-.684,4.967,4.967,0,0,0,.33-4.1c3.563-7.016,6.575-21.5-3.385-24.318M6.187,25.082c-.423.091-5.626,1.3-5.826.826-.816-1.942-.46-6.935,3.309-8.392M28.238,30.391c.423.093,5.631,1.323,5.829.847a7.611,7.611,0,0,0-.416-5.622M6.187,25.073h0c4.913,7.821,16.181,9.373,22.051,5.318M2.759,17.974h0C1.975,15.547.835,8.519,5.039,4.737m28.611,20.88C38.99,17.1,40.71,5.4,30.407,1.086A8.109,8.109,0,0,0,28.922.707M.717,25.8A8.928,8.928,0,0,1,5.5,21.651m28.566,9.587a10.035,10.035,0,0,0-3.09-3.351M14.82,31.664A39.021,39.021,0,0,0,19.7,23.835m2.419,8.628a39.233,39.233,0,0,0,4.423-6.884M18.6,32.239a38.655,38.655,0,0,0,4.389-6.818M7.164,10.872a14.95,14.95,0,0,1,6.794,2.856M9.4,7.213A14.862,14.862,0,0,1,15.612,11.2m21.754,5.744a13.367,13.367,0,0,0-3.133.22m3.491-3.866a13.03,13.03,0,0,0-3.845.846" transform="translate(1.115 0)" fill="#fff"/>
      <g id="Group_81" data-name="Group 81" transform="translate(3.494 0)">
        <path id="Path_243" data-name="Path 243" d="M5.288,0S-2.377,7.535.75,17.925c-.712.222-.547,3.543-.135,4.43.341.734,2.22,3.075,3.345,2.266,5.569,8.773,15.295,9.092,22.163,5.53a4.733,4.733,0,0,0,4.521-.684,4.967,4.967,0,0,0,.33-4.1c3.563-7.016,6.575-21.5-3.385-24.318" transform="translate(0)" fill="#fff"/>
        <path id="Path_244" data-name="Path 244" d="M5.288,0S-2.377,7.535.75,17.925c-.712.222-.547,3.543-.135,4.43.341.734,2.22,3.075,3.345,2.266,5.569,8.773,15.295,9.092,22.163,5.53a4.733,4.733,0,0,0,4.521-.684,4.967,4.967,0,0,0,.33-4.1c3.563-7.016,6.575-21.5-3.385-24.318" transform="translate(0)" fill="rgba(0,0,0,0)" stroke="#fff" stroke-width="1"/>
      </g>
      <g id="Group_82" data-name="Group 82" transform="translate(1.114 17.518)">
        <path id="Path_245" data-name="Path 245" d="M6.189,7.56C5.765,7.652.564,8.866.362,8.389-.457,6.447-.1,1.454,3.667,0" transform="translate(0 0)" fill="rgba(0,0,0,0)" stroke="#000" stroke-linecap="round" stroke-linejoin="round" stroke-width="1"/>
      </g>
      <g id="Group_83" data-name="Group 83" transform="translate(29.355 25.616)">
        <path id="Path_246" data-name="Path 246" d="M0,4.776c.425.093,5.63,1.326,5.83.85A7.665,7.665,0,0,0,5.414,0" transform="translate(0 0)" fill="rgba(0,0,0,0)" stroke="#000" stroke-linecap="round" stroke-linejoin="round" stroke-width="1"/>
      </g>
      <g id="Group_84" data-name="Group 84" transform="translate(7.303 25.078)">
        <path id="Path_247" data-name="Path 247" d="M0,0H0C4.912,7.82,16.176,9.371,22.051,5.313" transform="translate(0 0)" fill="rgba(0,0,0,0)" stroke="#000" stroke-linecap="round" stroke-linejoin="round" stroke-width="1"/>
      </g>
      <g id="Group_85" data-name="Group 85" transform="translate(3.117 4.737)">
        <path id="Path_248" data-name="Path 248" d="M.759,13.235h0C-.03,10.812-1.167,3.785,3.037,0" transform="translate(0 0)" fill="rgba(0,0,0,0)" stroke="#000" stroke-linecap="round" stroke-linejoin="round" stroke-width="1"/>
      </g>
      <g id="Group_86" data-name="Group 86" transform="translate(30.036 0.704)">
        <path id="Path_249" data-name="Path 249" d="M4.733,24.912C10.071,16.4,11.791,4.7,1.484.384A7.691,7.691,0,0,0,0,0" transform="translate(0 0)" fill="rgba(0,0,0,0)" stroke="#000" stroke-linecap="round" stroke-linejoin="round" stroke-width="1"/>
      </g>
      <g id="Group_87" data-name="Group 87" transform="translate(1.836 21.654)">
        <path id="Path_250" data-name="Path 250" d="M0,4.145A8.9,8.9,0,0,1,4.777,0" transform="translate(0 0)" fill="rgba(0,0,0,0)" stroke="#000" stroke-linecap="round" stroke-linejoin="round" stroke-width="1"/>
      </g>
      <g id="Group_88" data-name="Group 88" transform="translate(32.088 27.89)">
        <path id="Path_251" data-name="Path 251" d="M3.1,3.351A10.047,10.047,0,0,0,0,0" transform="translate(0 0)" fill="rgba(0,0,0,0)" stroke="#000" stroke-linecap="round" stroke-linejoin="round" stroke-width="1"/>
      </g>
      <g id="Group_89" data-name="Group 89" transform="translate(15.935 23.837)">
        <path id="Path_252" data-name="Path 252" d="M0,7.829A39.4,39.4,0,0,0,4.88,0" transform="translate(0 0)" fill="rgba(0,0,0,0)" stroke="#000" stroke-linecap="round" stroke-linejoin="round" stroke-width="1"/>
      </g>
      <g id="Group_90" data-name="Group 90" transform="translate(23.227 25.576)">
        <path id="Path_253" data-name="Path 253" d="M0,6.884A38.815,38.815,0,0,0,4.424,0" transform="translate(0 0)" fill="rgba(0,0,0,0)" stroke="#000" stroke-linecap="round" stroke-linejoin="round" stroke-width="1"/>
      </g>
      <g id="Group_91" data-name="Group 91" transform="translate(19.715 25.421)">
        <path id="Path_254" data-name="Path 254" d="M0,6.814A38.734,38.734,0,0,0,4.389,0" transform="translate(0 0)" fill="rgba(0,0,0,0)" stroke="#000" stroke-linecap="round" stroke-linejoin="round" stroke-width="1"/>
      </g>
      <g id="Group_92" data-name="Group 92" transform="translate(8.277 10.876)">
        <path id="Path_255" data-name="Path 255" d="M0,0A14.8,14.8,0,0,1,6.793,2.855" transform="translate(0 0)" fill="rgba(0,0,0,0)" stroke="#000" stroke-linecap="round" stroke-linejoin="round" stroke-width="1"/>
      </g>
      <g id="Group_93" data-name="Group 93" transform="translate(10.515 7.214)">
        <path id="Path_256" data-name="Path 256" d="M0,0A14.854,14.854,0,0,1,6.213,3.983" transform="translate(0 0)" fill="rgba(0,0,0,0)" stroke="#000" stroke-linecap="round" stroke-linejoin="round" stroke-width="1"/>
      </g>
      <g id="Group_94" data-name="Group 94" transform="translate(35.35 16.924)">
        <path id="Path_257" data-name="Path 257" d="M3.126.018A12.959,12.959,0,0,0,0,.239" transform="translate(0 0)" fill="rgba(0,0,0,0)" stroke="#000" stroke-linecap="round" stroke-linejoin="round" stroke-width="1"/>
      </g>
      <g id="Group_95" data-name="Group 95" transform="translate(34.99 13.297)">
        <path id="Path_258" data-name="Path 258" d="M3.845,0A12.835,12.835,0,0,0,0,.843" transform="translate(0 0)" fill="rgba(0,0,0,0)" stroke="#000" stroke-linecap="round" stroke-linejoin="round" stroke-width="1"/>
      </g>
      <g id="Group_96" data-name="Group 96" transform="translate(0 35.089)">
        <path id="Path_259" data-name="Path 259" d="M0,0" fill="#fff"/>
        <path id="Path_260" data-name="Path 260" d="M0,0" fill="rgba(0,0,0,0)" stroke="#000" stroke-width="1"/>
      </g>
    </g>
    <g id="Group_101" data-name="Group 101" transform="matrix(0.982, 0.189, -0.189, 0.982, 76.007, 68.527)">
      <g id="Group_98" data-name="Group 98" transform="translate(0.258 3.731)">
        <path id="Path_261" data-name="Path 261" d="M1.08,1.79C.385,1.579-.092,1.113.015.751A1.513,1.513,0,0,1,1.65.047a1.4,1.4,0,0,1,.881,1.467C2.424,1.877,1.775,2,1.08,1.79Z" transform="translate(0 0)"/>
        <path id="Path_262" data-name="Path 262" d="M1.08,1.79C.385,1.579-.092,1.113.015.751A1.513,1.513,0,0,1,1.65.047a1.4,1.4,0,0,1,.881,1.467C2.424,1.877,1.775,2,1.08,1.79Z" transform="translate(0 0)" fill="rgba(0,0,0,0)" stroke="#000" stroke-miterlimit="2.61" stroke-width="1"/>
      </g>
      <g id="Group_99" data-name="Group 99" transform="translate(0 0)">
        <path id="Path_263" data-name="Path 263" d="M2.077,3.375A3,3,0,0,0,0,0" transform="translate(0 0)" fill="rgba(0,0,0,0)" stroke="#000" stroke-linecap="round" stroke-linejoin="round" stroke-width="1"/>
      </g>
      <g id="Group_100" data-name="Group 100" transform="translate(2.077 1.747)">
        <path id="Path_264" data-name="Path 264" d="M0,1.628C.361.675,1.343-.271,3.33.072" transform="translate(0)" fill="rgba(0,0,0,0)" stroke="#000" stroke-linecap="round" stroke-linejoin="round" stroke-width="1"/>
      </g>
    </g>
    <g id="Group_104" data-name="Group 104" transform="matrix(0.982, 0.189, -0.189, 0.982, 79.176, 77.151)">
      <g id="Group_102" data-name="Group 102" transform="translate(1.572 0)">
        <path id="Path_265" data-name="Path 265" d="M0,.309v0Z" transform="translate(0 0)"/>
        <path id="Path_266" data-name="Path 266" d="M0,.309v0Z" transform="translate(0 0)" fill="rgba(0,0,0,0)" stroke="#000" stroke-linecap="round" stroke-linejoin="round" stroke-width="1"/>
      </g>
      <g id="Group_103" data-name="Group 103" transform="translate(0 0.026)">
        <path id="Path_267" data-name="Path 267" d="M3.2.733a1.633,1.633,0,0,1-1.93.949A1.488,1.488,0,0,1,.015,0" transform="translate(0)" fill="rgba(0,0,0,0)" stroke="#000" stroke-linecap="round" stroke-linejoin="round" stroke-width="1"/>
      </g>
    </g>
    <g id="Group_107" data-name="Group 107" transform="matrix(0.982, 0.189, -0.189, 0.982, 67.524, 73.108)">
      <g id="Group_105" data-name="Group 105" transform="translate(1.572 0)">
        <path id="Path_268" data-name="Path 268" d="M0,.309v0Z" transform="translate(0 0)"/>
        <path id="Path_269" data-name="Path 269" d="M0,.309v0Z" transform="translate(0 0)" fill="rgba(0,0,0,0)" stroke="#000" stroke-linecap="round" stroke-linejoin="round" stroke-width="1"/>
      </g>
      <g id="Group_106" data-name="Group 106" transform="translate(0 0.026)">
        <path id="Path_270" data-name="Path 270" d="M3.2.733a1.633,1.633,0,0,1-1.93.949A1.488,1.488,0,0,1,.015,0" transform="translate(0)" fill="rgba(0,0,0,0)" stroke="#000" stroke-linecap="round" stroke-linejoin="round" stroke-width="1"/>
      </g>
    </g>
  </g>
</svg>
