<svg xmlns="http://www.w3.org/2000/svg" width="259.954" height="117.536" viewBox="0 0 259.954 117.536">
  <path id="Path_191" data-name="Path 191" d="M-5015.255-2783.157c-7.575-2.564-6.428-3.609-8.57-10.72s.04-8.782,0-17.724c-.055-12.067,21.048-13.644,21.048-13.644h0l7.863-8.411,10.64-23.566s10.965-10.927,4.454-10.343,12.386-10.216,12.386-10.216,16.94-14.358,26.2-15.5,10.831,10.934,10.831,10.934-.737-11.1,10.2-14.8a52.112,52.112,0,0,1,33.554,0c10.916,3.7,10.109,14.8,10.109,14.8l3.253,19.374s5.577-3.472,9.529,0,3.043,14.372,6.279,13.887c7.669-1.148,5.348-11.305,14.867-18.479s23.213-10.216,23.213-10.216l11.963,10.216s3.334,15.758,9.053,22.6,11.828-6.409,19.763,0,8.98,11.67,11.975,25.632,1.823,20.316,0,30.215S-5015.255-2783.157-5015.255-2783.157Z" transform="translate(5024.769 2899.918)" fill="rgba(101,111,25,0.25)"/>
</svg>
