<svg xmlns="http://www.w3.org/2000/svg" viewBox="0 0 1500 1500" width="1500" height="1500" preserveAspectRatio="xMidYMid meet" style="width: 100%; height: 100%; transform: translate3d(0px, 0px, 0px);"><defs><clipPath id="__lottie_element_2"><rect width="1500" height="1500" x="0" y="0"></rect></clipPath></defs><g clip-path="url(#__lottie_element_2)"><g transform="matrix(1,0,0,1,750,750)" opacity="1" style="display: block;"><g opacity="1" transform="matrix(1,0,0,1,5.466000080108643,344.9389953613281)"><path fill="rgb(240,208,0)" fill-opacity="1" d=" M0,-39.4734992980957 C183.66873168945312,-39.4734992980957 332.7934875488281,-21.785425186157227 332.7934875488281,0 C332.7934875488281,21.785425186157227 183.66873168945312,39.4734992980957 0,39.4734992980957 C-183.66873168945312,39.4734992980957 -332.7934875488281,21.785425186157227 -332.7934875488281,0 C-332.7934875488281,-21.785425186157227 -183.66873168945312,-39.4734992980957 0,-39.4734992980957z"></path><path stroke-linecap="butt" stroke-linejoin="miter" fill-opacity="0" stroke-miterlimit="4" stroke="rgb(255,255,255)" stroke-opacity="1" stroke-width="0" d=" M0,-39.4734992980957 C183.66873168945312,-39.4734992980957 332.7934875488281,-21.785425186157227 332.7934875488281,0 C332.7934875488281,21.785425186157227 183.66873168945312,39.4734992980957 0,39.4734992980957 C-183.66873168945312,39.4734992980957 -332.7934875488281,21.785425186157227 -332.7934875488281,0 C-332.7934875488281,-21.785425186157227 -183.66873168945312,-39.4734992980957 0,-39.4734992980957z"></path></g></g><g transform="matrix(2.362276554107666,9.7169771194458,-9.7169771194458,2.362276554107666,981.2742919921875,931.9365844726562)" opacity="1" style="display: block;"><path fill="rgb(255,255,255)" fill-opacity="1" d=" M-5.35,8.56 C-5.35,8.56 -1.32,9.02 0.78,9.2 C2.88,9.37 4.06,10.04 5.38,11.72 C9.86,17.43 12.76,9.52 12.85,5.69 C12.89,3.38 9.6,1.26 6.51,0.78 C6.51,0.78 -3.64,0.09 -3.64,0.09"></path><g opacity="1" transform="matrix(1,0,0,1,6.839000225067139,9.109000205993652)"><path stroke-linecap="round" stroke-linejoin="round" fill-opacity="0" stroke="rgb(0,0,0)" stroke-opacity="1" stroke-width="1.2" d=" M-12.187000274658203,-0.5519999861717224 C-12.187000274658203,-0.5519999861717224 -8.154999732971191,-0.08900000154972076 -6.054999828338623,0.0860000029206276 C-3.9549999237060547,0.26100000739097595 -2.7760000228881836,0.9259999990463257 -1.4579999446868896,2.6070001125335693 C3.0250000953674316,8.324999809265137 5.923999786376953,0.4129999876022339 6.006999969482422,-3.4170000553131104 C6.054999828338623,-5.730999946594238 2.759000062942505,-7.8520002365112305 -0.328000009059906,-8.324999809265137 C-0.328000009059906,-8.324999809265137 -10.484000205993652,-9.020000457763672 -10.484000205993652,-9.020000457763672"></path></g></g><g transform="matrix(10,0,0,10,390.3039855957031,452.0369873046875)" opacity="1" style="display: block;"><path fill="rgb(255,255,255)" fill-opacity="1" d=" M20.88,33.87 C16.59,31.23 14.95,28.69 15.51,23.74 C16,19.43 19.41,16.39 20.86,12.37 C23.11,6.13 14.28,0.78 8.92,7.48 C0.78,17.65 1.77,33.75 15.39,39.5 C15.39,39.5 19.96,42.94 21.96,39.94 C23.53,37.58 22.45,35.44 20.88,33.87z M6.74,10.73 C7.87,14.29 15.43,17.79 18.83,16.32 M4.61,15.89 C5.66,19.71 13.97,22.08 16.67,20.03 M4.06,25.52 C8.19,27.32 12.68,26.81 15.43,24.71 M5.7,30.6 C9.66,31.83 13.59,31.12 16.07,29.04"></path><g opacity="1" transform="matrix(1,0,0,1,12.154999732971191,21.860000610351562)"><path stroke-linecap="round" stroke-linejoin="round" fill-opacity="0" stroke="rgb(0,0,0)" stroke-opacity="1" stroke-width="1.2" d=" M8.725000381469727,12.013999938964844 C4.438000202178955,9.366999626159668 2.7909998893737793,6.828000068664551 3.3559999465942383,1.8799999952316284 C3.8489999771118164,-2.434999942779541 7.251999855041504,-5.466000080108643 8.70300006866455,-9.48900032043457 C10.95199966430664,-15.72599983215332 2.127000093460083,-21.07699966430664 -3.2320001125335693,-14.381999969482422 C-11.371999740600586,-4.211999893188477 -10.383000373840332,11.888999938964844 3.239000082015991,17.638999938964844 C3.239000082015991,17.638999938964844 7.802999973297119,21.076000213623047 9.803000450134277,18.076000213623047 C11.371000289916992,15.722000122070312 10.295000076293945,13.583999633789062 8.725000381469727,12.013999938964844z"></path></g><g opacity="1" transform="matrix(1,0,0,1,12.782999992370605,14.263999938964844)"><path stroke-linecap="round" stroke-linejoin="round" fill-opacity="0" stroke="rgb(0,0,0)" stroke-opacity="1" stroke-width="1.2" d=" M-6.046999931335449,-3.5309998989105225 C-4.913000106811523,0.02199999988079071 2.6519999504089355,3.5309998989105225 6.046999931335449,2.059000015258789"></path></g><g opacity="1" transform="matrix(1,0,0,1,10.63700008392334,18.981000900268555)"><path stroke-linecap="round" stroke-linejoin="round" fill-opacity="0" stroke="rgb(0,0,0)" stroke-opacity="1" stroke-width="1.2" d=" M-6.03000020980835,-3.0950000286102295 C-4.9730000495910645,0.7289999723434448 3.3289999961853027,3.0950000286102295 6.03000020980835,1.0449999570846558"></path></g><g opacity="1" transform="matrix(1,0,0,1,9.744000434875488,26.014999389648438)"><path stroke-linecap="round" stroke-linejoin="round" fill-opacity="0" stroke="rgb(0,0,0)" stroke-opacity="1" stroke-width="1.2" d=" M-5.684000015258789,-0.4970000088214874 C-1.5570000410079956,1.3040000200271606 2.938999891281128,0.7979999780654907 5.684000015258789,-1.3049999475479126"></path></g><g opacity="1" transform="matrix(1,0,0,1,10.883999824523926,30.434999465942383)"><path stroke-linecap="round" stroke-linejoin="round" fill-opacity="0" stroke="rgb(0,0,0)" stroke-opacity="1" stroke-width="1.2" d=" M-5.181000232696533,0.1679999977350235 C-1.218999981880188,1.3980000019073486 2.7060000896453857,0.6899999976158142 5.181000232696533,-1.3980000019073486"></path></g></g><g transform="matrix(7.83433198928833,-6.214759826660156,6.214759826660156,7.83433198928833,652.5448608398438,936.914794921875)" opacity="1" style="display: block;"><path fill="rgb(255,255,255)" fill-opacity="1" d=" M37.117000579833984,-25.864999771118164 C37.117000579833984,-25.864999771118164 16.63599967956543,-8.420000076293945 10.717000007629395,-12.0649995803833 C2.7170000076293945,-10.765000343322754 0.4169999957084656,-3.265000104904175 0.4169999957084656,-3.265000104904175 C0.4169999957084656,-3.265000104904175 -10.371000289916992,2.193000078201294 -6.03000020980835,7.204999923706055 C0.14399999380111694,14.333000183105469 23.868000030517578,18.834999084472656 31.06800079345703,15.53499984741211 C36.849998474121094,12.885000228881836 40.10100173950195,4.817999839782715 41.08700180053711,0.35600000619888306 C41.090999603271484,0.33799999952316284 41.095001220703125,0.3199999928474426 41.0989990234375,0.3019999861717224 C41.10200119018555,0.28700000047683716 41.10499954223633,0.2709999978542328 41.108001708984375,0.25600001215934753 C41.334999084472656,-0.800000011920929 41.43600082397461,-1.7630000114440918 41.41699981689453,-2.565000057220459 C41.400001525878906,-3.265000104904175 41.27000045776367,-4.377999782562256 41.06399917602539,-5.748000144958496 C40.034000396728516,-12.598999977111816 37.117000579833984,-25.864999771118164 37.117000579833984,-25.864999771118164z M42.73,-2.51 C38.66,10.83 32.74,18.42 25.51,20.29 C21.3,21.38 1.13,23.77 -7.73,4.77"></path><g opacity="1" transform="matrix(1,0,0,1,0,0)"><path fill="rgb(255,255,255)" fill-opacity="1" d=" M37.117000579833984,-25.864999771118164 C37.117000579833984,-25.864999771118164 16.63599967956543,-8.420000076293945 10.717000007629395,-12.0649995803833 C2.7170000076293945,-10.765000343322754 0.4169999957084656,-3.265000104904175 0.4169999957084656,-3.265000104904175 C0.4169999957084656,-3.265000104904175 -10.371000289916992,2.193000078201294 -6.03000020980835,7.204999923706055 C0.14399999380111694,14.333000183105469 23.868000030517578,18.834999084472656 31.06800079345703,15.53499984741211 C36.849998474121094,12.885000228881836 40.10100173950195,4.817999839782715 41.08700180053711,0.35600000619888306 C41.090999603271484,0.33799999952316284 41.095001220703125,0.3199999928474426 41.0989990234375,0.3019999861717224 C41.10200119018555,0.28700000047683716 41.10499954223633,0.2709999978542328 41.108001708984375,0.25600001215934753 C41.334999084472656,-0.800000011920929 41.43600082397461,-1.7630000114440918 41.41699981689453,-2.565000057220459 C41.400001525878906,-3.265000104904175 41.27000045776367,-4.377999782562256 41.06399917602539,-5.748000144958496 C40.034000396728516,-12.598999977111816 37.117000579833984,-25.864999771118164 37.117000579833984,-25.864999771118164z"></path><path stroke-linecap="butt" stroke-linejoin="miter" fill-opacity="0" stroke-miterlimit="4" stroke="rgb(255,255,255)" stroke-opacity="1" stroke-width="0.5" d=" M37.117000579833984,-25.864999771118164 C37.117000579833984,-25.864999771118164 16.63599967956543,-8.420000076293945 10.717000007629395,-12.0649995803833 C2.7170000076293945,-10.765000343322754 0.4169999957084656,-3.265000104904175 0.4169999957084656,-3.265000104904175 C0.4169999957084656,-3.265000104904175 -10.371000289916992,2.193000078201294 -6.03000020980835,7.204999923706055 C0.14399999380111694,14.333000183105469 23.868000030517578,18.834999084472656 31.06800079345703,15.53499984741211 C36.849998474121094,12.885000228881836 40.10100173950195,4.817999839782715 41.08700180053711,0.35600000619888306 C41.090999603271484,0.33799999952316284 41.095001220703125,0.3199999928474426 41.0989990234375,0.3019999861717224 C41.10200119018555,0.28700000047683716 41.10499954223633,0.2709999978542328 41.108001708984375,0.25600001215934753 C41.334999084472656,-0.800000011920929 41.43600082397461,-1.7630000114440918 41.41699981689453,-2.565000057220459 C41.400001525878906,-3.265000104904175 41.27000045776367,-4.377999782562256 41.06399917602539,-5.748000144958496 C40.034000396728516,-12.598999977111816 37.117000579833984,-25.864999771118164 37.117000579833984,-25.864999771118164z"></path></g><g opacity="1" transform="matrix(1,0,0,1,21.663999557495117,10.324000358581543)"><path stroke-linecap="round" stroke-linejoin="round" fill-opacity="0" stroke="rgb(0,0,0)" stroke-opacity="1" stroke-width="1.2" d=" M21.06399917602539,-12.836000442504883 C16.996000289916992,0.5049999952316284 11.07800006866455,8.098999977111816 3.8489999771118164,9.96500015258789 C-0.36800000071525574,11.053000450134277 -20.530000686645508,13.442000389099121 -29.388999938964844,-5.553999900817871"></path></g></g><g transform="matrix(8.79507064819336,0,0,10,492.21295166015625,721.2479858398438)" opacity="1" style="display: block;"><path fill="rgb(255,255,255)" fill-opacity="1" d=" M21.12,3.87 C18.65,6.86 18.09,9.65 19.25,13.58 M15.83,3.78 C13.56,5.64 12.44,7.58 12.14,10.01 M24.89,0.78 C25.27,3.92 22.48,3.98 20.39,3.71 C13,2.74 6.98,7.06 3.88,12.93 C0.78,18.79 1.11,31.08 6.05,35.03 C8.55,37.02 21.29,37.71 16.27,30.59 C15.89,30.06 15.32,29.15 15.04,27.88 C14.88,27.13 15.01,26.11 15.27,25.04"></path><g opacity="1" transform="matrix(1,0,0,1,19.604999542236328,8.72599983215332)"><path stroke-linecap="round" stroke-linejoin="round" fill-opacity="0" stroke="rgb(0,0,0)" stroke-opacity="1" stroke-width="1.2" d=" M1.5130000114440918,-4.85699987411499 C-0.9580000042915344,-1.86899995803833 -1.5119999647140503,0.9269999861717224 -0.3540000021457672,4.85699987411499"></path></g><g opacity="1" transform="matrix(1,0,0,1,13.984000205993652,6.894000053405762)"><path stroke-linecap="round" stroke-linejoin="round" fill-opacity="0" stroke="rgb(0,0,0)" stroke-opacity="1" stroke-width="1.2" d=" M1.840999960899353,-3.11299991607666 C-0.4259999990463257,-1.2519999742507935 -1.5420000553131104,0.6880000233650208 -1.840999960899353,3.11299991607666"></path></g><g opacity="1" transform="matrix(1,0,0,1,13.024999618530273,19.24799919128418)"><path stroke-linecap="round" stroke-linejoin="round" fill-opacity="0" stroke="rgb(0,0,0)" stroke-opacity="1" stroke-width="1.2" d=" M11.862000465393066,-18.464000701904297 C12.241999626159668,-15.32699966430664 9.45199966430664,-15.265000343322754 7.364999771118164,-15.538000106811523 C-0.02199999988079071,-16.506999969482422 -6.047999858856201,-12.187999725341797 -9.147000312805176,-6.317999839782715 C-12.241999626159668,-0.453000009059906 -11.918999671936035,11.836999893188477 -6.9710001945495605,15.782999992370605 C-4.474999904632568,17.774999618530273 8.267000198364258,18.464000701904297 3.246000051498413,11.343000411987305 C2.86899995803833,10.807999610900879 2.2929999828338623,9.906999588012695 2.0139999389648438,8.628000259399414 C1.8519999980926514,7.88700008392334 1.9889999628067017,6.863999843597412 2.249000072479248,5.789000034332275"></path></g></g><g transform="matrix(10,0,0,10,788.4929809570312,942.074951171875)" opacity="1" style="display: block;"><path fill="rgb(255,255,255)" fill-opacity="1" d=" M12.03,0.78 C11.59,2.1 10.85,4.41 11.15,5.79 C11.43,7.07 12.01,7.97 12.38,8.51 C16.57,14.45 8.15,14.97 4.47,13.93 C0.78,12.88 0.92,5.88 0.85,2.82"></path><g opacity="1" transform="matrix(1,0,0,1,8.677000045776367,7.875999927520752)"><path stroke-linecap="round" stroke-linejoin="round" fill-opacity="0" stroke="rgb(0,0,0)" stroke-opacity="1" stroke-width="1.2" d=" M3.3499999046325684,-7.0929999351501465 C2.9110000133514404,-5.7789998054504395 2.1730000972747803,-3.4690001010894775 2.4760000705718994,-2.0829999446868896 C2.753999948501587,-0.8040000200271606 3.3299999237060547,0.09799999743700027 3.7060000896453857,0.6330000162124634 C7.894000053405762,6.570000171661377 -0.5249999761581421,7.0929999351501465 -4.210999965667725,6.050000190734863 C-7.894000053405762,5.006999969482422 -7.752999782562256,-1.9950000047683716 -7.822999954223633,-5.054999828338623"></path></g></g><g transform="matrix(9.819058418273926,-1.8936965465545654,1.8936965465545654,9.819058418273926,565.5332641601562,458.57843017578125)" opacity="1" style="display: block;"><path fill="rgb(255,255,255)" fill-opacity="1" d=" M10.670000076293945,41.96900177001953 C10.670000076293945,41.96900177001953 1.406999945640564,32.944000244140625 5.1570000648498535,20.530000686645508 C4.297999858856201,20.26300048828125 4.488999843597412,16.292999267578125 4.985000133514404,15.232999801635742 C5.394999980926514,14.355999946594238 7.6570000648498535,11.562000274658203 9.015000343322754,12.531000137329102 C15.71399974822998,2.055000066757202 27.445999145507812,1.6950000524520874 35.73899841308594,5.9679999351501465 C37.625,5.183000087738037 40.402000427246094,5.872000217437744 41.194000244140625,6.796000003814697 C41.87699890136719,7.5920000076293945 42.20500183105469,9.598999977111816 41.60100173950195,11.704000473022461 C45.915000915527344,20.099000930786133 49.57899856567383,37.42399978637695 37.56999969482422,40.76900100708008 M8.83,11.98 C8.32,11.87 2.04,10.41 1.8,10.98 C0.82,13.3 1.26,19.27 5.81,21.02 M35.42,5.68 C35.93,5.57 42.21,4.11 42.45,4.68 C43.07,6.13 43.13,9.02 41.96,11.4 M8.83,11.99 C8.83,11.99 8.83,11.99 8.83,11.99 C8.83,11.99 8.83,11.99 8.83,11.99 C14.74,2.65 28.33,0.82 35.42,5.68 M4.71,20.47 C4.71,20.47 4.71,20.47 4.71,20.47 C4.71,20.47 4.71,20.47 4.71,20.47 C4.71,20.47 4.71,20.47 4.71,20.47 C4.71,20.47 4.71,20.47 4.71,20.47 C4.71,20.47 4.71,20.47 4.71,20.47 C3.77,23.37 2.41,31.77 7.49,36.3 M41.96,11.4 C48.42,21.59 50.52,35.58 38.1,40.72 C38.1,40.72 37.2,41.05 36.31,41.17 M2.23,11.11 C3.55,13.33 5.51,15.29 8.01,16.08 M42.45,4.68 C41.52,6.25 40.27,7.69 38.73,8.68 M19.23,4.13 C21.14,6.26 23.89,10.79 25.13,13.5 M28.03,3.19 C29.69,5.05 31.99,8.73 33.38,11.43 M23.79,3.45 C25.44,5.3 27.71,8.91 29.1,11.61 M10.04,28.97 C12.96,28.51 15.71,27.46 18.23,25.57 M12.75,33.35 C15.55,32.4 18.08,30.9 20.23,28.6 M46.46,21.78 C45.16,21.84 44.04,21.75 42.68,21.51 M46.9,26.14 C45.27,26.03 43.9,25.72 42.26,25.12"></path><g opacity="1" transform="matrix(1,0,0,1,0,0)"><path fill="rgb(255,255,255)" fill-opacity="1" d=" M10.670000076293945,41.96900177001953 C10.670000076293945,41.96900177001953 1.406999945640564,32.944000244140625 5.1570000648498535,20.530000686645508 C4.297999858856201,20.26300048828125 4.488999843597412,16.292999267578125 4.985000133514404,15.232999801635742 C5.394999980926514,14.355999946594238 7.6570000648498535,11.562000274658203 9.015000343322754,12.531000137329102 C15.71399974822998,2.055000066757202 27.445999145507812,1.6950000524520874 35.73899841308594,5.9679999351501465 C37.625,5.183000087738037 40.402000427246094,5.872000217437744 41.194000244140625,6.796000003814697 C41.87699890136719,7.5920000076293945 42.20500183105469,9.598999977111816 41.60100173950195,11.704000473022461 C45.915000915527344,20.099000930786133 49.57899856567383,37.42399978637695 37.56999969482422,40.76900100708008"></path><path stroke-linecap="butt" stroke-linejoin="miter" fill-opacity="0" stroke-miterlimit="4" stroke="rgb(255,255,255)" stroke-opacity="1" stroke-width="0.1" d=" M10.670000076293945,41.96900177001953 C10.670000076293945,41.96900177001953 1.406999945640564,32.944000244140625 5.1570000648498535,20.530000686645508 C4.297999858856201,20.26300048828125 4.488999843597412,16.292999267578125 4.985000133514404,15.232999801635742 C5.394999980926514,14.355999946594238 7.6570000648498535,11.562000274658203 9.015000343322754,12.531000137329102 C15.71399974822998,2.055000066757202 27.445999145507812,1.6950000524520874 35.73899841308594,5.9679999351501465 C37.625,5.183000087738037 40.402000427246094,5.872000217437744 41.194000244140625,6.796000003814697 C41.87699890136719,7.5920000076293945 42.20500183105469,9.598999977111816 41.60100173950195,11.704000473022461 C45.915000915527344,20.099000930786133 49.57899856567383,37.42399978637695 37.56999969482422,40.76900100708008"></path></g><g opacity="1" transform="matrix(1,0,0,1,4.823999881744385,15.71399974822998)"><path stroke-linecap="round" stroke-linejoin="round" fill-opacity="0" stroke="rgb(0,0,0)" stroke-opacity="1" stroke-width="1.25" d=" M4.007999897003174,-3.7300000190734863 C3.496000051498413,-3.8399999141693115 -2.7809998989105225,-5.302999973297119 -3.0230000019073486,-4.732999801635742 C-4.006999969482422,-2.4130001068115234 -3.565000057220459,3.555999994277954 0.9819999933242798,5.302999973297119"></path></g><g opacity="1" transform="matrix(1,0,0,1,39.27399826049805,7.754000186920166)"><path stroke-linecap="round" stroke-linejoin="round" fill-opacity="0" stroke="rgb(0,0,0)" stroke-opacity="1" stroke-width="1.25" d=" M-3.8519999980926514,-2.0739998817443848 C-3.3399999141693115,-2.184000015258789 2.937000036239624,-3.6470000743865967 3.178999900817871,-3.0769999027252197 C3.7950000762939453,-1.6230000257492065 3.8519999980926514,1.2640000581741333 2.688999891281128,3.6470000743865967"></path></g><g opacity="1" transform="matrix(1,0,0,1,22.12700080871582,6.401000022888184)"><path stroke-linecap="round" stroke-linejoin="round" fill-opacity="0" stroke="rgb(0,0,0)" stroke-opacity="1" stroke-width="1.25" d=" M-13.295000076293945,5.584000110626221 C-13.295000076293945,5.584000110626221 -13.295000076293945,5.584000110626221 -13.295000076293945,5.584000110626221 C-13.295000076293945,5.584000110626221 -13.295000076293945,5.584000110626221 -13.295000076293945,5.584000110626221 C-7.386000156402588,-3.753999948501587 6.198999881744385,-5.584000110626221 13.295000076293945,-0.7200000286102295"></path></g><g opacity="1" transform="matrix(1,0,0,1,4.949999809265137,28.38599967956543)"><path stroke-linecap="round" stroke-linejoin="round" fill-opacity="0" stroke="rgb(0,0,0)" stroke-opacity="1" stroke-width="1.25" d=" M-0.23800000548362732,-7.914000034332275 C-0.23800000548362732,-7.914000034332275 -0.23800000548362732,-7.914000034332275 -0.23800000548362732,-7.914000034332275 C-0.23800000548362732,-7.914000034332275 -0.23800000548362732,-7.914000034332275 -0.23800000548362732,-7.914000034332275 C-0.23800000548362732,-7.914000034332275 -0.23800000548362732,-7.914000034332275 -0.23800000548362732,-7.914000034332275 C-0.23800000548362732,-7.914000034332275 -0.23800000548362732,-7.914000034332275 -0.23800000548362732,-7.914000034332275 C-0.23800000548362732,-7.914000034332275 -0.23800000548362732,-7.914000034332275 -0.23800000548362732,-7.914000034332275 C-1.184000015258789,-5.019000053405762 -2.5399999618530273,3.380000114440918 2.5390000343322754,7.914000034332275"></path></g><g opacity="1" transform="matrix(1,0,0,1,44.308998107910156,26.059999465942383)"><path stroke-linecap="round" stroke-linejoin="round" fill-opacity="0" stroke="rgb(0,0,0)" stroke-opacity="1" stroke-width="1.25" d=" M-2.3450000286102295,-14.657999992370605 C4.11299991607666,-4.468999862670898 6.2129998207092285,9.515999794006348 -6.211999893188477,14.657999992370605 C-6.211999893188477,14.657999992370605 -7.105000019073486,14.994999885559082 -8.00100040435791,15.11400032043457"></path></g><g opacity="1" transform="matrix(1,0,0,1,5.120999813079834,13.593999862670898)"><path stroke-linecap="round" stroke-linejoin="round" fill-opacity="0" stroke="rgb(0,0,0)" stroke-opacity="1" stroke-width="1.25" d=" M-2.885999917984009,-2.4830000400543213 C-1.5709999799728394,-0.26600000262260437 0.3880000114440918,1.6959999799728394 2.885999917984009,2.4830000400543213"></path></g><g opacity="1" transform="matrix(1,0,0,1,40.5890007019043,6.676000118255615)"><path stroke-linecap="round" stroke-linejoin="round" fill-opacity="0" stroke="rgb(0,0,0)" stroke-opacity="1" stroke-width="1.25" d=" M1.8639999628067017,-2 C0.9319999814033508,-0.4300000071525574 -0.3240000009536743,1.0130000114440918 -1.8639999628067017,2"></path></g><g opacity="1" transform="matrix(1,0,0,1,22.18199920654297,8.812999725341797)"><path stroke-linecap="round" stroke-linejoin="round" fill-opacity="0" stroke="rgb(0,0,0)" stroke-opacity="1" stroke-width="1.249" d=" M-2.9519999027252197,-4.684999942779541 C-1.0429999828338623,-2.549999952316284 1.7089999914169312,1.9789999723434448 2.9519999027252197,4.684999942779541"></path></g><g opacity="1" transform="matrix(1,0,0,1,30.701000213623047,7.313000202178955)"><path stroke-linecap="round" stroke-linejoin="round" fill-opacity="0" stroke="rgb(0,0,0)" stroke-opacity="1" stroke-width="1.25" d=" M-2.6760001182556152,-4.119999885559082 C-1.0130000114440918,-2.260999917984009 1.2879999876022339,1.4149999618530273 2.6760001182556152,4.119999885559082"></path></g><g opacity="1" transform="matrix(1,0,0,1,26.444000244140625,7.5329999923706055)"><path stroke-linecap="round" stroke-linejoin="round" fill-opacity="0" stroke="rgb(0,0,0)" stroke-opacity="1" stroke-width="1.249" d=" M-2.6549999713897705,-4.078000068664551 C-1.0089999437332153,-2.23799991607666 1.2619999647140503,1.38100004196167 2.6549999713897705,4.078000068664551"></path></g><g opacity="1" transform="matrix(1,0,0,1,14.131999969482422,27.266000747680664)"><path stroke-linecap="round" stroke-linejoin="round" fill-opacity="0" stroke="rgb(0,0,0)" stroke-opacity="1" stroke-width="1.25" d=" M-4.093999862670898,1.6990000009536743 C-1.1699999570846558,1.2450000047683716 1.5820000171661377,0.19599999487400055 4.093999862670898,-1.6990000009536743"></path></g><g opacity="1" transform="matrix(1,0,0,1,16.488000869750977,30.974000930786133)"><path stroke-linecap="round" stroke-linejoin="round" fill-opacity="0" stroke="rgb(0,0,0)" stroke-opacity="1" stroke-width="1.249" d=" M-3.743000030517578,2.374000072479248 C-0.9390000104904175,1.4270000457763672 1.593000054359436,-0.07699999958276749 3.743000030517578,-2.374000072479248"></path></g><g opacity="1" transform="matrix(1,0,0,1,44.569000244140625,21.676000595092773)"><path stroke-linecap="round" stroke-linejoin="round" fill-opacity="0" stroke="rgb(0,0,0)" stroke-opacity="1" stroke-width="1.25" d=" M1.8860000371932983,0.10400000214576721 C0.5920000076293945,0.16699999570846558 -0.5339999794960022,0.07800000160932541 -1.8860000371932983,-0.16699999570846558"></path></g><g opacity="1" transform="matrix(1,0,0,1,44.57600021362305,25.628999710083008)"><path stroke-linecap="round" stroke-linejoin="round" fill-opacity="0" stroke="rgb(0,0,0)" stroke-opacity="1" stroke-width="1.25" d=" M2.319999933242798,0.5080000162124634 C0.6899999976158142,0.40400001406669617 -0.6809999942779541,0.09300000220537186 -2.319999933242798,-0.5080000162124634"></path></g><g opacity="1" transform="matrix(1,0,0,1,0,0)"><path fill="rgb(255,255,255)" fill-opacity="1" d="M0 0"></path><path stroke-linecap="butt" stroke-linejoin="miter" fill-opacity="0" stroke-miterlimit="4" stroke="rgb(0,0,0)" stroke-opacity="1" stroke-width="0" d="M0 0"></path></g></g><g transform="matrix(9.819058418273926,-1.8936965465545654,1.8936965465545654,9.819058418273926,888.3604736328125,605.0958251953125)" opacity="1" style="display: block;"><g opacity="1" transform="matrix(1,0,0,1,3.3489999771118164,1.8480000495910645)"><path fill="rgb(0,0,0)" fill-opacity="1" d=" M-0.23499999940395355,-1.0429999828338623 C-1.0729999542236328,-0.7919999957084656 -1.6469999551773071,-0.2370000034570694 -1.5169999599456787,0.19699999690055847 C-1.3869999647140503,0.6309999823570251 -0.38100001215934753,1.2929999828338623 0.4569999873638153,1.0420000553131104 C1.2949999570846558,0.7919999957084656 1.6469999551773071,-0.2759999930858612 1.5169999599456787,-0.7099999785423279 C1.3869999647140503,-1.1449999809265137 0.6029999852180481,-1.2929999828338623 -0.23499999940395355,-1.0429999828338623z"></path><path stroke-linecap="butt" stroke-linejoin="miter" fill-opacity="0" stroke-miterlimit="2.61" stroke="rgb(0,0,0)" stroke-opacity="1" stroke-width="1.2" d=" M-0.23499999940395355,-1.0429999828338623 C-1.0729999542236328,-0.7919999957084656 -1.6469999551773071,-0.2370000034570694 -1.5169999599456787,0.19699999690055847 C-1.3869999647140503,0.6309999823570251 -0.38100001215934753,1.2929999828338623 0.4569999873638153,1.0420000553131104 C1.2949999570846558,0.7919999957084656 1.6469999551773071,-0.2759999930858612 1.5169999599456787,-0.7099999785423279 C1.3869999647140503,-1.1449999809265137 0.6029999852180481,-1.2929999828338623 -0.23499999940395355,-1.0429999828338623z"></path></g><g opacity="1" transform="matrix(1,0,0,1,2.861999988555908,5.38700008392334)"><path stroke-linecap="round" stroke-linejoin="round" fill-opacity="0" stroke="rgb(0,0,0)" stroke-opacity="1" stroke-width="1.2" d=" M1.1480000019073486,-2.015000104904175 C1.3509999513626099,-0.30300000309944153 0.5070000290870667,1.5390000343322754 -1.350000023841858,2.015000104904175"></path></g><g opacity="1" transform="matrix(1,0,0,1,6.019999980926514,4.508999824523926)"><path stroke-linecap="round" stroke-linejoin="round" fill-opacity="0" stroke="rgb(0,0,0)" stroke-opacity="1" stroke-width="1.2" d=" M-2.009999990463257,-1.1369999647140503 C-1.5720000267028809,0.003000000026077032 -0.38600000739097595,1.1360000371932983 2.009999990463257,0.7300000190734863"></path></g></g><g transform="matrix(9.963213920593262,-0.8569515347480774,0.8569515347480774,9.963213920593262,977.0728759765625,602.78076171875)" opacity="1" style="display: none;"><g opacity="1" transform="matrix(1,0,0,1,3.309999942779541,3.440999984741211)"><path fill="rgb(0,0,0)" fill-opacity="1" d=" M-0.4880000054836273,-1.7289999723434448 C-1.0240000486373901,-1.5779999494552612 -1.2400000095367432,-0.6819999814033508 -0.9710000157356262,0.27300000190734863 C-0.7020000219345093,1.2289999723434448 -0.05000000074505806,1.8799999952316284 0.4880000054836273,1.7289999723434448 C1.0230000019073486,1.5779999494552612 1.2400000095367432,0.6809999942779541 0.9700000286102295,-0.27399998903274536 C0.699999988079071,-1.2289999723434448 0.04800000041723251,-1.8799999952316284 -0.4880000054836273,-1.7289999723434448z"></path><path stroke-linecap="round" stroke-linejoin="round" fill-opacity="0" stroke="rgb(0,0,0)" stroke-opacity="1" stroke-width="1.2" d=" M-0.4880000054836273,-1.7289999723434448 C-1.0240000486373901,-1.5779999494552612 -1.2400000095367432,-0.6819999814033508 -0.9710000157356262,0.27300000190734863 C-0.7020000219345093,1.2289999723434448 -0.05000000074505806,1.8799999952316284 0.4880000054836273,1.7289999723434448 C1.0230000019073486,1.5779999494552612 1.2400000095367432,0.6809999942779541 0.9700000286102295,-0.27399998903274536 C0.699999988079071,-1.2289999723434448 0.04800000041723251,-1.8799999952316284 -0.4880000054836273,-1.7289999723434448z"></path></g><g opacity="1" transform="matrix(1,0,0,1,3.122999906539917,1.5)"><path stroke-linecap="round" stroke-linejoin="round" fill-opacity="0" stroke="rgb(0,0,0)" stroke-opacity="1" stroke-width="1.2" d=" M1.965999960899353,-0.34299999475479126 C1.965999960899353,-0.34299999475479126 -0.2160000056028366,0.03799999877810478 -0.2160000056028366,0.03799999877810478 C-0.2160000056028366,0.03799999877810478 -1.965999960899353,0.34299999475479126 -1.965999960899353,0.34299999475479126"></path></g></g><g style="display: block;" transform="matrix(9.819058418273926,-1.8936965465545654,1.8936965465545654,9.819058418273926,934.5565795898438,538.085205078125)" opacity="1"><g opacity="1" transform="matrix(0,0,0,1,3.309999942779541,3.440999984741211)"><path fill="rgb(0,0,0)" fill-opacity="1" d=" M-0.004000000189989805,-0.09600000083446503 C-0.5400000214576721,0.054999999701976776 -0.9710000157356262,0.27300000190734863 -0.9710000157356262,0.27300000190734863 C-0.9710000157356262,0.27300000190734863 -0.5199999809265137,0.09000000357627869 0.017999999225139618,-0.061000000685453415 C0.5529999732971191,-0.21199999749660492 0.9700000286102295,-0.27399998903274536 0.9700000286102295,-0.27399998903274536 C0.9700000286102295,-0.27399998903274536 0.5320000052452087,-0.24699999392032623 -0.004000000189989805,-0.09600000083446503z"></path><path stroke-linecap="round" stroke-linejoin="round" fill-opacity="0" stroke="rgb(0,0,0)" stroke-opacity="1" stroke-width="1.2" d=" M-0.004000000189989805,-0.09600000083446503 C-0.5400000214576721,0.054999999701976776 -0.9710000157356262,0.27300000190734863 -0.9710000157356262,0.27300000190734863 C-0.9710000157356262,0.27300000190734863 -0.5199999809265137,0.09000000357627869 0.017999999225139618,-0.061000000685453415 C0.5529999732971191,-0.21199999749660492 0.9700000286102295,-0.27399998903274536 0.9700000286102295,-0.27399998903274536 C0.9700000286102295,-0.27399998903274536 0.5320000052452087,-0.24699999392032623 -0.004000000189989805,-0.09600000083446503z"></path></g><g opacity="1" transform="matrix(1,0,0,1,3.122999906539917,1.5)"><path stroke-linecap="round" stroke-linejoin="round" fill-opacity="0" stroke="rgb(0,0,0)" stroke-opacity="1" stroke-width="1.4" d=" M2.1470000743865967,1.309000015258789 C2.1470000743865967,1.309000015258789 1.4800000190734863,-0.2720000147819519 -0.18299999833106995,0.17000000178813934 C-1.9919999837875366,0.6510000228881836 -1.690999984741211,2.178999900817871 -1.690999984741211,2.178999900817871"></path></g></g><g transform="matrix(9.963213920593262,-0.8569515347480774,0.8569515347480774,9.963213920593262,832.1885986328125,636.139404296875)" opacity="1" style="display: none;"><g opacity="1" transform="matrix(1,0,0,1,3.309999942779541,3.440999984741211)"><path fill="rgb(0,0,0)" fill-opacity="1" d=" M-0.4880000054836273,-1.7289999723434448 C-1.0240000486373901,-1.5779999494552612 -1.2400000095367432,-0.6819999814033508 -0.9710000157356262,0.27300000190734863 C-0.7020000219345093,1.2289999723434448 -0.05000000074505806,1.8799999952316284 0.4880000054836273,1.7289999723434448 C1.0230000019073486,1.5779999494552612 1.2400000095367432,0.6809999942779541 0.9700000286102295,-0.27399998903274536 C0.699999988079071,-1.2289999723434448 0.04800000041723251,-1.8799999952316284 -0.4880000054836273,-1.7289999723434448z"></path><path stroke-linecap="round" stroke-linejoin="round" fill-opacity="0" stroke="rgb(0,0,0)" stroke-opacity="1" stroke-width="1.2" d=" M-0.4880000054836273,-1.7289999723434448 C-1.0240000486373901,-1.5779999494552612 -1.2400000095367432,-0.6819999814033508 -0.9710000157356262,0.27300000190734863 C-0.7020000219345093,1.2289999723434448 -0.05000000074505806,1.8799999952316284 0.4880000054836273,1.7289999723434448 C1.0230000019073486,1.5779999494552612 1.2400000095367432,0.6809999942779541 0.9700000286102295,-0.27399998903274536 C0.699999988079071,-1.2289999723434448 0.04800000041723251,-1.8799999952316284 -0.4880000054836273,-1.7289999723434448z"></path></g><g opacity="1" transform="matrix(1,0,0,1,3.122999906539917,1.5)"><path stroke-linecap="round" stroke-linejoin="round" fill-opacity="0" stroke="rgb(0,0,0)" stroke-opacity="1" stroke-width="1.2" d=" M1.965999960899353,-0.34299999475479126 C1.965999960899353,-0.34299999475479126 -0.2160000056028366,0.03799999877810478 -0.2160000056028366,0.03799999877810478 C-0.2160000056028366,0.03799999877810478 -2.5269999504089355,0.4449999928474426 -2.5269999504089355,0.4449999928474426"></path></g></g><g style="display: block;" transform="matrix(9.819058418273926,-1.8936965465545654,1.8936965465545654,9.819058418273926,793.952880859375,586.4056396484375)" opacity="1"><g opacity="1" transform="matrix(0,0,0,1,3.309999942779541,3.440999984741211)"><path fill="rgb(0,0,0)" fill-opacity="1" d=" M-0.004000000189989805,-0.09600000083446503 C-0.5400000214576721,0.054999999701976776 -0.9710000157356262,0.27300000190734863 -0.9710000157356262,0.27300000190734863 C-0.9710000157356262,0.27300000190734863 -0.5199999809265137,0.09000000357627869 0.017999999225139618,-0.061000000685453415 C0.5529999732971191,-0.21199999749660492 0.9700000286102295,-0.27399998903274536 0.9700000286102295,-0.27399998903274536 C0.9700000286102295,-0.27399998903274536 0.5320000052452087,-0.24699999392032623 -0.004000000189989805,-0.09600000083446503z"></path><path stroke-linecap="round" stroke-linejoin="round" fill-opacity="0" stroke="rgb(0,0,0)" stroke-opacity="1" stroke-width="1.2" d=" M-0.004000000189989805,-0.09600000083446503 C-0.5400000214576721,0.054999999701976776 -0.9710000157356262,0.27300000190734863 -0.9710000157356262,0.27300000190734863 C-0.9710000157356262,0.27300000190734863 -0.5199999809265137,0.09000000357627869 0.017999999225139618,-0.061000000685453415 C0.5529999732971191,-0.21199999749660492 0.9700000286102295,-0.27399998903274536 0.9700000286102295,-0.27399998903274536 C0.9700000286102295,-0.27399998903274536 0.5320000052452087,-0.24699999392032623 -0.004000000189989805,-0.09600000083446503z"></path></g><g opacity="1" transform="matrix(1,0,0,1,3.122999906539917,1.5)"><path stroke-linecap="round" stroke-linejoin="round" fill-opacity="0" stroke="rgb(0,0,0)" stroke-opacity="1" stroke-width="1.4" d=" M2.1470000743865967,1.309000015258789 C2.1470000743865967,1.309000015258789 1.4800000190734863,-0.2720000147819519 -0.18299999833106995,0.17000000178813934 C-1.9919999837875366,0.6510000228881836 -1.690999984741211,2.178999900817871 -1.690999984741211,2.178999900817871"></path></g></g><g transform="matrix(1,0,0,1,750,750)" opacity="1" style="display: block;"></g></g></svg>