<svg  xmlns="http://www.w3.org/2000/svg" viewBox="0 0 1500 1500" width="1500" height="1500" preserveAspectRatio="xMidYMid meet"
            style="width: 100%; height: 100%; transform: translate3d(0px, 0px, 0px);">
            <defs>
                <clipPath id="__lottie_element_24">
                    <rect width="1500" height="1500" x="0" y="0"></rect>
                </clipPath>
                <mask id="__lottie_element_30" mask-type="alpha">
                    <g transform="matrix(-0.9925461411476135,-0.12186932563781738,-0.12186932563781738,0.9925461411476135,924.1098022460938,661.9219970703125)"
                        opacity="1" style="display: block;">
                        <g opacity="1" transform="matrix(1,0,0,1,0,0)">
                            <path fill="rgb(255,0,0)" fill-opacity="1" d=" M132.5,-148.5 C132.5,-148.5 92.5,-132.5 92.5,-132.5 C92.5,-132.5 120,-80.5 120,-80.5 C120,-80.5 163.5,-97 163.5,-97 C163.5,-97 132.5,-148.5 132.5,-148.5z"></path>
                            <path stroke-linecap="butt" stroke-linejoin="miter" fill-opacity="0" stroke-miterlimit="4" stroke="rgb(0,0,0)"
                                stroke-opacity="1" stroke-width="0" d=" M132.5,-148.5 C132.5,-148.5 92.5,-132.5 92.5,-132.5 C92.5,-132.5 120,-80.5 120,-80.5 C120,-80.5 163.5,-97 163.5,-97 C163.5,-97 132.5,-148.5 132.5,-148.5z"></path>
                        </g>
                        <g opacity="1" transform="matrix(1,0,0,1,0,0)">
                            <path fill="rgb(255,0,0)" fill-opacity="1" d=" M239,-177.5 C239,-177.5 205,-164 205,-164 C205,-164 237.5,-101.5 237.5,-101.5 C237.5,-101.5 271,-113 271,-113 C271,-113 239,-177.5 239,-177.5z"></path>
                            <path stroke-linecap="butt" stroke-linejoin="miter" fill-opacity="0" stroke-miterlimit="4" stroke="rgb(0,0,0)"
                                stroke-opacity="1" stroke-width="0" d=" M239,-177.5 C239,-177.5 205,-164 205,-164 C205,-164 237.5,-101.5 237.5,-101.5 C237.5,-101.5 271,-113 271,-113 C271,-113 239,-177.5 239,-177.5z"></path>
                        </g>
                    </g>
                </mask>
            </defs>
            <g clip-path="url(#__lottie_element_24)">
                <g transform="matrix(-9.902680397033691,-1.3917310237884521,-1.3917310237884521,9.902680397033691,971.9593505859375,776.7720336914062)"
                    opacity="1" style="display: block;">
                    <path fill="rgb(255,255,255)" fill-opacity="1" d=" M27.69,-9.95 C27.69,-9.95 26.95,-10.5 17.34,-6.27 C6.66,-1.51 1.17,9.56 0.98,17.11 C0.78,24.79 4.56,30.54 12.72,30.54 C11.51,27.69 11.31,24.03 11.85,21.07"></path>
                    <g opacity="1" transform="matrix(1,0,0,1,14.645999908447266,15.663999557495117)">
                        <path stroke-linecap="round" stroke-linejoin="round" fill-opacity="0" stroke="rgb(0,0,0)"
                            stroke-opacity="1" stroke-width="1.201" d=" M13.041999816894531,-25.618999481201172 C13.041999816894531,-25.618999481201172 12.303999900817871,-26.159000396728516 2.6989998817443848,-21.937000274658203 C-7.985000133514404,-17.170000076293945 -13.472999572753906,-6.105000019073486 -13.664999961853027,1.4450000524520874 C-13.861000061035156,9.130000114440918 -10.088000297546387,14.878999710083008 -1.9240000247955322,14.878999710083008 C-3.138000011444092,12.027000427246094 -3.3380000591278076,8.369999885559082 -2.7939999103546143,5.4070000648498535"></path>
                    </g>
                </g>
                <g transform="matrix(-9.902680397033691,-1.3917310237884521,-1.3917310237884521,9.902680397033691,1168.671630859375,743.8328247070312)"
                    opacity="1" style="display: block;">
                    <path fill="rgb(255,255,255)" fill-opacity="1" d=" M11.57,13.18 C8.6,10.92 9.53,6.6 13,5.19 C3.68,0.78 0.78,13.23 8.52,14.21 C9.69,14.36 10.72,14.03 11.57,13.18z"></path>
                    <g opacity="1" transform="matrix(1,0,0,1,6.894000053405762,7.570000171661377)">
                        <path stroke-linecap="round" stroke-linejoin="round" fill-opacity="0" stroke="rgb(0,0,0)"
                            stroke-opacity="1" stroke-width="1.2" d=" M4.673999786376953,5.609000205993652 C1.7029999494552612,3.3480000495910645 2.640000104904175,-0.9739999771118164 6.110000133514404,-2.378000020980835 C-3.2130000591278076,-6.785999774932861 -6.110000133514404,5.660999774932861 1.628999948501587,6.638999938964844 C2.7920000553131104,6.785999774932861 3.8299999237060547,6.460000038146973 4.673999786376953,5.609000205993652z"></path>
                    </g>
                </g>
                <g transform="matrix(-9.848077774047852,-1.7364819049835205,-1.7364819049835205,9.848077774047852,724.0294189453125,765.7288818359375)"
                    opacity="1" style="display: block;">
                    <path fill="rgb(255,255,255)" fill-opacity="1" d=" M1.45,-1.34 C2.95,1.25 7.27,6.38 9.87,7.42 C7.29,9.63 4.31,11.1 0.81,10.39"></path>
                    <g opacity="1" transform="matrix(1,0,0,1,5.3420000076293945,5.955999851226807)">
                        <path stroke-linecap="round" stroke-linejoin="round" fill-opacity="0" stroke="rgb(0,0,0)"
                            stroke-opacity="1" stroke-width="1.24" d=" M-3.8959999084472656,-7.300000190734863 C-2.3889999389648438,-4.702000141143799 1.9249999523162842,0.42100000381469727 4.5320000648498535,1.4670000076293945 C1.9500000476837158,3.674999952316284 -1.031000018119812,5.145999908447266 -4.5320000648498535,4.433000087738037"></path>
                    </g>
                </g>
                <g transform="matrix(-9.925461769104004,-1.2186932563781738,-1.2186932563781738,9.925461769104004,787.989501953125,366.73382568359375)"
                    opacity="1" style="display: block;">
                    <g opacity="1" transform="matrix(1,0,0,1,11.935999870300293,12.807999610900879)">
                        <path fill="rgb(255,255,255)" fill-opacity="1" d=" M6.146999835968018,12.02299976348877 C9.654999732971191,9.720999717712402 11.151000022888184,7.334000110626221 9.37399959564209,6.139999866485596 C1.6139999628067017,1.2300000190734863 -1.878000020980835,-12.02400016784668 -11.151000022888184,-10.864999771118164"></path>
                        <path stroke-linecap="round" stroke-linejoin="round" fill-opacity="0" stroke="rgb(0,0,0)"
                            stroke-opacity="1" stroke-width="1.201" d=" M6.146999835968018,12.02299976348877 C9.654999732971191,9.720999717712402 11.151000022888184,7.334000110626221 9.37399959564209,6.139999866485596 C1.6139999628067017,1.2300000190734863 -1.878000020980835,-12.02400016784668 -11.151000022888184,-10.864999771118164"></path>
                    </g>
                </g>
                <g transform="matrix(-8.480481147766113,-5.299192428588867,-5.299192428588867,8.480481147766113,1033.44482421875,890.2615966796875)"
                    opacity="1" style="display: block;">
                    <path fill="rgb(255,255,255)" fill-opacity="1" d=" M35.33,-17.41 C35.33,-17.41 45.58,-7.62 41.15,-0.71 C38.08,4.07 34.61,12.31 31.34,16.55 C28.85,19.77 23.84,23.83 16.64,24.26 C7.72,24.79 0.78,19.01 0.78,19.01 C0.78,19.01 -7.89,8.93 -7.89,8.93"></path>
                    <g opacity="1" transform="matrix(1,0,0,1,20.81599998474121,11.428999900817871)">
                        <path stroke-linecap="round" stroke-linejoin="round" fill-opacity="0" stroke="rgb(0,0,0)"
                            stroke-opacity="1" stroke-width="1.2" d=" M14.515000343322754,-28.8439998626709 C14.515000343322754,-28.8439998626709 24.768999099731445,-19.047000885009766 20.329999923706055,-12.140000343322754 C17.259000778198242,-7.361000061035156 13.795000076293945,0.8830000162124634 10.520000457763672,5.124000072479248 C8.038000106811523,8.33899974822998 3.0250000953674316,12.39900016784668 -4.172999858856201,12.829999923706055 C-13.093999862670898,13.36400032043457 -20.033000946044922,7.583000183105469 -20.033000946044922,7.583000183105469 C-20.033000946044922,7.583000183105469 -28.70599937438965,-2.496999979019165 -28.70599937438965,-2.496999979019165"></path>
                    </g>
                </g>
                <g transform="matrix(-0.9925461411476135,-0.12186932563781738,-0.12186932563781738,0.9925461411476135,924.1135864257812,661.9234619140625)"
                    opacity="1" style="display: block;">
                    <g opacity="1" transform="matrix(1,0,0,1,0,0)">
                        <path fill="rgb(255,255,255)" fill-opacity="1" d=" M76,-277.5 C76,-277.5 63,-266.5 63,-266.5 C63,-266.5 1.5,-222.5 -46,-178 C-93.5,-133.5 -69.5,-34.5 -70,-31 C-70.5,-27.5 -62.74100112915039,75.30400085449219 -62.74100112915039,75.30400085449219 C-62.74100112915039,75.30400085449219 -80.65899658203125,151.0330047607422 -57.060001373291016,154.1300048828125 C-21.797000885009766,158.7570037841797 79.00199890136719,89.80000305175781 80.5,89.5 C83,89 258.5,10 258.5,10 C258.5,10 294.5,-62.5 294.5,-62.5 C294.5,-62.5 289.5,-158 288,-165.5 C286.5,-173 218,-227.5 209,-231 C200,-234.5 178.9949951171875,-258.2850036621094 178.9949951171875,-258.2850036621094 C178.9949951171875,-258.2850036621094 129.5,-272.5 129.5,-272.5 C129.5,-272.5 76,-277.5 76,-277.5z"></path>
                        <path stroke-linecap="butt" stroke-linejoin="miter" fill-opacity="0" stroke-miterlimit="4" stroke="rgb(0,0,0)"
                            stroke-opacity="1" stroke-width="0" d=" M76,-277.5 C76,-277.5 63,-266.5 63,-266.5 C63,-266.5 1.5,-222.5 -46,-178 C-93.5,-133.5 -69.5,-34.5 -70,-31 C-70.5,-27.5 -62.74100112915039,75.30400085449219 -62.74100112915039,75.30400085449219 C-62.74100112915039,75.30400085449219 -80.65899658203125,151.0330047607422 -57.060001373291016,154.1300048828125 C-21.797000885009766,158.7570037841797 79.00199890136719,89.80000305175781 80.5,89.5 C83,89 258.5,10 258.5,10 C258.5,10 294.5,-62.5 294.5,-62.5 C294.5,-62.5 289.5,-158 288,-165.5 C286.5,-173 218,-227.5 209,-231 C200,-234.5 178.9949951171875,-258.2850036621094 178.9949951171875,-258.2850036621094 C178.9949951171875,-258.2850036621094 129.5,-272.5 129.5,-272.5 C129.5,-272.5 76,-277.5 76,-277.5z"></path>
                    </g>
                </g>
                <g transform="matrix(-8.480481147766113,-5.299192428588867,-5.299192428588867,8.480481147766113,871.6549072265625,830.1876220703125)"
                    opacity="1" style="display: block;">
                    <path fill="rgb(255,255,255)" fill-opacity="1" d=" M8.76,0.81 C8.22,3.76 8.32,7.77 9.63,10.25 C6.23,10.25 3.01,9.44 0.81,6.62"></path>
                    <g opacity="1" transform="matrix(1,0,0,1,5.2179999351501465,5.5320000648498535)">
                        <path stroke-linecap="round" stroke-linejoin="round" fill-opacity="0" stroke="rgb(0,0,0)"
                            stroke-opacity="1" stroke-width="1.24" d=" M3.5399999618530273,-4.7220001220703125 C2.997999906539917,-1.7680000066757202 3.1059999465942383,2.2330000400543213 4.4079999923706055,4.7220001220703125 C1.0110000371932983,4.7220001220703125 -2.2119998931884766,3.9030001163482666 -4.4079999923706055,1.0859999656677246"></path>
                    </g>
                </g>
                <g transform="matrix(-9.902680397033691,-1.3917310237884521,-1.3917310237884521,9.902680397033691,1090.9593505859375,798.77197265625)"
                    opacity="1" style="display: block;">
                    <path fill="rgb(255,255,255)" fill-opacity="1" d=" M13.86,-10.03 C13.86,-10.03 13.5,-6.91 13,-3.75 C12.03,2.42 1.26,2.88 0.26,16.5 C0.06,24.19 4.56,30.54 12.72,30.54 C11.51,27.69 11.31,24.03 11.85,21.07"></path>
                    <g opacity="1" transform="matrix(1,0,0,1,14.645999908447266,15.663999557495117)">
                        <path stroke-linecap="round" stroke-linejoin="round" fill-opacity="0" stroke="rgb(0,0,0)"
                            stroke-opacity="1" stroke-width="1.201" d=" M-0.7820000052452087,-25.69300079345703 C-0.7820000052452087,-25.69300079345703 -1.1449999809265137,-22.57200050354004 -1.6440000534057617,-19.41699981689453 C-2.619999885559082,-13.244000434875488 -13.388999938964844,-12.788000106811523 -14.387999534606934,0.8389999866485596 C-14.583999633789062,8.52400016784668 -10.088000297546387,14.878999710083008 -1.9240000247955322,14.878999710083008 C-3.138000011444092,12.027000427246094 -3.3380000591278076,8.369999885559082 -2.7939999103546143,5.4070000648498535"></path>
                    </g>
                </g>
                <g transform="matrix(-9.925461769104004,-1.2186932563781738,-1.2186932563781738,9.925461769104004,888.8773803710938,440.52703857421875)"
                    opacity="1" style="display: block;">
                    <path fill="rgb(255,255,255)" fill-opacity="1" d=" M15.06,8.36 C19.63,9.61 21.82,9.07 23.64,7.76 M23.64,7.76 C26.6,9.87 27.96,12.44 28.59,15.96 C30.9,28.87 12.32,40.79 0.78,24.91 M21.95,8.37 C22.9,7.45 23.72,6.89 24.95,6.33 C25.74,5.96 26.49,5.98 27.06,6.28 C27.95,6.73 28.13,7.62 28.2,8.51 C28.33,10.09 27.79,11.12 26.97,11.71 C26.11,12.26 24.88,12.44 23.28,11.87 C22.37,11.54 21.5,11.12 21.28,10.21 C21.14,9.62 21.34,8.96 21.95,8.37z M17.12,0.78 C18.85,2.79 20.33,5.18 21.45,7.94"></path>
                    <g opacity="1" transform="matrix(1,0,0,1,19.349000930786133,8.684000015258789)">
                        <path stroke-linecap="round" stroke-linejoin="round" fill-opacity="0" stroke="rgb(0,0,0)"
                            stroke-opacity="1" stroke-width="1.204" d=" M-4.289999961853027,-0.32100000977516174 C0.2759999930858612,0.9269999861717224 2.4730000495910645,0.3840000033378601 4.289999961853027,-0.9269999861717224"></path>
                    </g>
                    <g opacity="1" transform="matrix(1,0,0,1,15.840999603271484,24.27199935913086)">
                        <path stroke-linecap="round" stroke-linejoin="round" fill-opacity="0" stroke="rgb(0,0,0)"
                            stroke-opacity="1" stroke-width="1.2" d=" M7.797999858856201,-16.516000747680664 C10.763999938964844,-14.404000282287598 12.114999771118164,-11.833000183105469 12.744999885559082,-8.312999725341797 C15.057999610900879,4.6020002365112305 -3.5160000324249268,16.516000747680664 -15.057000160217285,0.6399999856948853"></path>
                    </g>
                    <g opacity="1" transform="matrix(1,0,0,1,24.733999252319336,9.199000358581543)">
                        <path fill="rgb(0,0,0)" fill-opacity="1" d=" M-2.7820000648498535,-0.8339999914169312 C-1.8370000123977661,-1.753999948501587 -1.0169999599456787,-2.311000108718872 0.2150000035762787,-2.874000072479248 C1.0080000162124634,-3.2360000610351562 1.7569999694824219,-3.2219998836517334 2.3310000896453857,-2.9240000247955322 C3.2139999866485596,-2.4670000076293945 3.3980000019073486,-1.5770000219345093 3.4679999351501465,-0.6869999766349792 C3.5940001010894775,0.8920000195503235 3.056999921798706,1.9179999828338623 2.2339999675750732,2.51200008392334 C1.3760000467300415,3.062999963760376 0.1509999930858612,3.236999988555908 -1.4539999961853027,2.6670000553131104 C-2.3589999675750732,2.3450000286102295 -3.2320001125335693,1.9229999780654907 -3.4509999752044678,1.0119999647140503 C-3.5940001010894775,0.42100000381469727 -3.390000104904175,-0.24199999868869781 -2.7820000648498535,-0.8339999914169312z"></path>
                    </g>
                    <g opacity="1" transform="matrix(1,0,0,1,19.281999588012695,4.363999843597412)">
                        <path stroke-linecap="round" stroke-linejoin="round" fill-opacity="0" stroke="rgb(0,0,0)"
                            stroke-opacity="1" stroke-width="1.201" d=" M-2.1640000343322754,-3.5789999961853027 C-0.42899999022483826,-1.5779999494552612 1.0460000038146973,0.8140000104904175 2.1640000343322754,3.5789999961853027"></path>
                    </g>
                </g>
                <g transform="matrix(-9.925461769104004,-1.2186932563781738,-1.2186932563781738,9.925461769104004,997.6964111328125,686.8245849609375)"
                    opacity="1" style="display: block;">
                    <g opacity="1" transform="matrix(1,0,0,1,9.031000137329102,7.426000118255615)">
                        <path fill="rgb(255,153,153)" fill-opacity="1" d=" M4.35699987411499,-5.245999813079834 C-8.246999740600586,3.2079999446868896 8.246999740600586,6.642000198364258 7.953999996185303,-2.0929999351501465 C7.889999866485596,-3.990000009536743 6.438000202178955,-6.642000198364258 4.35699987411499,-5.245999813079834z"></path>
                        <path stroke-linecap="round" stroke-linejoin="round" fill-opacity="0" stroke="rgb(0,0,0)"
                            stroke-opacity="1" stroke-width="1.2" d=" M4.35699987411499,-5.245999813079834 C-8.246999740600586,3.2079999446868896 8.246999740600586,6.642000198364258 7.953999996185303,-2.0929999351501465 C7.889999866485596,-3.990000009536743 6.438000202178955,-6.642000198364258 4.35699987411499,-5.245999813079834z"></path>
                    </g>
                    <g opacity="1" transform="matrix(1,0,0,1,13.652999877929688,4.656000137329102)">
                        <path stroke-linecap="round" stroke-linejoin="round" fill-opacity="0" stroke="rgb(0,0,0)"
                            stroke-opacity="1" stroke-width="1.2" d=" M1.312000036239624,-2.3550000190734863 C1.3680000305175781,-0.3529999852180481 0.6710000038146973,1.5470000505447388 -1.3680000305175781,2.3550000190734863"></path>
                    </g>
                </g>
                <g transform="matrix(-9.925461769104004,-1.2186932563781738,-1.2186932563781738,9.925461769104004,873.8759765625,322.15142822265625)"
                    opacity="1" style="display: block;">
                    <g opacity="1" transform="matrix(1,0,0,1,5.888000011444092,4.099999904632568)">
                        <path fill="rgb(255,255,255)" fill-opacity="1" d=" M-5.103000164031982,1.4809999465942383 C-4.7729997634887695,1.2519999742507935 -2.7149999141693115,0.7300000190734863 0.8450000286102295,-1.8450000286102295 C2.878999948501587,-3.315000057220459 1.2209999561309814,1.8420000076293945 -0.11999999731779099,1.9670000076293945 C0.7089999914169312,2.0350000858306885 3.428999900817871,0.4970000088214874 3.890000104904175,0.24300000071525574 C5.103000164031982,-0.42500001192092896 4.1020002365112305,2.5329999923706055 2.6540000438690186,3.315000057220459"></path>
                        <path stroke-linecap="round" stroke-linejoin="round" fill-opacity="0" stroke="rgb(0,0,0)"
                            stroke-opacity="1" stroke-width="1.201" d=" M-5.103000164031982,1.4809999465942383 C-4.7729997634887695,1.2519999742507935 -2.7149999141693115,0.7300000190734863 0.8450000286102295,-1.8450000286102295 C2.878999948501587,-3.315000057220459 1.2209999561309814,1.8420000076293945 -0.11999999731779099,1.9670000076293945 C0.7089999914169312,2.0350000858306885 3.428999900817871,0.4970000088214874 3.890000104904175,0.24300000071525574 C5.103000164031982,-0.42500001192092896 4.1020002365112305,2.5329999923706055 2.6540000438690186,3.315000057220459"></path>
                    </g>
                </g>
                <g transform="matrix(-9.925461769104004,-1.2186932563781738,-1.2186932563781738,9.925461769104004,1217.128173828125,390.9400939941406)"
                    opacity="1" style="display: block;">
                    <path fill="rgb(255,255,255)" fill-opacity="1" d=" M23.91,19.84 C23.91,22.04 23.58,25.49 24.49,27.44 C26.58,31.93 22.13,29.99 22.37,31.32 C24.73,44.32 0.78,30.55 5.09,26.8 C11.66,21.37 12.94,19.74 15.2,15.34 C20.31,5.37 28.5,0.78 35.69,2.94"></path>
                    <g opacity="1" transform="matrix(1,0,0,1,18.23900032043457,22.552000045776367)">
                        <path stroke-linecap="round" stroke-linejoin="round" fill-opacity="0" stroke="rgb(0,0,0)"
                            stroke-opacity="1" stroke-width="1.201" d=" M5.671999931335449,-2.7170000076293945 C5.671999931335449,-0.5130000114440918 5.335999965667725,2.933000087738037 6.248000144958496,4.88700008392334 C8.343000411987305,9.37399959564209 3.8940000534057617,7.440000057220459 4.135000228881836,8.770999908447266 C6.491000175476074,21.76799964904785 -17.45400047302246,8.00100040435791 -13.152000427246094,4.244999885559082 C-6.580999851226807,-1.1859999895095825 -5.296999931335449,-2.815999984741211 -3.0399999618530273,-7.2170000076293945 C2.069000005722046,-17.179000854492188 10.26200008392334,-21.767000198364258 17.45400047302246,-19.614999771118164"></path>
                    </g>
                </g>
                <g mask="url(#__lottie_element_30)" style="display: block;">
                    <g transform="matrix(-9.925461769104004,-1.2186932563781738,-1.2186932563781738,9.925461769104004,839.15771484375,477.5345153808594)"
                        opacity="1">
                        <g opacity="1" transform="matrix(1,0,0,1,2.003999948501587,5.375)">
                            <path fill="rgb(0,0,0)" fill-opacity="1" d=" M-1.1369999647140503,-1.9670000076293945 C-1.5509999990463257,-1.7280000448226929 -1.753999948501587,-1.2660000324249268 -1.746999979019165,-0.7120000123977661 C-1.7419999837875366,-0.26600000262260437 -1.5959999561309814,0.2590000033378601 -1.309999942779541,0.7549999952316284 C-1.0240000486373901,1.2519999742507935 -0.6420000195503235,1.6419999599456787 -0.25699999928474426,1.8700000047683716 C0.21899999678134918,2.1519999504089355 0.722000002861023,2.2060000896453857 1.1369999647140503,1.9670000076293945 C1.5509999990463257,1.7280000448226929 1.753999948501587,1.2660000324249268 1.7480000257492065,0.7120000123977661 C1.7419999837875366,0.26600000262260437 1.5950000286102295,-0.257999986410141 1.309000015258789,-0.753000020980835 C1.0230000019073486,-1.2510000467300415 0.640999972820282,-1.6399999856948853 0.25699999928474426,-1.8680000305175781 C-0.2199999988079071,-2.1500000953674316 -0.722000002861023,-2.2070000171661377 -1.1369999647140503,-1.9670000076293945z"></path>
                        </g>
                        <g opacity="1" transform="matrix(1,0,0,1,12.793999671936035,2.4570000171661377)">
                            <path fill="rgb(0,0,0)" fill-opacity="1" d=" M-1.1369999647140503,-1.9670000076293945 C-1.5509999990463257,-1.7280000448226929 -1.753999948501587,-1.2640000581741333 -1.746999979019165,-0.7099999785423279 C-1.7419999837875366,-0.26499998569488525 -1.5959999561309814,0.25999999046325684 -1.3109999895095825,0.7549999952316284 C-1.0240000486373901,1.253000020980835 -0.6430000066757202,1.6419999599456787 -0.257999986410141,1.8700000047683716 C0.21799999475479126,2.1530001163482666 0.722000002861023,2.2060000896453857 1.1369999647140503,1.9670000076293945 C1.5509999990463257,1.7280000448226929 1.753999948501587,1.2660000324249268 1.746999979019165,0.7120000123977661 C1.7419999837875366,0.26600000262260437 1.5950000286102295,-0.257999986410141 1.309999942779541,-0.753000020980835 C1.0230000019073486,-1.25 0.6420000195503235,-1.6399999856948853 0.257999986410141,-1.8680000305175781 C-0.21899999678134918,-2.1500000953674316 -0.722000002861023,-2.2070000171661377 -1.1369999647140503,-1.9670000076293945z"></path>
                        </g>
                    </g>
                </g>
            </g>
        </svg>





    
