<svg xmlns="http://www.w3.org/2000/svg" viewBox="0 0 227 141" width="227" height="141" preserveAspectRatio="xMidYMid meet" style="width: 100%; height: 100%; transform: translate3d(0px, 0px, 0px);"><defs><clipPath id="__lottie_element_1530"><rect width="227" height="141" x="0" y="0"></rect></clipPath><clipPath id="__lottie_element_1532"><path d="M0,0 L375,0 L375,186 L0,186z"></path></clipPath></defs><g clip-path="url(#__lottie_element_1530)"><g clip-path="url(#__lottie_element_1532)" transform="matrix(1,0,0,1,-66,0)" opacity="1" style="display: block;"><g transform="matrix(0,0,0,0,145.25,140.75)" opacity="1" style="display: block;"><g opacity="1" transform="matrix(1,0,0,1,-18.25,55.25)"><path fill="rgb(255,255,255)" fill-opacity="1" d=" M0,-22.25 C12.27977466583252,-22.25 22.25,-12.27977466583252 22.25,0 C22.25,12.27977466583252 12.27977466583252,22.25 0,22.25 C-12.27977466583252,22.25 -22.25,12.27977466583252 -22.25,0 C-22.25,-12.27977466583252 -12.27977466583252,-22.25 0,-22.25z"></path><path stroke-linecap="butt" stroke-linejoin="miter" fill-opacity="0" stroke-miterlimit="4" stroke="rgb(0,0,0)" stroke-opacity="1" stroke-width="0" d=" M0,-22.25 C12.27977466583252,-22.25 22.25,-12.27977466583252 22.25,0 C22.25,12.27977466583252 12.27977466583252,22.25 0,22.25 C-12.27977466583252,22.25 -22.25,12.27977466583252 -22.25,0 C-22.25,-12.27977466583252 -12.27977466583252,-22.25 0,-22.25z"></path></g></g><g transform="matrix(0,0,0,0,157.25,116.25)" opacity="1" style="display: block;"><g opacity="1" transform="matrix(1,0,0,1,-18.25,55.25)"><path fill="rgb(255,255,255)" fill-opacity="1" d=" M0,-22.25 C12.27977466583252,-22.25 22.25,-12.27977466583252 22.25,0 C22.25,12.27977466583252 12.27977466583252,22.25 0,22.25 C-12.27977466583252,22.25 -22.25,12.27977466583252 -22.25,0 C-22.25,-12.27977466583252 -12.27977466583252,-22.25 0,-22.25z"></path><path stroke-linecap="butt" stroke-linejoin="miter" fill-opacity="0" stroke-miterlimit="4" stroke="rgb(0,0,0)" stroke-opacity="1" stroke-width="0" d=" M0,-22.25 C12.27977466583252,-22.25 22.25,-12.27977466583252 22.25,0 C22.25,12.27977466583252 12.27977466583252,22.25 0,22.25 C-12.27977466583252,22.25 -22.25,12.27977466583252 -22.25,0 C-22.25,-12.27977466583252 -12.27977466583252,-22.25 0,-22.25z"></path></g></g><g transform="matrix(0,0,0,0,174.25,141.25)" opacity="1" style="display: block;"><g opacity="1" transform="matrix(1,0,0,1,-18.25,55.25)"><path fill="rgb(255,255,255)" fill-opacity="1" d=" M0,-22.25 C12.27977466583252,-22.25 22.25,-12.27977466583252 22.25,0 C22.25,12.27977466583252 12.27977466583252,22.25 0,22.25 C-12.27977466583252,22.25 -22.25,12.27977466583252 -22.25,0 C-22.25,-12.27977466583252 -12.27977466583252,-22.25 0,-22.25z"></path><path stroke-linecap="butt" stroke-linejoin="miter" fill-opacity="0" stroke-miterlimit="4" stroke="rgb(0,0,0)" stroke-opacity="1" stroke-width="0" d=" M0,-22.25 C12.27977466583252,-22.25 22.25,-12.27977466583252 22.25,0 C22.25,12.27977466583252 12.27977466583252,22.25 0,22.25 C-12.27977466583252,22.25 -22.25,12.27977466583252 -22.25,0 C-22.25,-12.27977466583252 -12.27977466583252,-22.25 0,-22.25z"></path></g></g><g transform="matrix(0,0,0,0,192.75,102.25)" opacity="1" style="display: block;"><g opacity="1" transform="matrix(1,0,0,1,-18.25,55.25)"><path fill="rgb(255,255,255)" fill-opacity="1" d=" M0,-22.25 C12.27977466583252,-22.25 22.25,-12.27977466583252 22.25,0 C22.25,12.27977466583252 12.27977466583252,22.25 0,22.25 C-12.27977466583252,22.25 -22.25,12.27977466583252 -22.25,0 C-22.25,-12.27977466583252 -12.27977466583252,-22.25 0,-22.25z"></path><path stroke-linecap="butt" stroke-linejoin="miter" fill-opacity="0" stroke-miterlimit="4" stroke="rgb(0,0,0)" stroke-opacity="1" stroke-width="0" d=" M0,-22.25 C12.27977466583252,-22.25 22.25,-12.27977466583252 22.25,0 C22.25,12.27977466583252 12.27977466583252,22.25 0,22.25 C-12.27977466583252,22.25 -22.25,12.27977466583252 -22.25,0 C-22.25,-12.27977466583252 -12.27977466583252,-22.25 0,-22.25z"></path></g></g><g transform="matrix(0,0,0,0,209.25,130.25)" opacity="1" style="display: block;"><g opacity="1" transform="matrix(1,0,0,1,-1.75,83.25)"><path fill="rgb(255,255,255)" fill-opacity="1" d=" M0,-22.25 C12.27977466583252,-22.25 22.25,-12.27977466583252 22.25,0 C22.25,12.27977466583252 12.27977466583252,22.25 0,22.25 C-12.27977466583252,22.25 -22.25,12.27977466583252 -22.25,0 C-22.25,-12.27977466583252 -12.27977466583252,-22.25 0,-22.25z"></path><path stroke-linecap="butt" stroke-linejoin="miter" fill-opacity="0" stroke-miterlimit="4" stroke="rgb(0,0,0)" stroke-opacity="1" stroke-width="0" d=" M0,-22.25 C12.27977466583252,-22.25 22.25,-12.27977466583252 22.25,0 C22.25,12.27977466583252 12.27977466583252,22.25 0,22.25 C-12.27977466583252,22.25 -22.25,12.27977466583252 -22.25,0 C-22.25,-12.27977466583252 -12.27977466583252,-22.25 0,-22.25z"></path></g><g opacity="1" transform="matrix(1,0,0,1,-1.75,83.25)"><path fill="rgb(255,255,255)" fill-opacity="1" d=" M0,-22.25 C12.27977466583252,-22.25 22.25,-12.27977466583252 22.25,0 C22.25,12.27977466583252 12.27977466583252,22.25 0,22.25 C-12.27977466583252,22.25 -22.25,12.27977466583252 -22.25,0 C-22.25,-12.27977466583252 -12.27977466583252,-22.25 0,-22.25z"></path><path stroke-linecap="butt" stroke-linejoin="miter" fill-opacity="0" stroke-miterlimit="4" stroke="rgb(0,0,0)" stroke-opacity="1" stroke-width="0" d=" M0,-22.25 C12.27977466583252,-22.25 22.25,-12.27977466583252 22.25,0 C22.25,12.27977466583252 12.27977466583252,22.25 0,22.25 C-12.27977466583252,22.25 -22.25,12.27977466583252 -22.25,0 C-22.25,-12.27977466583252 -12.27977466583252,-22.25 0,-22.25z"></path></g></g><g transform="matrix(0,0,0,0,233.75,107.25)" opacity="1" style="display: block;"><g opacity="1" transform="matrix(1,0,0,1,-1.75,83.25)"><path fill="rgb(255,255,255)" fill-opacity="1" d=" M0,-22.25 C12.27977466583252,-22.25 22.25,-12.27977466583252 22.25,0 C22.25,12.27977466583252 12.27977466583252,22.25 0,22.25 C-12.27977466583252,22.25 -22.25,12.27977466583252 -22.25,0 C-22.25,-12.27977466583252 -12.27977466583252,-22.25 0,-22.25z"></path><path stroke-linecap="butt" stroke-linejoin="miter" fill-opacity="0" stroke-miterlimit="4" stroke="rgb(0,0,0)" stroke-opacity="1" stroke-width="0" d=" M0,-22.25 C12.27977466583252,-22.25 22.25,-12.27977466583252 22.25,0 C22.25,12.27977466583252 12.27977466583252,22.25 0,22.25 C-12.27977466583252,22.25 -22.25,12.27977466583252 -22.25,0 C-22.25,-12.27977466583252 -12.27977466583252,-22.25 0,-22.25z"></path></g><g opacity="1" transform="matrix(1,0,0,1,-1.75,83.25)"><path fill="rgb(255,255,255)" fill-opacity="1" d=" M0,-22.25 C12.27977466583252,-22.25 22.25,-12.27977466583252 22.25,0 C22.25,12.27977466583252 12.27977466583252,22.25 0,22.25 C-12.27977466583252,22.25 -22.25,12.27977466583252 -22.25,0 C-22.25,-12.27977466583252 -12.27977466583252,-22.25 0,-22.25z"></path><path stroke-linecap="butt" stroke-linejoin="miter" fill-opacity="0" stroke-miterlimit="4" stroke="rgb(0,0,0)" stroke-opacity="1" stroke-width="0" d=" M0,-22.25 C12.27977466583252,-22.25 22.25,-12.27977466583252 22.25,0 C22.25,12.27977466583252 12.27977466583252,22.25 0,22.25 C-12.27977466583252,22.25 -22.25,12.27977466583252 -22.25,0 C-22.25,-12.27977466583252 -12.27977466583252,-22.25 0,-22.25z"></path></g></g><g transform="matrix(0,0,0,0,253.75,135.75)" opacity="1" style="display: block;"><g opacity="1" transform="matrix(1,0,0,1,-1.75,83.25)"><path fill="rgb(255,255,255)" fill-opacity="1" d=" M0,-22.25 C12.27977466583252,-22.25 22.25,-12.27977466583252 22.25,0 C22.25,12.27977466583252 12.27977466583252,22.25 0,22.25 C-12.27977466583252,22.25 -22.25,12.27977466583252 -22.25,0 C-22.25,-12.27977466583252 -12.27977466583252,-22.25 0,-22.25z"></path><path stroke-linecap="butt" stroke-linejoin="miter" fill-opacity="0" stroke-miterlimit="4" stroke="rgb(0,0,0)" stroke-opacity="1" stroke-width="0" d=" M0,-22.25 C12.27977466583252,-22.25 22.25,-12.27977466583252 22.25,0 C22.25,12.27977466583252 12.27977466583252,22.25 0,22.25 C-12.27977466583252,22.25 -22.25,12.27977466583252 -22.25,0 C-22.25,-12.27977466583252 -12.27977466583252,-22.25 0,-22.25z"></path></g><g opacity="1" transform="matrix(1,0,0,1,-1.75,83.25)"><path fill="rgb(255,255,255)" fill-opacity="1" d=" M0,-22.25 C12.27977466583252,-22.25 22.25,-12.27977466583252 22.25,0 C22.25,12.27977466583252 12.27977466583252,22.25 0,22.25 C-12.27977466583252,22.25 -22.25,12.27977466583252 -22.25,0 C-22.25,-12.27977466583252 -12.27977466583252,-22.25 0,-22.25z"></path><path stroke-linecap="butt" stroke-linejoin="miter" fill-opacity="0" stroke-miterlimit="4" stroke="rgb(0,0,0)" stroke-opacity="1" stroke-width="0" d=" M0,-22.25 C12.27977466583252,-22.25 22.25,-12.27977466583252 22.25,0 C22.25,12.27977466583252 12.27977466583252,22.25 0,22.25 C-12.27977466583252,22.25 -22.25,12.27977466583252 -22.25,0 C-22.25,-12.27977466583252 -12.27977466583252,-22.25 0,-22.25z"></path></g></g><g transform="matrix(0,0,0,0,206.75,148.25)" opacity="1" style="display: block;"><g opacity="1" transform="matrix(1,0,0,1,-1.75,83.25)"><path fill="rgb(255,255,255)" fill-opacity="1" d=" M0,-22.25 C12.27977466583252,-22.25 22.25,-12.27977466583252 22.25,0 C22.25,12.27977466583252 12.27977466583252,22.25 0,22.25 C-12.27977466583252,22.25 -22.25,12.27977466583252 -22.25,0 C-22.25,-12.27977466583252 -12.27977466583252,-22.25 0,-22.25z"></path><path stroke-linecap="butt" stroke-linejoin="miter" fill-opacity="0" stroke-miterlimit="4" stroke="rgb(0,0,0)" stroke-opacity="1" stroke-width="0" d=" M0,-22.25 C12.27977466583252,-22.25 22.25,-12.27977466583252 22.25,0 C22.25,12.27977466583252 12.27977466583252,22.25 0,22.25 C-12.27977466583252,22.25 -22.25,12.27977466583252 -22.25,0 C-22.25,-12.27977466583252 -12.27977466583252,-22.25 0,-22.25z"></path></g><g opacity="1" transform="matrix(1,0,0,1,-1.75,83.25)"><path fill="rgb(255,255,255)" fill-opacity="1" d=" M0,-22.25 C12.27977466583252,-22.25 22.25,-12.27977466583252 22.25,0 C22.25,12.27977466583252 12.27977466583252,22.25 0,22.25 C-12.27977466583252,22.25 -22.25,12.27977466583252 -22.25,0 C-22.25,-12.27977466583252 -12.27977466583252,-22.25 0,-22.25z"></path><path stroke-linecap="butt" stroke-linejoin="miter" fill-opacity="0" stroke-miterlimit="4" stroke="rgb(0,0,0)" stroke-opacity="1" stroke-width="0" d=" M0,-22.25 C12.27977466583252,-22.25 22.25,-12.27977466583252 22.25,0 C22.25,12.27977466583252 12.27977466583252,22.25 0,22.25 C-12.27977466583252,22.25 -22.25,12.27977466583252 -22.25,0 C-22.25,-12.27977466583252 -12.27977466583252,-22.25 0,-22.25z"></path></g></g><g transform="matrix(0,0,0,0,233.75,146.25)" opacity="1" style="display: block;"><g opacity="1" transform="matrix(1,0,0,1,-1.75,83.25)"><path fill="rgb(255,255,255)" fill-opacity="1" d=" M0,-22.25 C12.27977466583252,-22.25 22.25,-12.27977466583252 22.25,0 C22.25,12.27977466583252 12.27977466583252,22.25 0,22.25 C-12.27977466583252,22.25 -22.25,12.27977466583252 -22.25,0 C-22.25,-12.27977466583252 -12.27977466583252,-22.25 0,-22.25z"></path><path stroke-linecap="butt" stroke-linejoin="miter" fill-opacity="0" stroke-miterlimit="4" stroke="rgb(0,0,0)" stroke-opacity="1" stroke-width="0" d=" M0,-22.25 C12.27977466583252,-22.25 22.25,-12.27977466583252 22.25,0 C22.25,12.27977466583252 12.27977466583252,22.25 0,22.25 C-12.27977466583252,22.25 -22.25,12.27977466583252 -22.25,0 C-22.25,-12.27977466583252 -12.27977466583252,-22.25 0,-22.25z"></path></g><g opacity="1" transform="matrix(1,0,0,1,-1.75,83.25)"><path fill="rgb(255,255,255)" fill-opacity="1" d=" M0,-22.25 C12.27977466583252,-22.25 22.25,-12.27977466583252 22.25,0 C22.25,12.27977466583252 12.27977466583252,22.25 0,22.25 C-12.27977466583252,22.25 -22.25,12.27977466583252 -22.25,0 C-22.25,-12.27977466583252 -12.27977466583252,-22.25 0,-22.25z"></path><path stroke-linecap="butt" stroke-linejoin="miter" fill-opacity="0" stroke-miterlimit="4" stroke="rgb(0,0,0)" stroke-opacity="1" stroke-width="0" d=" M0,-22.25 C12.27977466583252,-22.25 22.25,-12.27977466583252 22.25,0 C22.25,12.27977466583252 12.27977466583252,22.25 0,22.25 C-12.27977466583252,22.25 -22.25,12.27977466583252 -22.25,0 C-22.25,-12.27977466583252 -12.27977466583252,-22.25 0,-22.25z"></path></g></g><g transform="matrix(0,0,0,0,164.25,82.75)" opacity="1" style="display: block;"><g opacity="1" transform="matrix(1,0,0,1,-1.75,83.25)"><path fill="rgb(255,255,255)" fill-opacity="1" d=" M0,-22.25 C12.27977466583252,-22.25 22.25,-12.27977466583252 22.25,0 C22.25,12.27977466583252 12.27977466583252,22.25 0,22.25 C-12.27977466583252,22.25 -22.25,12.27977466583252 -22.25,0 C-22.25,-12.27977466583252 -12.27977466583252,-22.25 0,-22.25z"></path><path stroke-linecap="butt" stroke-linejoin="miter" fill-opacity="0" stroke-miterlimit="4" stroke="rgb(0,0,0)" stroke-opacity="1" stroke-width="0" d=" M0,-22.25 C12.27977466583252,-22.25 22.25,-12.27977466583252 22.25,0 C22.25,12.27977466583252 12.27977466583252,22.25 0,22.25 C-12.27977466583252,22.25 -22.25,12.27977466583252 -22.25,0 C-22.25,-12.27977466583252 -12.27977466583252,-22.25 0,-22.25z"></path></g><g opacity="1" transform="matrix(1,0,0,1,-1.75,83.25)"><path fill="rgb(255,255,255)" fill-opacity="1" d=" M0,-22.25 C12.27977466583252,-22.25 22.25,-12.27977466583252 22.25,0 C22.25,12.27977466583252 12.27977466583252,22.25 0,22.25 C-12.27977466583252,22.25 -22.25,12.27977466583252 -22.25,0 C-22.25,-12.27977466583252 -12.27977466583252,-22.25 0,-22.25z"></path><path stroke-linecap="butt" stroke-linejoin="miter" fill-opacity="0" stroke-miterlimit="4" stroke="rgb(0,0,0)" stroke-opacity="1" stroke-width="0" d=" M0,-22.25 C12.27977466583252,-22.25 22.25,-12.27977466583252 22.25,0 C22.25,12.27977466583252 12.27977466583252,22.25 0,22.25 C-12.27977466583252,22.25 -22.25,12.27977466583252 -22.25,0 C-22.25,-12.27977466583252 -12.27977466583252,-22.25 0,-22.25z"></path></g></g><g transform="matrix(0,0,0,0,128.75,114.75)" opacity="1" style="display: block;"><g opacity="1" transform="matrix(1,0,0,1,-1.75,83.25)"><path fill="rgb(255,255,255)" fill-opacity="1" d=" M0,-22.25 C12.27977466583252,-22.25 22.25,-12.27977466583252 22.25,0 C22.25,12.27977466583252 12.27977466583252,22.25 0,22.25 C-12.27977466583252,22.25 -22.25,12.27977466583252 -22.25,0 C-22.25,-12.27977466583252 -12.27977466583252,-22.25 0,-22.25z"></path><path stroke-linecap="butt" stroke-linejoin="miter" fill-opacity="0" stroke-miterlimit="4" stroke="rgb(0,0,0)" stroke-opacity="1" stroke-width="0" d=" M0,-22.25 C12.27977466583252,-22.25 22.25,-12.27977466583252 22.25,0 C22.25,12.27977466583252 12.27977466583252,22.25 0,22.25 C-12.27977466583252,22.25 -22.25,12.27977466583252 -22.25,0 C-22.25,-12.27977466583252 -12.27977466583252,-22.25 0,-22.25z"></path></g><g opacity="1" transform="matrix(1,0,0,1,-1.75,83.25)"><path fill="rgb(255,255,255)" fill-opacity="1" d=" M0,-22.25 C12.27977466583252,-22.25 22.25,-12.27977466583252 22.25,0 C22.25,12.27977466583252 12.27977466583252,22.25 0,22.25 C-12.27977466583252,22.25 -22.25,12.27977466583252 -22.25,0 C-22.25,-12.27977466583252 -12.27977466583252,-22.25 0,-22.25z"></path><path stroke-linecap="butt" stroke-linejoin="miter" fill-opacity="0" stroke-miterlimit="4" stroke="rgb(0,0,0)" stroke-opacity="1" stroke-width="0" d=" M0,-22.25 C12.27977466583252,-22.25 22.25,-12.27977466583252 22.25,0 C22.25,12.27977466583252 12.27977466583252,22.25 0,22.25 C-12.27977466583252,22.25 -22.25,12.27977466583252 -22.25,0 C-22.25,-12.27977466583252 -12.27977466583252,-22.25 0,-22.25z"></path></g></g><g transform="matrix(0,0,0,0,141.25,103.5)" opacity="1" style="display: block;"><g opacity="1" transform="matrix(1,0,0,1,-1.75,83.25)"><path fill="rgb(255,255,255)" fill-opacity="1" d=" M0,-22.25 C12.27977466583252,-22.25 22.25,-12.27977466583252 22.25,0 C22.25,12.27977466583252 12.27977466583252,22.25 0,22.25 C-12.27977466583252,22.25 -22.25,12.27977466583252 -22.25,0 C-22.25,-12.27977466583252 -12.27977466583252,-22.25 0,-22.25z"></path><path stroke-linecap="butt" stroke-linejoin="miter" fill-opacity="0" stroke-miterlimit="4" stroke="rgb(0,0,0)" stroke-opacity="1" stroke-width="0" d=" M0,-22.25 C12.27977466583252,-22.25 22.25,-12.27977466583252 22.25,0 C22.25,12.27977466583252 12.27977466583252,22.25 0,22.25 C-12.27977466583252,22.25 -22.25,12.27977466583252 -22.25,0 C-22.25,-12.27977466583252 -12.27977466583252,-22.25 0,-22.25z"></path></g><g opacity="1" transform="matrix(1,0,0,1,-1.75,83.25)"><path fill="rgb(255,255,255)" fill-opacity="1" d=" M0,-22.25 C12.27977466583252,-22.25 22.25,-12.27977466583252 22.25,0 C22.25,12.27977466583252 12.27977466583252,22.25 0,22.25 C-12.27977466583252,22.25 -22.25,12.27977466583252 -22.25,0 C-22.25,-12.27977466583252 -12.27977466583252,-22.25 0,-22.25z"></path><path stroke-linecap="butt" stroke-linejoin="miter" fill-opacity="0" stroke-miterlimit="4" stroke="rgb(0,0,0)" stroke-opacity="1" stroke-width="0" d=" M0,-22.25 C12.27977466583252,-22.25 22.25,-12.27977466583252 22.25,0 C22.25,12.27977466583252 12.27977466583252,22.25 0,22.25 C-12.27977466583252,22.25 -22.25,12.27977466583252 -22.25,0 C-22.25,-12.27977466583252 -12.27977466583252,-22.25 0,-22.25z"></path></g></g><g transform="matrix(0,0,0,0,127.75,82.25)" opacity="1" style="display: block;"><g opacity="1" transform="matrix(1,0,0,1,-1.75,83.25)"><path fill="rgb(255,255,255)" fill-opacity="1" d=" M0,-22.25 C12.27977466583252,-22.25 22.25,-12.27977466583252 22.25,0 C22.25,12.27977466583252 12.27977466583252,22.25 0,22.25 C-12.27977466583252,22.25 -22.25,12.27977466583252 -22.25,0 C-22.25,-12.27977466583252 -12.27977466583252,-22.25 0,-22.25z"></path><path stroke-linecap="butt" stroke-linejoin="miter" fill-opacity="0" stroke-miterlimit="4" stroke="rgb(0,0,0)" stroke-opacity="1" stroke-width="0" d=" M0,-22.25 C12.27977466583252,-22.25 22.25,-12.27977466583252 22.25,0 C22.25,12.27977466583252 12.27977466583252,22.25 0,22.25 C-12.27977466583252,22.25 -22.25,12.27977466583252 -22.25,0 C-22.25,-12.27977466583252 -12.27977466583252,-22.25 0,-22.25z"></path></g><g opacity="1" transform="matrix(1,0,0,1,-1.75,83.25)"><path fill="rgb(255,255,255)" fill-opacity="1" d=" M0,-22.25 C12.27977466583252,-22.25 22.25,-12.27977466583252 22.25,0 C22.25,12.27977466583252 12.27977466583252,22.25 0,22.25 C-12.27977466583252,22.25 -22.25,12.27977466583252 -22.25,0 C-22.25,-12.27977466583252 -12.27977466583252,-22.25 0,-22.25z"></path><path stroke-linecap="butt" stroke-linejoin="miter" fill-opacity="0" stroke-miterlimit="4" stroke="rgb(0,0,0)" stroke-opacity="1" stroke-width="0" d=" M0,-22.25 C12.27977466583252,-22.25 22.25,-12.27977466583252 22.25,0 C22.25,12.27977466583252 12.27977466583252,22.25 0,22.25 C-12.27977466583252,22.25 -22.25,12.27977466583252 -22.25,0 C-22.25,-12.27977466583252 -12.27977466583252,-22.25 0,-22.25z"></path></g></g><g transform="matrix(0,0,0,0,206.25,58.25)" opacity="1" style="display: block;"><g opacity="1" transform="matrix(1,0,0,1,-1.75,83.25)"><path fill="rgb(255,255,255)" fill-opacity="1" d=" M0,-22.25 C12.27977466583252,-22.25 22.25,-12.27977466583252 22.25,0 C22.25,12.27977466583252 12.27977466583252,22.25 0,22.25 C-12.27977466583252,22.25 -22.25,12.27977466583252 -22.25,0 C-22.25,-12.27977466583252 -12.27977466583252,-22.25 0,-22.25z"></path><path stroke-linecap="butt" stroke-linejoin="miter" fill-opacity="0" stroke-miterlimit="4" stroke="rgb(0,0,0)" stroke-opacity="1" stroke-width="0" d=" M0,-22.25 C12.27977466583252,-22.25 22.25,-12.27977466583252 22.25,0 C22.25,12.27977466583252 12.27977466583252,22.25 0,22.25 C-12.27977466583252,22.25 -22.25,12.27977466583252 -22.25,0 C-22.25,-12.27977466583252 -12.27977466583252,-22.25 0,-22.25z"></path></g><g opacity="1" transform="matrix(1,0,0,1,-1.75,83.25)"><path fill="rgb(255,255,255)" fill-opacity="1" d=" M0,-22.25 C12.27977466583252,-22.25 22.25,-12.27977466583252 22.25,0 C22.25,12.27977466583252 12.27977466583252,22.25 0,22.25 C-12.27977466583252,22.25 -22.25,12.27977466583252 -22.25,0 C-22.25,-12.27977466583252 -12.27977466583252,-22.25 0,-22.25z"></path><path stroke-linecap="butt" stroke-linejoin="miter" fill-opacity="0" stroke-miterlimit="4" stroke="rgb(0,0,0)" stroke-opacity="1" stroke-width="0" d=" M0,-22.25 C12.27977466583252,-22.25 22.25,-12.27977466583252 22.25,0 C22.25,12.27977466583252 12.27977466583252,22.25 0,22.25 C-12.27977466583252,22.25 -22.25,12.27977466583252 -22.25,0 C-22.25,-12.27977466583252 -12.27977466583252,-22.25 0,-22.25z"></path></g></g><g transform="matrix(0,0,0,0,163.75,52.25)" opacity="1" style="display: block;"><g opacity="1" transform="matrix(1,0,0,1,-1.75,83.25)"><path fill="rgb(255,255,255)" fill-opacity="1" d=" M0,-22.25 C12.27977466583252,-22.25 22.25,-12.27977466583252 22.25,0 C22.25,12.27977466583252 12.27977466583252,22.25 0,22.25 C-12.27977466583252,22.25 -22.25,12.27977466583252 -22.25,0 C-22.25,-12.27977466583252 -12.27977466583252,-22.25 0,-22.25z"></path><path stroke-linecap="butt" stroke-linejoin="miter" fill-opacity="0" stroke-miterlimit="4" stroke="rgb(0,0,0)" stroke-opacity="1" stroke-width="0" d=" M0,-22.25 C12.27977466583252,-22.25 22.25,-12.27977466583252 22.25,0 C22.25,12.27977466583252 12.27977466583252,22.25 0,22.25 C-12.27977466583252,22.25 -22.25,12.27977466583252 -22.25,0 C-22.25,-12.27977466583252 -12.27977466583252,-22.25 0,-22.25z"></path></g><g opacity="1" transform="matrix(1,0,0,1,-1.75,83.25)"><path fill="rgb(255,255,255)" fill-opacity="1" d=" M0,-22.25 C12.27977466583252,-22.25 22.25,-12.27977466583252 22.25,0 C22.25,12.27977466583252 12.27977466583252,22.25 0,22.25 C-12.27977466583252,22.25 -22.25,12.27977466583252 -22.25,0 C-22.25,-12.27977466583252 -12.27977466583252,-22.25 0,-22.25z"></path><path stroke-linecap="butt" stroke-linejoin="miter" fill-opacity="0" stroke-miterlimit="4" stroke="rgb(0,0,0)" stroke-opacity="1" stroke-width="0" d=" M0,-22.25 C12.27977466583252,-22.25 22.25,-12.27977466583252 22.25,0 C22.25,12.27977466583252 12.27977466583252,22.25 0,22.25 C-12.27977466583252,22.25 -22.25,12.27977466583252 -22.25,0 C-22.25,-12.27977466583252 -12.27977466583252,-22.25 0,-22.25z"></path></g></g><g transform="matrix(0,0,0,0,209.25,85.25)" opacity="1" style="display: block;"><g opacity="1" transform="matrix(1,0,0,1,-1.75,83.25)"><path fill="rgb(255,255,255)" fill-opacity="1" d=" M0,-22.25 C12.27977466583252,-22.25 22.25,-12.27977466583252 22.25,0 C22.25,12.27977466583252 12.27977466583252,22.25 0,22.25 C-12.27977466583252,22.25 -22.25,12.27977466583252 -22.25,0 C-22.25,-12.27977466583252 -12.27977466583252,-22.25 0,-22.25z"></path><path stroke-linecap="butt" stroke-linejoin="miter" fill-opacity="0" stroke-miterlimit="4" stroke="rgb(0,0,0)" stroke-opacity="1" stroke-width="0" d=" M0,-22.25 C12.27977466583252,-22.25 22.25,-12.27977466583252 22.25,0 C22.25,12.27977466583252 12.27977466583252,22.25 0,22.25 C-12.27977466583252,22.25 -22.25,12.27977466583252 -22.25,0 C-22.25,-12.27977466583252 -12.27977466583252,-22.25 0,-22.25z"></path></g><g opacity="1" transform="matrix(1,0,0,1,-1.75,83.25)"><path fill="rgb(255,255,255)" fill-opacity="1" d=" M0,-22.25 C12.27977466583252,-22.25 22.25,-12.27977466583252 22.25,0 C22.25,12.27977466583252 12.27977466583252,22.25 0,22.25 C-12.27977466583252,22.25 -22.25,12.27977466583252 -22.25,0 C-22.25,-12.27977466583252 -12.27977466583252,-22.25 0,-22.25z"></path><path stroke-linecap="butt" stroke-linejoin="miter" fill-opacity="0" stroke-miterlimit="4" stroke="rgb(0,0,0)" stroke-opacity="1" stroke-width="0" d=" M0,-22.25 C12.27977466583252,-22.25 22.25,-12.27977466583252 22.25,0 C22.25,12.27977466583252 12.27977466583252,22.25 0,22.25 C-12.27977466583252,22.25 -22.25,12.27977466583252 -22.25,0 C-22.25,-12.27977466583252 -12.27977466583252,-22.25 0,-22.25z"></path></g></g><g transform="matrix(0,0,0,0,194.25,80.75)" opacity="1" style="display: block;"><g opacity="1" transform="matrix(1,0,0,1,-1.75,83.25)"><path fill="rgb(255,255,255)" fill-opacity="1" d=" M0,-22.25 C12.27977466583252,-22.25 22.25,-12.27977466583252 22.25,0 C22.25,12.27977466583252 12.27977466583252,22.25 0,22.25 C-12.27977466583252,22.25 -22.25,12.27977466583252 -22.25,0 C-22.25,-12.27977466583252 -12.27977466583252,-22.25 0,-22.25z"></path><path stroke-linecap="butt" stroke-linejoin="miter" fill-opacity="0" stroke-miterlimit="4" stroke="rgb(0,0,0)" stroke-opacity="1" stroke-width="0" d=" M0,-22.25 C12.27977466583252,-22.25 22.25,-12.27977466583252 22.25,0 C22.25,12.27977466583252 12.27977466583252,22.25 0,22.25 C-12.27977466583252,22.25 -22.25,12.27977466583252 -22.25,0 C-22.25,-12.27977466583252 -12.27977466583252,-22.25 0,-22.25z"></path></g><g opacity="1" transform="matrix(1,0,0,1,-1.75,83.25)"><path fill="rgb(255,255,255)" fill-opacity="1" d=" M0,-22.25 C12.27977466583252,-22.25 22.25,-12.27977466583252 22.25,0 C22.25,12.27977466583252 12.27977466583252,22.25 0,22.25 C-12.27977466583252,22.25 -22.25,12.27977466583252 -22.25,0 C-22.25,-12.27977466583252 -12.27977466583252,-22.25 0,-22.25z"></path><path stroke-linecap="butt" stroke-linejoin="miter" fill-opacity="0" stroke-miterlimit="4" stroke="rgb(0,0,0)" stroke-opacity="1" stroke-width="0" d=" M0,-22.25 C12.27977466583252,-22.25 22.25,-12.27977466583252 22.25,0 C22.25,12.27977466583252 12.27977466583252,22.25 0,22.25 C-12.27977466583252,22.25 -22.25,12.27977466583252 -22.25,0 C-22.25,-12.27977466583252 -12.27977466583252,-22.25 0,-22.25z"></path></g></g><g transform="matrix(0,0,0,0,115.75,145.75)" opacity="1" style="display: block;"><g opacity="1" transform="matrix(1,0,0,1,-1.75,83.25)"><path fill="rgb(255,255,255)" fill-opacity="1" d=" M0,-22.25 C12.27977466583252,-22.25 22.25,-12.27977466583252 22.25,0 C22.25,12.27977466583252 12.27977466583252,22.25 0,22.25 C-12.27977466583252,22.25 -22.25,12.27977466583252 -22.25,0 C-22.25,-12.27977466583252 -12.27977466583252,-22.25 0,-22.25z"></path><path stroke-linecap="butt" stroke-linejoin="miter" fill-opacity="0" stroke-miterlimit="4" stroke="rgb(0,0,0)" stroke-opacity="1" stroke-width="0" d=" M0,-22.25 C12.27977466583252,-22.25 22.25,-12.27977466583252 22.25,0 C22.25,12.27977466583252 12.27977466583252,22.25 0,22.25 C-12.27977466583252,22.25 -22.25,12.27977466583252 -22.25,0 C-22.25,-12.27977466583252 -12.27977466583252,-22.25 0,-22.25z"></path></g><g opacity="1" transform="matrix(1,0,0,1,-1.75,83.25)"><path fill="rgb(255,255,255)" fill-opacity="1" d=" M0,-22.25 C12.27977466583252,-22.25 22.25,-12.27977466583252 22.25,0 C22.25,12.27977466583252 12.27977466583252,22.25 0,22.25 C-12.27977466583252,22.25 -22.25,12.27977466583252 -22.25,0 C-22.25,-12.27977466583252 -12.27977466583252,-22.25 0,-22.25z"></path><path stroke-linecap="butt" stroke-linejoin="miter" fill-opacity="0" stroke-miterlimit="4" stroke="rgb(0,0,0)" stroke-opacity="1" stroke-width="0" d=" M0,-22.25 C12.27977466583252,-22.25 22.25,-12.27977466583252 22.25,0 C22.25,12.27977466583252 12.27977466583252,22.25 0,22.25 C-12.27977466583252,22.25 -22.25,12.27977466583252 -22.25,0 C-22.25,-12.27977466583252 -12.27977466583252,-22.25 0,-22.25z"></path></g></g></g></g></svg>