<svg xmlns:xlink="http://www.w3.org/1999/xlink" class="weather-game__cloud-gfx ng-tns-c5-5 ng-star-inserted" height="142px" version="1.1" viewBox="0 0 340 142" width="340px" xmlns="http://www.w3.org/2000/svg" style="">
                    <defs class="ng-tns-c5-5">
                      <polygon class="ng-tns-c5-5" id="path-1" points="0.000623853211 0 339.509235 0 339.509235 107.792627 0.000623853211 107.792627"></polygon>
                    </defs>
                    <g class="ng-tns-c5-5" fill="none" fill-rule="evenodd" id="Homepage" stroke="none" stroke-width="1">
                      <g class="ng-tns-c5-5" id="desktop---dog---rainy" transform="translate(-550.000000, -246.000000)">
                        <g class="ng-tns-c5-5" id="dog-rain" transform="translate(550.000000, 246.000000)">
                          <g class="ng-tns-c5-5" id="Group-6">
                            <path class="ng-tns-c5-5" d="M69.8355841,37.7765793 C41.9254312,46.7990943 26.6098349,76.7548428 35.627633,104.682814 C43.1523425,127.989244 65.2481835,142.515576 88.5750948,141.440823 C85.7802324,138.254019 83.5738716,134.45649 82.1889174,130.16476 C77.0473272,114.243226 85.0201713,97.2313323 100.126777,90.819229 L82.2128318,35.3419985 C78.0922813,35.6520434 73.9426177,36.4479641 69.8355841,37.7765793" fill="#FFFFFF" id="Fill-1"></path>
                            <g class="ng-tns-c5-5" id="Group-5">
                              <mask class="ng-tns-c5-5" fill="white" id="mask-2">
                                <use class="ng-tns-c5-5" xlink:href="#path-1"></use>
                              </mask>
                              <g class="ng-tns-c5-5" id="Clip-4"></g>
                              <path class="ng-tns-c5-5" d="M37.7219083,0 L301.786495,0 C322.534813,0 339.509859,16.9890045 339.509859,37.748488 L339.509859,70.0441392 C339.509859,90.8046632 322.532734,107.792627 301.786495,107.792627 L37.7219083,107.792627 C16.9777492,107.792627 0.000623853211,90.8057036 0.000623853211,70.0441392 L0.000623853211,37.748488 C0.000623853211,16.9869237 16.97463,0 37.7219083,0" fill="#FFFFFF" id="Fill-3" mask="url(#mask-2)"></path>
                            </g>
                          </g>
                          <path class="ng-tns-c5-5" d="M44.36,43.16 L38.7,43.16 L37.7,46 L34.72,46 L39.92,32.04 L43.14,32.04 L48.32,46 L45.34,46 L44.36,43.16 Z M43.6,41.02 L41.52,35.06 L39.44,41.02 L43.6,41.02 Z M52.66,37.04 C53.0733354,36.3333298 53.6199966,35.7766687 54.3,35.37 C54.9800034,34.9633313 55.7399958,34.76 56.58,34.76 L56.58,37.78 L55.76,37.78 C53.693323,37.78 52.66,38.7399904 52.66,40.66 L52.66,46 L49.84,46 L49.84,34.92 L52.66,34.92 L52.66,37.04 Z M63.62,33 C62.7933292,32.9466664 62.213335,33.0666652 61.88,33.36 C61.546665,33.6533348 61.38,34.166663 61.38,34.9 L61.38,34.92 L63.62,34.92 L63.62,37.3 L61.38,37.3 L61.38,46 L58.56,46 L58.56,37.3 L57.14,37.3 L57.14,34.92 L58.56,34.92 L58.56,34.66 C58.56,33.3399934 58.9366629,32.3233369 59.69,31.61 C60.4433371,30.8966631 61.5599926,30.54 63.04,30.54 C63.2933346,30.54 63.486666,30.5466666 63.62,30.56 L63.62,33 Z M69.2,31.3 L68.84,41.3 L66.46,41.3 L66.1,31.3 L69.2,31.3 Z M69.18,43.06 L69.18,46 L66.14,46 L66.14,43.06 L69.18,43.06 Z M79.5,31.88 L79.5,46 L76.68,46 L76.68,31.88 L79.5,31.88 Z M90.76,34.78 C91.693338,34.78 92.4899967,34.9999978 93.15,35.44 C93.8100033,35.8800022 94.2866652,36.4733296 94.58,37.22 L94.58,31.2 L97.38,31.2 L97.38,46 L94.58,46 L94.58,43.68 C94.2866652,44.4266704 93.8100033,45.0233311 93.15,45.47 C92.4899967,45.9166689 91.693338,46.14 90.76,46.14 C89.826662,46.14 88.9866704,45.9133356 88.24,45.46 C87.4933296,45.0066644 86.9100021,44.3500043 86.49,43.49 C86.0699979,42.6299957 85.86,41.6200058 85.86,40.46 C85.86,39.2999942 86.0699979,38.2900043 86.49,37.43 C86.9100021,36.5699957 87.4933296,35.9133356 88.24,35.46 C88.9866704,35.0066644 89.826662,34.78 90.76,34.78 Z M91.64,37.24 C90.7599956,37.24 90.053336,37.5266638 89.52,38.1 C88.986664,38.6733362 88.72,39.459995 88.72,40.46 C88.72,41.460005 88.986664,42.2433305 89.52,42.81 C90.053336,43.3766695 90.7599956,43.66 91.64,43.66 C92.4933376,43.66 93.1966639,43.3700029 93.75,42.79 C94.3033361,42.2099971 94.58,41.4333382 94.58,40.46 C94.58,39.4733284 94.3033361,38.6900029 93.75,38.11 C93.1966639,37.5299971 92.4933376,37.24 91.64,37.24 Z M105.06,34.78 C106.140005,34.78 107.109996,35.0066644 107.97,35.46 C108.830004,35.9133356 109.506664,36.5699957 110,37.43 C110.493336,38.2900043 110.74,39.2999942 110.74,40.46 C110.74,41.6200058 110.493336,42.6266624 110,43.48 C109.506664,44.3333376 108.830004,44.9899977 107.97,45.45 C107.109996,45.9100023 106.140005,46.14 105.06,46.14 C103.979995,46.14 103.010004,45.9100023 102.15,45.45 C101.289996,44.9899977 100.613336,44.3333376 100.12,43.48 C99.6266642,42.6266624 99.38,41.6200058 99.38,40.46 C99.38,39.2999942 99.6266642,38.2900043 100.12,37.43 C100.613336,36.5699957 101.289996,35.9133356 102.15,35.46 C103.010004,35.0066644 103.979995,34.78 105.06,34.78 Z M105.06,37.22 C104.273329,37.22 103.606669,37.4966639 103.06,38.05 C102.513331,38.6033361 102.24,39.4066614 102.24,40.46 C102.24,41.5133386 102.513331,42.3166639 103.06,42.87 C103.606669,43.4233361 104.273329,43.7 105.06,43.7 C105.846671,43.7 106.513331,43.4233361 107.06,42.87 C107.606669,42.3166639 107.88,41.5133386 107.88,40.46 C107.88,39.4066614 107.606669,38.6033361 107.06,38.05 C106.513331,37.4966639 105.846671,37.22 105.06,37.22 Z M119.34,34.76 C120.620006,34.76 121.639996,35.1799958 122.4,36.02 C123.160004,36.8600042 123.54,38.0399924 123.54,39.56 L123.54,46 L120.74,46 L120.74,39.88 C120.74,38.9999956 120.513336,38.3166691 120.06,37.83 C119.606664,37.3433309 118.986671,37.1 118.2,37.1 C117.399996,37.1 116.760002,37.3599974 116.28,37.88 C115.799998,38.4000026 115.56,39.1466618 115.56,40.12 L115.56,46 L112.74,46 L112.74,34.92 L115.56,34.92 L115.56,37.14 C115.853335,36.3933296 116.336663,35.8100021 117.01,35.39 C117.683337,34.9699979 118.459996,34.76 119.34,34.76 Z M128.02,30.02 L127.76,34.28 L125.86,34.28 L125.6,30.02 L128.02,30.02 Z M136.08,43.58 L136.08,46 L134.6,46 C133.359994,46 132.410003,45.700003 131.75,45.1 C131.089997,44.499997 130.76,43.500007 130.76,42.1 L130.76,37.3 L129.22,37.3 L129.22,34.92 L130.76,34.92 L130.76,32.18 L133.58,32.18 L133.58,34.92 L136.06,34.92 L136.06,37.3 L133.58,37.3 L133.58,42.14 C133.58,42.673336 133.686666,43.0466656 133.9,43.26 C134.113334,43.4733344 134.473331,43.58 134.98,43.58 L136.08,43.58 Z M158.32,34.92 L155.34,46 L152.22,46 L149.84,37.94 L147.4,46 L144.28,46 L141.32,34.92 L144.14,34.92 L145.94,43.48 L148.4,34.92 L151.38,34.92 L153.86,43.48 L155.68,34.92 L158.32,34.92 Z M164.06,34.78 C164.993338,34.78 165.79333,34.9999978 166.46,35.44 C167.12667,35.8800022 167.599999,36.4733296 167.88,37.22 L167.88,34.92 L170.68,34.92 L170.68,46 L167.88,46 L167.88,43.68 C167.599999,44.4266704 167.12667,45.0233311 166.46,45.47 C165.79333,45.9166689 164.993338,46.14 164.06,46.14 C163.126662,46.14 162.28667,45.9133356 161.54,45.46 C160.79333,45.0066644 160.210002,44.3500043 159.79,43.49 C159.369998,42.6299957 159.16,41.6200058 159.16,40.46 C159.16,39.2999942 159.369998,38.2900043 159.79,37.43 C160.210002,36.5699957 160.79333,35.9133356 161.54,35.46 C162.28667,35.0066644 163.126662,34.78 164.06,34.78 Z M164.94,37.24 C164.059996,37.24 163.353336,37.5266638 162.82,38.1 C162.286664,38.6733362 162.02,39.459995 162.02,40.46 C162.02,41.460005 162.286664,42.2433305 162.82,42.81 C163.353336,43.3766695 164.059996,43.66 164.94,43.66 C165.793338,43.66 166.496664,43.3700029 167.05,42.79 C167.603336,42.2099971 167.88,41.4333382 167.88,40.46 C167.88,39.4733284 167.603336,38.6900029 167.05,38.11 C166.496664,37.5299971 165.793338,37.24 164.94,37.24 Z M179.84,34.76 C181.120006,34.76 182.139996,35.1799958 182.9,36.02 C183.660004,36.8600042 184.04,38.0399924 184.04,39.56 L184.04,46 L181.24,46 L181.24,39.88 C181.24,38.9999956 181.013336,38.3166691 180.56,37.83 C180.106664,37.3433309 179.486671,37.1 178.7,37.1 C177.899996,37.1 177.260002,37.3599974 176.78,37.88 C176.299998,38.4000026 176.06,39.1466618 176.06,40.12 L176.06,46 L173.24,46 L173.24,34.92 L176.06,34.92 L176.06,37.14 C176.353335,36.3933296 176.836663,35.8100021 177.51,35.39 C178.183337,34.9699979 178.959996,34.76 179.84,34.76 Z M192.44,43.58 L192.44,46 L190.96,46 C189.719994,46 188.770003,45.700003 188.11,45.1 C187.449997,44.499997 187.12,43.500007 187.12,42.1 L187.12,37.3 L185.58,37.3 L185.58,34.92 L187.12,34.92 L187.12,32.18 L189.94,32.18 L189.94,34.92 L192.42,34.92 L192.42,37.3 L189.94,37.3 L189.94,42.14 C189.94,42.673336 190.046666,43.0466656 190.26,43.26 C190.473334,43.4733344 190.833331,43.58 191.34,43.58 L192.44,43.58 Z M204.74,43.58 L204.74,46 L203.26,46 C202.019994,46 201.070003,45.700003 200.41,45.1 C199.749997,44.499997 199.42,43.500007 199.42,42.1 L199.42,37.3 L197.88,37.3 L197.88,34.92 L199.42,34.92 L199.42,32.18 L202.24,32.18 L202.24,34.92 L204.72,34.92 L204.72,37.3 L202.24,37.3 L202.24,42.14 C202.24,42.673336 202.346666,43.0466656 202.56,43.26 C202.773334,43.4733344 203.133331,43.58 203.64,43.58 L204.74,43.58 Z M211.88,34.78 C212.960005,34.78 213.929996,35.0066644 214.79,35.46 C215.650004,35.9133356 216.326664,36.5699957 216.82,37.43 C217.313336,38.2900043 217.56,39.2999942 217.56,40.46 C217.56,41.6200058 217.313336,42.6266624 216.82,43.48 C216.326664,44.3333376 215.650004,44.9899977 214.79,45.45 C213.929996,45.9100023 212.960005,46.14 211.88,46.14 C210.799995,46.14 209.830004,45.9100023 208.97,45.45 C208.109996,44.9899977 207.433336,44.3333376 206.94,43.48 C206.446664,42.6266624 206.2,41.6200058 206.2,40.46 C206.2,39.2999942 206.446664,38.2900043 206.94,37.43 C207.433336,36.5699957 208.109996,35.9133356 208.97,35.46 C209.830004,35.0066644 210.799995,34.78 211.88,34.78 Z M211.88,37.22 C211.093329,37.22 210.426669,37.4966639 209.88,38.05 C209.333331,38.6033361 209.06,39.4066614 209.06,40.46 C209.06,41.5133386 209.333331,42.3166639 209.88,42.87 C210.426669,43.4233361 211.093329,43.7 211.88,43.7 C212.666671,43.7 213.333331,43.4233361 213.88,42.87 C214.426669,42.3166639 214.7,41.5133386 214.7,40.46 C214.7,39.4066614 214.426669,38.6033361 213.88,38.05 C213.333331,37.4966639 212.666671,37.22 211.88,37.22 Z M228.26,34.78 C229.193338,34.78 229.99333,34.9999978 230.66,35.44 C231.32667,35.8800022 231.799999,36.4733296 232.08,37.22 L232.08,34.92 L234.88,34.92 L234.88,46.04 C234.88,47.0666718 234.676669,47.9899959 234.27,48.81 C233.863331,49.6300041 233.256671,50.273331 232.45,50.74 C231.643329,51.206669 230.666672,51.44 229.52,51.44 C227.919992,51.44 226.626672,51.0600038 225.64,50.3 C224.653328,49.5399962 224.053334,48.5066732 223.84,47.2 L226.62,47.2 C226.780001,47.7600028 227.089998,48.1966651 227.55,48.51 C228.010002,48.8233349 228.599996,48.98 229.32,48.98 C230.146671,48.98 230.813331,48.7366691 231.32,48.25 C231.826669,47.7633309 232.08,47.0266716 232.08,46.04 L232.08,43.68 C231.799999,44.4266704 231.32667,45.0233311 230.66,45.47 C229.99333,45.9166689 229.193338,46.14 228.26,46.14 C227.326662,46.14 226.48667,45.9133356 225.74,45.46 C224.99333,45.0066644 224.410002,44.3500043 223.99,43.49 C223.569998,42.6299957 223.36,41.6200058 223.36,40.46 C223.36,39.2999942 223.569998,38.2900043 223.99,37.43 C224.410002,36.5699957 224.99333,35.9133356 225.74,35.46 C226.48667,35.0066644 227.326662,34.78 228.26,34.78 Z M229.14,37.24 C228.259996,37.24 227.553336,37.5266638 227.02,38.1 C226.486664,38.6733362 226.22,39.459995 226.22,40.46 C226.22,41.460005 226.486664,42.2433305 227.02,42.81 C227.553336,43.3766695 228.259996,43.66 229.14,43.66 C229.993338,43.66 230.696664,43.3700029 231.25,42.79 C231.803336,42.2099971 232.08,41.4333382 232.08,40.46 C232.08,39.4733284 231.803336,38.6900029 231.25,38.11 C230.696664,37.5299971 229.993338,37.24 229.14,37.24 Z M247.86,40.04 C247.86,40.3200014 247.826667,40.6399982 247.76,41 L239.64,41 C239.68,41.9866716 239.946664,42.713331 240.44,43.18 C240.933336,43.646669 241.546663,43.88 242.28,43.88 C242.933337,43.88 243.476665,43.7200016 243.91,43.4 C244.343336,43.0799984 244.619999,42.6466694 244.74,42.1 L247.72,42.1 C247.573333,42.8733372 247.260002,43.5666636 246.78,44.18 C246.299998,44.7933364 245.683337,45.2733316 244.93,45.62 C244.176663,45.9666684 243.340005,46.14 242.42,46.14 C241.339995,46.14 240.380004,45.9100023 239.54,45.45 C238.699996,44.9899977 238.046669,44.3333376 237.58,43.48 C237.113331,42.6266624 236.88,41.6200058 236.88,40.46 C236.88,39.2999942 237.113331,38.2900043 237.58,37.43 C238.046669,36.5699957 238.699996,35.9133356 239.54,35.46 C240.380004,35.0066644 241.339995,34.78 242.42,34.78 C243.513339,34.78 244.469996,35.0066644 245.29,35.46 C246.110004,35.9133356 246.743331,36.5366627 247.19,37.33 C247.636669,38.1233373 247.86,39.0266616 247.86,40.04 Z M245.02,39.76 C245.06,38.8533288 244.823336,38.166669 244.31,37.7 C243.796664,37.233331 243.16667,37 242.42,37 C241.659996,37 241.020003,37.233331 240.5,37.7 C239.979997,38.166669 239.693334,38.8533288 239.64,39.76 L245.02,39.76 Z M255.78,43.58 L255.78,46 L254.3,46 C253.059994,46 252.110003,45.700003 251.45,45.1 C250.789997,44.499997 250.46,43.500007 250.46,42.1 L250.46,37.3 L248.92,37.3 L248.92,34.92 L250.46,34.92 L250.46,32.18 L253.28,32.18 L253.28,34.92 L255.76,34.92 L255.76,37.3 L253.28,37.3 L253.28,42.14 C253.28,42.673336 253.386666,43.0466656 253.6,43.26 C253.813334,43.4733344 254.173331,43.58 254.68,43.58 L255.78,43.58 Z M278.02,34.92 L275.04,46 L271.92,46 L269.54,37.94 L267.1,46 L263.98,46 L261.02,34.92 L263.84,34.92 L265.64,43.48 L268.1,34.92 L271.08,34.92 L273.56,43.48 L275.38,34.92 L278.02,34.92 Z M289.84,40.04 C289.84,40.3200014 289.806667,40.6399982 289.74,41 L281.62,41 C281.66,41.9866716 281.926664,42.713331 282.42,43.18 C282.913336,43.646669 283.526663,43.88 284.26,43.88 C284.913337,43.88 285.456665,43.7200016 285.89,43.4 C286.323336,43.0799984 286.599999,42.6466694 286.72,42.1 L289.7,42.1 C289.553333,42.8733372 289.240002,43.5666636 288.76,44.18 C288.279998,44.7933364 287.663337,45.2733316 286.91,45.62 C286.156663,45.9666684 285.320005,46.14 284.4,46.14 C283.319995,46.14 282.360004,45.9100023 281.52,45.45 C280.679996,44.9899977 280.026669,44.3333376 279.56,43.48 C279.093331,42.6266624 278.86,41.6200058 278.86,40.46 C278.86,39.2999942 279.093331,38.2900043 279.56,37.43 C280.026669,36.5699957 280.679996,35.9133356 281.52,35.46 C282.360004,35.0066644 283.319995,34.78 284.4,34.78 C285.493339,34.78 286.449996,35.0066644 287.27,35.46 C288.090004,35.9133356 288.723331,36.5366627 289.17,37.33 C289.616669,38.1233373 289.84,39.0266616 289.84,40.04 Z M287,39.76 C287.04,38.8533288 286.803336,38.166669 286.29,37.7 C285.776664,37.233331 285.14667,37 284.4,37 C283.639996,37 283.000003,37.233331 282.48,37.7 C281.959997,38.166669 281.673334,38.8533288 281.62,39.76 L287,39.76 Z M297.76,43.58 L297.76,46 L296.28,46 C295.039994,46 294.090003,45.700003 293.43,45.1 C292.769997,44.499997 292.44,43.500007 292.44,42.1 L292.44,37.3 L290.9,37.3 L290.9,34.92 L292.44,34.92 L292.44,32.18 L295.26,32.18 L295.26,34.92 L297.74,34.92 L297.74,37.3 L295.26,37.3 L295.26,42.14 C295.26,42.673336 295.366666,43.0466656 295.58,43.26 C295.793334,43.4733344 296.153331,43.58 296.66,43.58 L297.76,43.58 Z M303.68,31.3 L303.32,41.3 L300.94,41.3 L300.58,31.3 L303.68,31.3 Z M303.66,43.06 L303.66,46 L300.62,46 L300.62,43.06 L303.66,43.06 Z M72.28,68.76 L72.28,74 L69.46,74 L69.46,59.88 L74.6,59.88 C76.266675,59.88 77.5233291,60.279996 78.37,61.08 C79.2166709,61.880004 79.64,62.9666598 79.64,64.34 C79.64,65.6866734 79.2033377,66.759996 78.33,67.56 C77.4566623,68.360004 76.2133414,68.76 74.6,68.76 L72.28,68.76 Z M74.3,66.5 C75.9533416,66.5 76.78,65.7800072 76.78,64.34 C76.78,63.6333298 76.5866686,63.0933352 76.2,62.72 C75.8133314,62.3466648 75.1800044,62.16 74.3,62.16 L72.28,62.16 L72.28,66.5 L74.3,66.5 Z M84.3,59.2 L84.3,74 L81.48,74 L81.48,59.2 L84.3,59.2 Z M97.28,68.04 C97.28,68.3200014 97.246667,68.6399982 97.18,69 L89.06,69 C89.1000002,69.9866716 89.3666642,70.713331 89.86,71.18 C90.3533358,71.646669 90.966663,71.88 91.7,71.88 C92.3533366,71.88 92.8966645,71.7200016 93.33,71.4 C93.7633355,71.0799984 94.0399994,70.6466694 94.16,70.1 L97.14,70.1 C96.9933326,70.8733372 96.6800024,71.5666636 96.2,72.18 C95.7199976,72.7933364 95.1033371,73.2733316 94.35,73.62 C93.5966629,73.9666684 92.7600046,74.14 91.84,74.14 C90.7599946,74.14 89.8000042,73.9100023 88.96,73.45 C88.1199958,72.9899977 87.466669,72.3333376 87,71.48 C86.533331,70.6266624 86.3,69.6200058 86.3,68.46 C86.3,67.2999942 86.533331,66.2900043 87,65.43 C87.466669,64.5699957 88.1199958,63.9133356 88.96,63.46 C89.8000042,63.0066644 90.7599946,62.78 91.84,62.78 C92.9333388,62.78 93.8899959,63.0066644 94.71,63.46 C95.5300041,63.9133356 96.1633311,64.5366627 96.61,65.33 C97.0566689,66.1233373 97.28,67.0266616 97.28,68.04 Z M94.44,67.76 C94.4800002,66.8533288 94.2433359,66.166669 93.73,65.7 C93.2166641,65.233331 92.5866704,65 91.84,65 C91.0799962,65 90.4400026,65.233331 89.92,65.7 C89.3999974,66.166669 89.1133336,66.8533288 89.06,67.76 L94.44,67.76 Z M103.62,62.78 C104.553338,62.78 105.35333,62.9999978 106.02,63.44 C106.68667,63.8800022 107.159999,64.4733296 107.44,65.22 L107.44,62.92 L110.24,62.92 L110.24,74 L107.44,74 L107.44,71.68 C107.159999,72.4266704 106.68667,73.0233311 106.02,73.47 C105.35333,73.9166689 104.553338,74.14 103.62,74.14 C102.686662,74.14 101.84667,73.9133356 101.1,73.46 C100.35333,73.0066644 99.7700021,72.3500043 99.35,71.49 C98.9299979,70.6299957 98.72,69.6200058 98.72,68.46 C98.72,67.2999942 98.9299979,66.2900043 99.35,65.43 C99.7700021,64.5699957 100.35333,63.9133356 101.1,63.46 C101.84667,63.0066644 102.686662,62.78 103.62,62.78 Z M104.5,65.24 C103.619996,65.24 102.913336,65.5266638 102.38,66.1 C101.846664,66.6733362 101.58,67.459995 101.58,68.46 C101.58,69.460005 101.846664,70.2433305 102.38,70.81 C102.913336,71.3766695 103.619996,71.66 104.5,71.66 C105.353338,71.66 106.056664,71.3700029 106.61,70.79 C107.163336,70.2099971 107.44,69.4333382 107.44,68.46 C107.44,67.4733284 107.163336,66.6900029 106.61,66.11 C106.056664,65.5299971 105.353338,65.24 104.5,65.24 Z M116.62,62.78 C117.966673,62.78 119.046663,63.1199966 119.86,63.8 C120.673337,64.4800034 121.179999,65.386661 121.38,66.52 L118.74,66.52 C118.633333,65.986664 118.393335,65.5600016 118.02,65.24 C117.646665,64.9199984 117.160003,64.76 116.56,64.76 C116.079998,64.76 115.706668,64.8733322 115.44,65.1 C115.173332,65.3266678 115.04,65.6333314 115.04,66.02 C115.04,66.3266682 115.146666,66.5733324 115.36,66.76 C115.573334,66.9466676 115.839998,67.0933328 116.16,67.2 C116.480002,67.3066672 116.939997,67.4333326 117.54,67.58 C118.380004,67.7666676 119.063331,67.9633323 119.59,68.17 C120.116669,68.3766677 120.569998,68.7033311 120.95,69.15 C121.330002,69.5966689 121.52,70.1999962 121.52,70.96 C121.52,71.9066714 121.150004,72.6733304 120.41,73.26 C119.669996,73.8466696 118.67334,74.14 117.42,74.14 C115.979993,74.14 114.826671,73.8166699 113.96,73.17 C113.093329,72.5233301 112.566668,71.600006 112.38,70.4 L115.08,70.4 C115.146667,70.9466694 115.386665,71.3766651 115.8,71.69 C116.213335,72.0033349 116.75333,72.16 117.42,72.16 C117.900002,72.16 118.266665,72.0433345 118.52,71.81 C118.773335,71.5766655 118.9,71.2733352 118.9,70.9 C118.9,70.5799984 118.790001,70.320001 118.57,70.12 C118.349999,69.919999 118.076668,69.7666672 117.75,69.66 C117.423332,69.5533328 116.960003,69.4266674 116.36,69.28 C115.533329,69.0933324 114.863336,68.9033343 114.35,68.71 C113.836664,68.5166657 113.396668,68.2066688 113.03,67.78 C112.663331,67.3533312 112.48,66.7666704 112.48,66.02 C112.48,65.0599952 112.846663,64.280003 113.58,63.68 C114.313337,63.079997 115.32666,62.78 116.62,62.78 Z M134.04,68.04 C134.04,68.3200014 134.006667,68.6399982 133.94,69 L125.82,69 C125.86,69.9866716 126.126664,70.713331 126.62,71.18 C127.113336,71.646669 127.726663,71.88 128.46,71.88 C129.113337,71.88 129.656664,71.7200016 130.09,71.4 C130.523335,71.0799984 130.799999,70.6466694 130.92,70.1 L133.9,70.1 C133.753333,70.8733372 133.440002,71.5666636 132.96,72.18 C132.479998,72.7933364 131.863337,73.2733316 131.11,73.62 C130.356663,73.9666684 129.520005,74.14 128.6,74.14 C127.519995,74.14 126.560004,73.9100023 125.72,73.45 C124.879996,72.9899977 124.226669,72.3333376 123.76,71.48 C123.293331,70.6266624 123.06,69.6200058 123.06,68.46 C123.06,67.2999942 123.293331,66.2900043 123.76,65.43 C124.226669,64.5699957 124.879996,63.9133356 125.72,63.46 C126.560004,63.0066644 127.519995,62.78 128.6,62.78 C129.693339,62.78 130.649996,63.0066644 131.47,63.46 C132.290004,63.9133356 132.923331,64.5366627 133.37,65.33 C133.816669,66.1233373 134.04,67.0266616 134.04,68.04 Z M131.2,67.76 C131.24,66.8533288 131.003336,66.166669 130.49,65.7 C129.976664,65.233331 129.34667,65 128.6,65 C127.839996,65 127.200003,65.233331 126.68,65.7 C126.159997,66.166669 125.873334,66.8533288 125.82,67.76 L131.2,67.76 Z M146.88,74 L143.22,69.16 L143.22,74 L140.4,74 L140.4,59.2 L143.22,59.2 L143.22,67.52 L146.86,62.92 L150.2,62.92 L145.54,68.44 L150.32,74 L146.88,74 Z M162.1,68.04 C162.1,68.3200014 162.066667,68.6399982 162,69 L153.88,69 C153.92,69.9866716 154.186664,70.713331 154.68,71.18 C155.173336,71.646669 155.786663,71.88 156.52,71.88 C157.173337,71.88 157.716664,71.7200016 158.15,71.4 C158.583335,71.0799984 158.859999,70.6466694 158.98,70.1 L161.96,70.1 C161.813333,70.8733372 161.500002,71.5666636 161.02,72.18 C160.539998,72.7933364 159.923337,73.2733316 159.17,73.62 C158.416663,73.9666684 157.580005,74.14 156.66,74.14 C155.579995,74.14 154.620004,73.9100023 153.78,73.45 C152.939996,72.9899977 152.286669,72.3333376 151.82,71.48 C151.353331,70.6266624 151.12,69.6200058 151.12,68.46 C151.12,67.2999942 151.353331,66.2900043 151.82,65.43 C152.286669,64.5699957 152.939996,63.9133356 153.78,63.46 C154.620004,63.0066644 155.579995,62.78 156.66,62.78 C157.753339,62.78 158.709996,63.0066644 159.53,63.46 C160.350004,63.9133356 160.983331,64.5366627 161.43,65.33 C161.876669,66.1233373 162.1,67.0266616 162.1,68.04 Z M159.26,67.76 C159.3,66.8533288 159.063336,66.166669 158.55,65.7 C158.036664,65.233331 157.40667,65 156.66,65 C155.899996,65 155.260003,65.233331 154.74,65.7 C154.219997,66.166669 153.933334,66.8533288 153.88,67.76 L159.26,67.76 Z M174.52,68.04 C174.52,68.3200014 174.486667,68.6399982 174.42,69 L166.3,69 C166.34,69.9866716 166.606664,70.713331 167.1,71.18 C167.593336,71.646669 168.206663,71.88 168.94,71.88 C169.593337,71.88 170.136664,71.7200016 170.57,71.4 C171.003335,71.0799984 171.279999,70.6466694 171.4,70.1 L174.38,70.1 C174.233333,70.8733372 173.920002,71.5666636 173.44,72.18 C172.959998,72.7933364 172.343337,73.2733316 171.59,73.62 C170.836663,73.9666684 170.000005,74.14 169.08,74.14 C167.999995,74.14 167.040004,73.9100023 166.2,73.45 C165.359996,72.9899977 164.706669,72.3333376 164.24,71.48 C163.773331,70.6266624 163.54,69.6200058 163.54,68.46 C163.54,67.2999942 163.773331,66.2900043 164.24,65.43 C164.706669,64.5699957 165.359996,63.9133356 166.2,63.46 C167.040004,63.0066644 167.999995,62.78 169.08,62.78 C170.173339,62.78 171.129996,63.0066644 171.95,63.46 C172.770004,63.9133356 173.403331,64.5366627 173.85,65.33 C174.296669,66.1233373 174.52,67.0266616 174.52,68.04 Z M171.68,67.76 C171.72,66.8533288 171.483336,66.166669 170.97,65.7 C170.456664,65.233331 169.82667,65 169.08,65 C168.319996,65 167.680003,65.233331 167.16,65.7 C166.639997,66.166669 166.353334,66.8533288 166.3,67.76 L171.68,67.76 Z M183.14,62.78 C184.073338,62.78 184.91333,63.0066644 185.66,63.46 C186.40667,63.9133356 186.989998,64.5699957 187.41,65.43 C187.830002,66.2900043 188.04,67.2999942 188.04,68.46 C188.04,69.6200058 187.830002,70.6299957 187.41,71.49 C186.989998,72.3500043 186.40667,73.0066644 185.66,73.46 C184.91333,73.9133356 184.073338,74.14 183.14,74.14 C182.206662,74.14 181.410003,73.9166689 180.75,73.47 C180.089997,73.0233311 179.620001,72.4266704 179.34,71.68 L179.34,79.28 L176.52,79.28 L176.52,62.92 L179.34,62.92 L179.34,65.22 C179.620001,64.4733296 180.089997,63.8800022 180.75,63.44 C181.410003,62.9999978 182.206662,62.78 183.14,62.78 Z M182.26,65.24 C181.406662,65.24 180.703336,65.5299971 180.15,66.11 C179.596664,66.6900029 179.32,67.4733284 179.32,68.46 C179.32,69.4333382 179.596664,70.2099971 180.15,70.79 C180.703336,71.3700029 181.406662,71.66 182.26,71.66 C183.140004,71.66 183.846664,71.3766695 184.38,70.81 C184.913336,70.2433305 185.18,69.460005 185.18,68.46 C185.18,67.459995 184.913336,66.6733362 184.38,66.1 C183.846664,65.5266638 183.140004,65.24 182.26,65.24 Z M208.5,62.76 C209.846673,62.76 210.909996,63.1766625 211.69,64.01 C212.470004,64.8433375 212.86,66.026659 212.86,67.56 L212.86,74 L210.06,74 L210.06,67.88 C210.06,67.0266624 209.843335,66.3700023 209.41,65.91 C208.976664,65.4499977 208.380004,65.22 207.62,65.22 C206.833329,65.22 206.206669,65.4666642 205.74,65.96 C205.273331,66.4533358 205.04,67.1733286 205.04,68.12 L205.04,74 L202.24,74 L202.24,67.88 C202.24,67.0266624 202.023335,66.3700023 201.59,65.91 C201.156664,65.4499977 200.560004,65.22 199.8,65.22 C199.013329,65.22 198.386669,65.4666642 197.92,65.96 C197.453331,66.4533358 197.22,67.1733286 197.22,68.12 L197.22,74 L194.4,74 L194.4,62.92 L197.22,62.92 L197.22,65.02 C197.513335,64.2999964 197.976663,63.7433353 198.61,63.35 C199.243336,62.9566647 199.979996,62.76 200.82,62.76 C201.713338,62.76 202.489997,62.9733312 203.15,63.4 C203.810003,63.8266688 204.306665,64.439996 204.64,65.24 C204.986668,64.4799962 205.50333,63.8766689 206.19,63.43 C206.87667,62.9833311 207.646662,62.76 208.5,62.76 Z M225.76,68.04 C225.76,68.3200014 225.726667,68.6399982 225.66,69 L217.54,69 C217.58,69.9866716 217.846664,70.713331 218.34,71.18 C218.833336,71.646669 219.446663,71.88 220.18,71.88 C220.833337,71.88 221.376665,71.7200016 221.81,71.4 C222.243336,71.0799984 222.519999,70.6466694 222.64,70.1 L225.62,70.1 C225.473333,70.8733372 225.160002,71.5666636 224.68,72.18 C224.199998,72.7933364 223.583337,73.2733316 222.83,73.62 C222.076663,73.9666684 221.240005,74.14 220.32,74.14 C219.239995,74.14 218.280004,73.9100023 217.44,73.45 C216.599996,72.9899977 215.946669,72.3333376 215.48,71.48 C215.013331,70.6266624 214.78,69.6200058 214.78,68.46 C214.78,67.2999942 215.013331,66.2900043 215.48,65.43 C215.946669,64.5699957 216.599996,63.9133356 217.44,63.46 C218.280004,63.0066644 219.239995,62.78 220.32,62.78 C221.413339,62.78 222.369996,63.0066644 223.19,63.46 C224.010004,63.9133356 224.643331,64.5366627 225.09,65.33 C225.536669,66.1233373 225.76,67.0266616 225.76,68.04 Z M222.92,67.76 C222.96,66.8533288 222.723336,66.166669 222.21,65.7 C221.696664,65.233331 221.06667,65 220.32,65 C219.559996,65 218.920003,65.233331 218.4,65.7 C217.879997,66.166669 217.593334,66.8533288 217.54,67.76 L222.92,67.76 Z M236.46,62.78 C237.393338,62.78 238.189997,62.9999978 238.85,63.44 C239.510003,63.8800022 239.986665,64.4733296 240.28,65.22 L240.28,59.2 L243.08,59.2 L243.08,74 L240.28,74 L240.28,71.68 C239.986665,72.4266704 239.510003,73.0233311 238.85,73.47 C238.189997,73.9166689 237.393338,74.14 236.46,74.14 C235.526662,74.14 234.68667,73.9133356 233.94,73.46 C233.19333,73.0066644 232.610002,72.3500043 232.19,71.49 C231.769998,70.6299957 231.56,69.6200058 231.56,68.46 C231.56,67.2999942 231.769998,66.2900043 232.19,65.43 C232.610002,64.5699957 233.19333,63.9133356 233.94,63.46 C234.68667,63.0066644 235.526662,62.78 236.46,62.78 Z M237.34,65.24 C236.459996,65.24 235.753336,65.5266638 235.22,66.1 C234.686664,66.6733362 234.42,67.459995 234.42,68.46 C234.42,69.460005 234.686664,70.2433305 235.22,70.81 C235.753336,71.3766695 236.459996,71.66 237.34,71.66 C238.193338,71.66 238.896664,71.3700029 239.45,70.79 C240.003336,70.2099971 240.28,69.4333382 240.28,68.46 C240.28,67.4733284 240.003336,66.6900029 239.45,66.11 C238.896664,65.5299971 238.193338,65.24 237.34,65.24 Z M248.46,65.04 C248.873335,64.3333298 249.419997,63.7766687 250.1,63.37 C250.780003,62.9633313 251.539996,62.76 252.38,62.76 L252.38,65.78 L251.56,65.78 C249.493323,65.78 248.46,66.7399904 248.46,68.66 L248.46,74 L245.64,74 L245.64,62.92 L248.46,62.92 L248.46,65.04 Z M255.84,62.92 L258.86,70.44 L261.66,62.92 L264.76,62.92 L257.98,79.28 L254.86,79.28 L257.36,73.68 L252.7,62.92 L255.84,62.92 Z M269.98,59.3 L269.62,69.3 L267.24,69.3 L266.88,59.3 L269.98,59.3 Z M269.96,71.06 L269.96,74 L266.92,74 L266.92,71.06 L269.96,71.06 Z" fill="#000000" fill-rule="nonzero" id="Arf!Idon'twanttogetwet!Pleasekeepmedry!"></path>
                        </g>
                      </g>
                    </g>
                  </svg>