<svg viewBox="0 0 66 45" xmlns="http://www.w3.org/2000/svg" id="rain-head">
        <g fill="none" fill-rule="evenodd">
          <path d="M36.3 6.5c4.4 0 7.7.5 12 1.5l5.4 18.6c1.6 2.9 4 5.1 5.4 7 2.8 3.7 1.4 6.7-3.3 5.4-1.6-.5-3.5-1.3-5.1-1.7H12.6c-.6-2.9 3.6-5.8 6.3-10.7L22.4 8c4.3-1 9.5-1.5 13.9-1.5z" fill="#999725"></path>
          <path d="M36.3 6.5c4.4 0 7.7.5 12 1.5l5.4 18.6c1.6 2.9 4 5.1 5.4 7 2.8 3.7 1.4 6.7-3.3 5.4-1.6-.5-3.5-1.3-5.1-1.7H12.6c-.6-2.9 3.6-5.8 6.3-10.7L22.4 8c4.3-1 9.5-1.5 13.9-1.5z" stroke="#999725" stroke-width="2.5" stroke-linecap="round" stroke-linejoin="round"></path>
          <path d="M21.8 11.5c5.6 1.9 13.1 1.9 18.6 0m-9.2-5c4.7 0 9.3.5 13.9 1.5l4.4 18.6c2.9 4.9 7.9 7.8 7.3 10.7-4.7-1.5-5.5 3.9-12.4 1.1-3.4-1.4-5.6-.6-7.9.2-2.1.7-3.7 1-5.3.9-1.6 0-3.3-.3-5.3-.9-2.3-.8-4.5-1.5-7.9-.2-6.9 2.8-7.7-2.6-12.4-1.1-.6-3 4.4-5.8 7.3-10.7L17.2 8c4.7-1 9.3-1.5 14-1.5z" stroke="#000" stroke-width="2.5" stroke-linecap="round" stroke-linejoin="round"></path>
          <path d="M48.2 21.5l1.2 5.1c-5.8 1-12 1.5-18.3 1.5-6.2 0-12.5-.5-18.3-1.5l1.2-5.1c5.4.8 11.2 1.3 17.1 1.3 5.9-.1 11.7-.5 17.1-1.3z" fill="#855900"></path>
          <path d="M48.2 21.5l1.2 5.1c-5.8 1-12 1.5-18.3 1.5-6.2 0-12.5-.5-18.3-1.5l1.2-5.1c5.4.8 11.2 1.3 17.1 1.3 5.9-.1 11.7-.5 17.1-1.3z" stroke="#000" stroke-width="2.5" stroke-linecap="round" stroke-linejoin="round"></path>
          <path d="M43.8 30.4l-2.6-11.5c-.3-1.5-1.2-1.9-2-1.6-1.6.6-1 2.4-.7 3.5m5.2 9.7c-.5.2-.8.8-.7 1.4.1.6.7 1 1.2.8.5-.2.8-.8.7-1.4-.2-.6-.7-1-1.2-.8zM35 31.9V20c0-1.5-.8-2.2-1.5-2.1-1.6.1-1.5 2-1.5 3.2m2.8 10.8c-.5 0-1 .5-1 1.2 0 .6.4 1.2 1 1.2.5 0 1-.5 1-1.2s-.4-1.2-1-1.2z" stroke="#000" stroke-width="2.5" stroke-linecap="round" stroke-linejoin="round"></path>
        </g>
      </svg>