<svg viewBox="0 0 66 45" xmlns="http://www.w3.org/2000/svg" id="rain-body">
        <title>BODY (Common WET) - Rain Coat</title>
        <g fill="none" fill-rule="evenodd">
          <path d="M24.1 13.4c-5.5 2.2-10.2 7.7-10.2 14.2v11.8h43.5V27.7c0-3.5-.9-6.7-2.6-9.3-1.7-2.7-4.6-5.1-7.8-5.1h-8.8l-7.1 12-7-11.9z" fill="#FFE20C"></path>
          <path d="M24.1 13.4c-5.5 2.2-10.2 7.7-10.2 14.2v11.8h43.5V27.7c0-3.5-.9-6.7-2.6-9.3-1.7-2.7-4.6-5.1-7.8-5.1h-8.8l-7.1 12-7-11.9z" stroke="#FFE20C" stroke-width="2.5" stroke-linecap="round" stroke-linejoin="round"></path>
          <path d="M40.3 6.7H46c1.8 0 3.3 1.5 3.3 3.3 0 1.8-1.5 3.3-3.3 3.3h-2.1l-7.1 12-2.9-4.8 4.3-7.2h2.1c1.8 0 3.3-1.5 3.3-3.3 0-1.8-1.5-3.3-3.3-3.3z" fill="#FFE20C"></path>
          <path d="M40.3 6.7H46c1.8 0 3.3 1.5 3.3 3.3 0 1.8-1.5 3.3-3.3 3.3h-2.1l-7.1 12-2.9-4.8 4.3-7.2h2.1c1.8 0 3.3-1.5 3.3-3.3 0-1.8-1.5-3.3-3.3-3.3z" stroke="#FFE20C" stroke-width="2.5" stroke-linecap="round" stroke-linejoin="round"></path>
          <path d="M20.1 34.5v5m22-5v5M21.8 6.7h18.5c1.8 0 3.3 1.5 3.3 3.3 0 1.8-1.5 3.3-3.3 3.3h-2.1l-7.1 12-7.1-12h-2.1c-1.8 0-3.3-1.5-3.3-3.3 0-1.8 1.4-3.3 3.2-3.3zm9.3 18.1v14.7" stroke="#000" stroke-width="2.5" stroke-linecap="round" stroke-linejoin="round"></path>
          <path d="M20 13.2c-7.1 1.2-11.4 7.4-11.4 14.7v11.6h45V27.9c0-7.3-4.3-13.5-11.4-14.7h-3.9l-7.1 12-7.1-12H20zm4 0v10m14.2-10v10" stroke="#000" stroke-width="2.5" stroke-linecap="round" stroke-linejoin="round"></path>
          <path d="M25.6 26.3c1.1 0 2 .9 2 2s-.9 2-2 2-2-.9-2-2c0-1.2.9-2 2-2m0 6c1.1 0 2 .9 2 2s-.9 2-2 2-2-.9-2-2c0-1.2.9-2 2-2m11-6c1.1 0 2 .9 2 2s-.9 2-2 2-2-.9-2-2c0-1.2.9-2 2-2m0 6c1.1 0 2 .9 2 2s-.9 2-2 2-2-.9-2-2c0-1.2.9-2 2-2" fill="#000" fill-rule="nonzero"></path>
          <path d="M36.6 28.3h-11m11 6h-11" stroke="#000" stroke-width="2.5" stroke-linecap="round" stroke-linejoin="round"></path>
        </g>
      </svg>