<svg viewBox="0 0 66 45" xmlns="http://www.w3.org/2000/svg" id="snow-foot">
        <g fill="none" fill-rule="evenodd">
          <path d="M34.6 7h11.2c1.6 0 2.9 1.4 2.9 3v15c0 2.9-1.2 5.2-4.2 6.9-5.5 3.2-7.9 4.9-14.4 5.3-13.9.8-11.8-9 1.6-13.4V10.1C31.7 8.4 33 7 34.6 7z" fill="#DD5CD2"></path>
          <path d="M34.6 7h11.2c1.6 0 2.9 1.4 2.9 3v15c0 2.9-1.2 5.2-4.2 6.9-5.5 3.2-7.9 4.9-14.4 5.3-13.9.8-11.8-9 1.6-13.4V10.1C31.7 8.4 33 7 34.6 7z" stroke="#DD5CD2" stroke-width="2.5" stroke-linecap="round" stroke-linejoin="round"></path>
          <path d="M28.8 7h12.4c1.8 0 3.2 1.4 3.2 3v15c0 2.9-1.3 5.2-4.7 6.9l-8 4.1c-12 6.1-20-7.7-10.1-13.2 1.7-.9 3.4-2 3.9-2.2V10c0-1.6 1.5-3 3.3-3z" stroke="#000" stroke-width="2.5" stroke-linecap="round" stroke-linejoin="round"></path>
          <path d="M44.4 21.8V25c0 2.9-1.3 5.2-4.7 6.9l-5.1 2.6c-.7-1.2-1.1-2.6-1.1-4.1 0-4.8 4.2-8.7 9.3-8.7.6 0 1.1 0 1.6.1z" fill="#98188F"></path>
          <path d="M44.4 21.8V25c0 2.9-1.3 5.2-4.7 6.9l-5.1 2.6c-.7-1.2-1.1-2.6-1.1-4.1 0-4.8 4.2-8.7 9.3-8.7.6 0 1.1 0 1.6.1zm-18.9-7h18.9M31.8 7v7.8M38.1 7v7.8" stroke="#000" stroke-width="2.5" stroke-linecap="round" stroke-linejoin="round"></path>
        </g>
      </svg>