<svg viewBox="0 0 66 45" xmlns="http://www.w3.org/2000/svg" id="snow-head">
        <g fill="none" fill-rule="evenodd">
          <path d="M19.6 31.3c-5.1-3.9-7.3 8.4.4 7.9 1.9-.1 5.9 1.1 10.8 1.2 6.9.2 15.4-.2 20.6-1.7 6.4-1.9 4.4-10 .5-10.2-1.1-8.6-4.6-14.3-11.1-17 .1-.7-1.2-1.8-1.7-2.2.2-.7 0-1.5-.5-2.1-.5-.6-1.1-.8-1.7-.6-.3-.6-.9-1.1-1.5-1.1-.7 0-1.2.4-1.5 1.1-.6-.2-1.2 0-1.7.6s-.6 1.4-.5 2.1c-.5.4-.9 1.4-.9 1.9v.3c-2 .8-1.9 1.7-3.5 2.8-5.1 3.3-8.2 8.2-7.7 17z" fill="#24D3D8"></path>
          <path d="M19.6 31.3c-5.1-3.9-7.3 8.4.4 7.9 1.9-.1 5.9 1.1 10.8 1.2 6.9.2 15.4-.2 20.6-1.7 6.4-1.9 4.4-10 .5-10.2-1.1-8.6-4.6-14.3-11.1-17 .1-.7-1.2-1.8-1.7-2.2.2-.7 0-1.5-.5-2.1-.5-.6-1.1-.8-1.7-.6-.3-.6-.9-1.1-1.5-1.1-.7 0-1.2.4-1.5 1.1-.6-.2-1.2 0-1.7.6s-.6 1.4-.5 2.1c-.5.4-.9 1.4-.9 1.9v.3c-2 .8-1.9 1.7-3.5 2.8-5.1 3.3-8.2 8.2-7.7 17z" stroke="#24D3D8" stroke-width="2.5" stroke-linecap="round" stroke-linejoin="round"></path>
          <path d="M15.7 29.3c-4.9-2.3-7.8 5.6-1.8 8.4 7.7 3.7 26.4 3.7 34.1 0 6-2.9 3.2-10.6-1.8-8.4-7.4 3.2-23.7 3.2-30.5 0z" fill="#097AFE"></path>
          <path d="M15.7 29.3c-4.9-2.3-7.8 5.6-1.8 8.4 7.7 3.7 26.4 3.7 34.1 0 6-2.9 3.2-10.6-1.8-8.4-7.4 3.2-23.7 3.2-30.5 0zm29.4 9.2l-.9-8.5m-8.5 10.3l-.4-8.8m-18.5 7l.9-8.4m8.5 10.2l.4-8.8" stroke="#000" stroke-width="2.5" stroke-linecap="round" stroke-linejoin="round"></path>
          <path d="M31 10.5c9.1 0 16.5 7.5 16.5 16.8V29c-.4 0-.8.2-1.2.3-7.5 3.2-23.8 3.2-30.6 0-.4-.2-.8-.3-1.2-.4v-1.7c0-9.2 7.4-16.7 16.5-16.7z" stroke="#000" stroke-width="2.5" stroke-linecap="round" stroke-linejoin="round"></path>
          <path d="M31 5.5c.8 0 1.5.4 1.9 1.1.7-.2 1.5 0 2.1.6.6.6.8 1.3.6 2.1.6.4 1.1 1.1 1.1 1.9 0 .8-.4 1.5-1.1 1.9.2.7 0 1.5-.6 2.1-.6.6-1.4.7-2.1.6-.4.6-1.1 1.1-1.9 1.1-.8 0-1.5-.4-1.9-1.1-.7.2-1.5 0-2.1-.6-.6-.6-.8-1.3-.6-2.1-.6-.4-1.1-1.1-1.1-1.9 0-.8.4-1.5 1.1-1.9-.2-.7 0-1.5.6-2.1.6-.6 1.4-.7 2.1-.6.4-.7 1.1-1.1 1.9-1.1z" fill="#097AFE"></path>
          <path d="M31 5.5c.8 0 1.5.4 1.9 1.1.7-.2 1.5 0 2.1.6.6.6.8 1.3.6 2.1.6.4 1.1 1.1 1.1 1.9 0 .8-.4 1.5-1.1 1.9.2.7 0 1.5-.6 2.1-.6.6-1.4.7-2.1.6-.4.6-1.1 1.1-1.9 1.1-.8 0-1.5-.4-1.9-1.1-.7.2-1.5 0-2.1-.6-.6-.6-.8-1.3-.6-2.1-.6-.4-1.1-1.1-1.1-1.9 0-.8.4-1.5 1.1-1.9-.2-.7 0-1.5.6-2.1.6-.6 1.4-.7 2.1-.6.4-.7 1.1-1.1 1.9-1.1z" stroke="#000" stroke-width="2.5" stroke-linecap="round" stroke-linejoin="round"></path>
        </g>
      </svg>