<svg viewBox="0 0 66 45" xmlns="http://www.w3.org/2000/svg" id="snow-body">
        <g fill="none" fill-rule="evenodd">
          <path d="M21.197 10.53c-6.655 2.276-10.566 8.897-10.566 16.648v13.625h50.794V27.178c0-7.752-3.91-14.372-10.567-16.649H21.197z" fill="#E7E7E7"></path>
          <path d="M21.197 10.53c-6.655 2.276-10.566 8.897-10.566 16.648v13.625h50.794V27.178c0-7.752-3.91-14.372-10.567-16.649H21.197z" stroke="#E7E7E7" stroke-width="2.849" stroke-linecap="round" stroke-linejoin="round"></path>
          <path d="M12.487 11.818c-5.126 2.976-8.063 8.757-8.063 15.36v13.626h52.54V27.178c0-6.603-2.937-12.384-8.063-15.361-.374 1.624-1.501 3.219-3.701 4.272-3.402 1.628-8.914 2.476-14.506 2.538-5.591-.062-11.103-.91-14.506-2.538-2.2-1.053-3.327-2.648-3.701-4.271z" stroke="#000" stroke-width="2.849" stroke-linecap="round" stroke-linejoin="round"></path>
          <path d="M41.494 7.407c2.536-.35 4.91-1.059 6.387-1.46 5.186-1.412 6.972 8.544.874 11.824-.865.466-1.887.868-3.018 1.207v4.35c0 2.061-1.507 3.753-3.339 3.753h-.904V7.407zm2.446 19.674v3.851-3.85z" fill="#A0E021"></path>
          <path d="M41.494 7.407c2.536-.35 4.91-1.059 6.387-1.46 5.186-1.412 6.972 8.544.874 11.824-.865.466-1.887.868-3.018 1.207v4.35c0 2.061-1.507 3.753-3.339 3.753h-.904V7.407zm2.446 19.674v3.851-3.85z" stroke="#A0E021" stroke-width="2.971" stroke-linecap="round" stroke-linejoin="round"></path>
          <path d="M30.173 26.162l-.128.223a3.766 3.766 0 0 1-5.128 1.373l-3.647-2.105a3.765 3.765 0 0 1-1.375-5.129l1.608-2.785c2.603.52 5.57.813 8.58.876v6.732c0 .28.031.553.09.815" fill="#A0E021"></path>
          <path d="M30.173 26.162l-.128.223a3.766 3.766 0 0 1-5.128 1.373l-3.647-2.105a3.765 3.765 0 0 1-1.375-5.129l1.608-2.785c2.603.52 5.57.813 8.58.876v6.732c0 .28.031.553.09.815z" stroke="#000" stroke-width="2.969" stroke-linecap="round" stroke-linejoin="round"></path>
          <path d="M19.59 24.683l-1.926 3.335 1.926-3.335z" fill="#A0E021"></path>
          <path d="M19.59 24.683l-1.926 3.335 1.926-3.335z" stroke="#000" stroke-width="2.969" stroke-linecap="round" stroke-linejoin="round"></path>
          <path d="M23.004 26.654l-1.926 3.334 1.926-3.334z" fill="#A0E021"></path>
          <path d="M23.004 26.654l-1.926 3.334 1.926-3.334z" stroke="#000" stroke-width="2.969" stroke-linecap="round" stroke-linejoin="round"></path>
          <path d="M26.418 28.625l-1.925 3.335 1.925-3.335z" fill="#A0E021"></path>
          <path d="M26.418 28.625l-1.925 3.335 1.925-3.335z" stroke="#000" stroke-width="2.969" stroke-linecap="round" stroke-linejoin="round"></path>
          <path d="M30.694 18.626c-5.591-.062-11.104-.909-14.506-2.537-6.86-3.282-3.288-11.825.984-10.143 3.425 1.352 8.44 2.057 13.522 2.114 5.08-.057 10.097-.762 13.52-2.114 4.275-1.682 7.845 6.861.986 10.143-3.402 1.628-8.914 2.475-14.506 2.537" fill="#A0E021"></path>
          <path d="M30.694 18.626c-5.591-.062-11.104-.909-14.506-2.537-6.86-3.282-3.288-11.825.984-10.143 3.425 1.352 8.44 2.057 13.522 2.114 5.08-.057 10.097-.762 13.52-2.114 4.275-1.682 7.845 6.861.986 10.143-3.402 1.628-8.914 2.475-14.506 2.537z" stroke="#000" stroke-width="2.969" stroke-linecap="round" stroke-linejoin="round"></path>
          <path d="M33.838 5.485h4.212a3.764 3.764 0 0 1 3.754 3.754v14.089a3.765 3.765 0 0 1-3.754 3.754h-4.212a3.765 3.765 0 0 1-3.755-3.754V9.238a3.764 3.764 0 0 1 3.755-3.753" fill="#A0E021"></path>
          <path d="M33.838 5.485h4.212a3.764 3.764 0 0 1 3.754 3.754v14.089a3.765 3.765 0 0 1-3.754 3.754h-4.212a3.765 3.765 0 0 1-3.755-3.754V9.238a3.764 3.764 0 0 1 3.755-3.753zm-1.939 21.596v3.852m3.942-3.852v3.852m3.942-3.852v3.852M18.294 35.34v5.464m24.799-5.464v5.464" stroke="#000" stroke-width="2.969" stroke-linecap="round" stroke-linejoin="round"></path>
        </g>
      </svg>