<svg viewBox="0 0 244 132" xmlns="http://www.w3.org/2000/svg" id="stars">
        <path d="M106.694 69.725l-6.594-3.567 6.941-2.891 1.47-7.167 4.986 5.488 7.503-.865-3.855 6.286 3.167 6.633-7.37-1.605L107.394 77zm-8.583-46.081L85.8 22.926l8.063-9.249-3.12-11.826 11.371 4.743L112.5 0l-1.037 12.18L121 19.928l-12.009 2.788L104.5 34.1zm55.219 73.072l-3.654 1.307 1.19-3.711-2.366-3.09 3.878-.007L154.571 88l1.207 3.703 3.722 1.105-3.134 2.297.107 3.895zm-91.469 5.812l-2.807 3.056-.72-4.064-3.777-1.697 3.666-1.955.475-4.104 2.986 2.853 4.072-.838-1.823 3.72 2.04 3.584zm96.212-76.977l-6.273-2.198 5.583-3.58.176-6.573 5.175 4.135 6.382-1.865-2.382 6.142 3.766 5.42-6.65-.345-4.048 5.213zM6.272 87.15L0 84.957l5.582-3.584.178-6.573 5.173 4.135 6.38-1.867-2.379 6.141 3.766 5.42-6.65-.34L8 93.5zm44.925-48.386L45.44 41.8l1.063-6.362-4.703-4.471L48.254 30l2.849-5.801 2.926 5.762 6.471.883-4.647 4.533 1.146 6.345zm171.527 68.406l-11.524 1.834 5.536-10.142-5.331-10.254 11.483 2.062 8.234-8.17 1.56 11.419 10.418 5.198-10.518 4.995-1.791 11.388zm-39.247-43.466l-7.477.71 3.971-6.213-3.005-6.704 7.293 1.758 5.623-4.855.538 7.298 6.48 3.705-6.964 2.752-1.618 7.145zM36.31 69.612a2.751 2.751 0 0 0 5.48.476 2.751 2.751 0 0 0-2.502-2.978 2.752 2.752 0 0 0-2.978 2.502m174.9-25.3a2.75 2.75 0 1 0 5.477.474 2.75 2.75 0 0 0-5.477-.474m-192.5 74.8a2.75 2.75 0 1 0 5.477.474 2.75 2.75 0 0 0-5.477-.474m122.1-61.601a2.751 2.751 0 0 0 5.48.478 2.751 2.751 0 0 0-5.48-.478m46.2 32.999a2.75 2.75 0 1 0 5.479.48 2.75 2.75 0 0 0-5.479-.48m0 38.5a2.75 2.75 0 1 0 5.479.48 2.75 2.75 0 0 0-5.479-.48M78.11 54.212a2.747 2.747 0 0 0 2.501 2.978 2.75 2.75 0 1 0-2.5-2.978" fill="#FFF" fill-rule="evenodd"></path>
      </svg>