<svg viewBox="0 0 66 45" xmlns="http://www.w3.org/2000/svg" id="sun-body">
        <g fill="none" fill-rule="evenodd">
          <path d="M22 10.4c-4.5 2.6-8.1 7.6-8.1 13.2v11.8h43.5V23.7c0-3.5-.9-6.7-2.6-9.3-1.7-2.7-4.6-5.1-7.8-5.1h-6.8c-.4 4.8-4.4 8.5-9.2 8.5-4.4-.1-8.1-3.2-9-7.4z" fill="#10D114"></path>
          <path d="M22 10.4c-4.5 2.6-8.1 7.6-8.1 13.2v11.8h43.5V23.7c0-3.5-.9-6.7-2.6-9.3-1.7-2.7-4.6-5.1-7.8-5.1h-6.8c-.4 4.8-4.4 8.5-9.2 8.5-4.4-.1-8.1-3.2-9-7.4z" stroke="#10D114" stroke-width="2.5" stroke-linecap="round" stroke-linejoin="round"></path>
          <path d="M20 9.2c-7.1 1.2-11.4 7.4-11.4 14.7v11.6h45V23.9c0-7.3-4.3-13.5-11.4-14.7h-1.9c-.4 4.8-4.4 8.5-9.2 8.5-4.8 0-8.9-3.8-9.2-8.5H20zm.1 21.3v5m22-5v5" stroke="#000" stroke-width="2.5" stroke-linecap="round" stroke-linejoin="round"></path>
          <path d="M20 9.2c-.7.1-1.4.3-2.1.5.6 6.7 6.3 12 13.2 12 6.9 0 12.6-5.3 13.2-12-.7-.2-1.4-.4-2.1-.5h-1.9c-.4 4.8-4.4 8.5-9.2 8.5-4.8 0-8.9-3.8-9.2-8.5H20z" fill="#FFE20C"></path>
          <path d="M20 9.2c-.7.1-1.4.3-2.1.5.6 6.7 6.3 12 13.2 12 6.9 0 12.6-5.3 13.2-12-.7-.2-1.4-.4-2.1-.5h-1.9c-.4 4.8-4.4 8.5-9.2 8.5-4.8 0-8.9-3.8-9.2-8.5H20z" stroke="#000" stroke-width="2.5" stroke-linecap="round" stroke-linejoin="round"></path>
          <path fill="#FFE20C" d="M8.6 31.5v4h11.5v-4z"></path>
          <path stroke="#000" stroke-width="2.5" stroke-linecap="round" stroke-linejoin="round" d="M8.6 31.5v4h11.5v-4z"></path>
          <path fill="#FFE20C" d="M42.1 31.5v4h11.5v-4z"></path>
          <path stroke="#000" stroke-width="2.5" stroke-linecap="round" stroke-linejoin="round" d="M42.1 31.5v4h11.5v-4z"></path>
        </g>
      </svg>