<svg xmlns:xlink="http://www.w3.org/1999/xlink" class="weather-game__cloud-gfx ng-tns-c5-5 ng-star-inserted" height="142px" version="1.1" viewBox="0 0 340 142" width="340px" xmlns="http://www.w3.org/2000/svg" style="">
                    <defs class="ng-tns-c5-5">
                      <polygon class="ng-tns-c5-5" id="path-1" points="0.000623853211 0 339.509235 0 339.509235 107.792627 0.000623853211 107.792627"></polygon>
                    </defs>
                    <g class="ng-tns-c5-5" fill="none" fill-rule="evenodd" id="Homepage" stroke="none" stroke-width="1">
                      <g class="ng-tns-c5-5" id="desktop---dog---sunny" transform="translate(-550.000000, -246.000000)">
                        <g class="ng-tns-c5-5" id="asd" transform="translate(550.000000, 246.000000)">
                          <g class="ng-tns-c5-5" id="Group-6">
                            <path class="ng-tns-c5-5" d="M69.8355841,37.7765793 C41.9254312,46.7990943 26.6098349,76.7548428 35.627633,104.682814 C43.1523425,127.989244 65.2481835,142.515576 88.5750948,141.440823 C85.7802324,138.254019 83.5738716,134.45649 82.1889174,130.16476 C77.0473272,114.243226 85.0201713,97.2313323 100.126777,90.819229 L82.2128318,35.3419985 C78.0922813,35.6520434 73.9426177,36.4479641 69.8355841,37.7765793" fill="#FFFFFF" id="Fill-1"></path>
                            <g class="ng-tns-c5-5" id="Group-5">
                              <mask class="ng-tns-c5-5" fill="white" id="mask-2">
                                <use class="ng-tns-c5-5" xlink:href="#path-1"></use>
                              </mask>
                              <g class="ng-tns-c5-5" id="Clip-4"></g>
                              <path class="ng-tns-c5-5" d="M37.7219083,0 L301.786495,0 C322.534813,0 339.509859,16.9890045 339.509859,37.748488 L339.509859,70.0441392 C339.509859,90.8046632 322.532734,107.792627 301.786495,107.792627 L37.7219083,107.792627 C16.9777492,107.792627 0.000623853211,90.8057036 0.000623853211,70.0441392 L0.000623853211,37.748488 C0.000623853211,16.9869237 16.97463,0 37.7219083,0" fill="#FFFFFF" id="Fill-3" mask="url(#mask-2)"></path>
                            </g>
                          </g>
                          <path class="ng-tns-c5-5" d="M66.14,31.88 L62.68,46 L59.2,46 L56.56,35.76 L53.9,46 L50.44,46 L46.98,31.88 L50.04,31.88 L52.2,42.82 L55,31.88 L58.1,31.88 L60.92,42.82 L63.08,31.88 L66.14,31.88 Z M73.18,34.78 C74.2600054,34.78 75.2299957,35.0066644 76.09,35.46 C76.9500043,35.9133356 77.6266642,36.5699957 78.12,37.43 C78.6133358,38.2900043 78.86,39.2999942 78.86,40.46 C78.86,41.6200058 78.6133358,42.6266624 78.12,43.48 C77.6266642,44.3333376 76.9500043,44.9899977 76.09,45.45 C75.2299957,45.9100023 74.2600054,46.14 73.18,46.14 C72.0999946,46.14 71.1300043,45.9100023 70.27,45.45 C69.4099957,44.9899977 68.7333358,44.3333376 68.24,43.48 C67.7466642,42.6266624 67.5,41.6200058 67.5,40.46 C67.5,39.2999942 67.7466642,38.2900043 68.24,37.43 C68.7333358,36.5699957 69.4099957,35.9133356 70.27,35.46 C71.1300043,35.0066644 72.0999946,34.78 73.18,34.78 Z M73.18,37.22 C72.3933294,37.22 71.7266694,37.4966639 71.18,38.05 C70.6333306,38.6033361 70.36,39.4066614 70.36,40.46 C70.36,41.5133386 70.6333306,42.3166639 71.18,42.87 C71.7266694,43.4233361 72.3933294,43.7 73.18,43.7 C73.9666706,43.7 74.6333306,43.4233361 75.18,42.87 C75.7266694,42.3166639 76,41.5133386 76,40.46 C76,39.4066614 75.7266694,38.6033361 75.18,38.05 C74.6333306,37.4966639 73.9666706,37.22 73.18,37.22 Z M85.98,34.78 C87.0600054,34.78 88.0299957,35.0066644 88.89,35.46 C89.7500043,35.9133356 90.4266642,36.5699957 90.92,37.43 C91.4133358,38.2900043 91.66,39.2999942 91.66,40.46 C91.66,41.6200058 91.4133358,42.6266624 90.92,43.48 C90.4266642,44.3333376 89.7500043,44.9899977 88.89,45.45 C88.0299957,45.9100023 87.0600054,46.14 85.98,46.14 C84.8999946,46.14 83.9300043,45.9100023 83.07,45.45 C82.2099957,44.9899977 81.5333358,44.3333376 81.04,43.48 C80.5466642,42.6266624 80.3,41.6200058 80.3,40.46 C80.3,39.2999942 80.5466642,38.2900043 81.04,37.43 C81.5333358,36.5699957 82.2099957,35.9133356 83.07,35.46 C83.9300043,35.0066644 84.8999946,34.78 85.98,34.78 Z M85.98,37.22 C85.1933294,37.22 84.5266694,37.4966639 83.98,38.05 C83.4333306,38.6033361 83.16,39.4066614 83.16,40.46 C83.16,41.5133386 83.4333306,42.3166639 83.98,42.87 C84.5266694,43.4233361 85.1933294,43.7 85.98,43.7 C86.7666706,43.7 87.4333306,43.4233361 87.98,42.87 C88.5266694,42.3166639 88.8,41.5133386 88.8,40.46 C88.8,39.4066614 88.5266694,38.6033361 87.98,38.05 C87.4333306,37.4966639 86.7666706,37.22 85.98,37.22 Z M99.14,33 C98.3133292,32.9466664 97.733335,33.0666652 97.4,33.36 C97.066665,33.6533348 96.9,34.166663 96.9,34.9 L96.9,34.92 L99.14,34.92 L99.14,37.3 L96.9,37.3 L96.9,46 L94.08,46 L94.08,37.3 L92.66,37.3 L92.66,34.92 L94.08,34.92 L94.08,34.66 C94.08,33.3399934 94.4566629,32.3233369 95.21,31.61 C95.9633371,30.8966631 97.0799926,30.54 98.56,30.54 C98.8133346,30.54 99.006666,30.5466666 99.14,30.56 L99.14,33 Z M104.72,31.3 L104.36,41.3 L101.98,41.3 L101.62,31.3 L104.72,31.3 Z M104.7,43.06 L104.7,46 L101.66,46 L101.66,43.06 L104.7,43.06 Z M115.02,31.88 L115.02,46 L112.2,46 L112.2,31.88 L115.02,31.88 Z M123.5,43.58 L123.5,46 L122.02,46 C120.779994,46 119.830003,45.700003 119.17,45.1 C118.509997,44.499997 118.18,43.500007 118.18,42.1 L118.18,37.3 L116.64,37.3 L116.64,34.92 L118.18,34.92 L118.18,32.18 L121,32.18 L121,34.92 L123.48,34.92 L123.48,37.3 L121,37.3 L121,42.14 C121,42.673336 121.106666,43.0466656 121.32,43.26 C121.533334,43.4733344 121.893331,43.58 122.4,43.58 L123.5,43.58 Z M127.52,30.02 L127.26,34.28 L125.36,34.28 L125.1,30.02 L127.52,30.02 Z M133.48,34.78 C134.826673,34.78 135.906663,35.1199966 136.72,35.8 C137.533337,36.4800034 138.039999,37.386661 138.24,38.52 L135.6,38.52 C135.493333,37.986664 135.253335,37.5600016 134.88,37.24 C134.506665,36.9199984 134.020003,36.76 133.42,36.76 C132.939998,36.76 132.566668,36.8733322 132.3,37.1 C132.033332,37.3266678 131.9,37.6333314 131.9,38.02 C131.9,38.3266682 132.006666,38.5733324 132.22,38.76 C132.433334,38.9466676 132.699998,39.0933328 133.02,39.2 C133.340002,39.3066672 133.799997,39.4333326 134.4,39.58 C135.240004,39.7666676 135.923331,39.9633323 136.45,40.17 C136.976669,40.3766677 137.429998,40.7033311 137.81,41.15 C138.190002,41.5966689 138.38,42.1999962 138.38,42.96 C138.38,43.9066714 138.010004,44.6733304 137.27,45.26 C136.529996,45.8466696 135.53334,46.14 134.28,46.14 C132.839993,46.14 131.686671,45.8166699 130.82,45.17 C129.953329,44.5233301 129.426668,43.600006 129.24,42.4 L131.94,42.4 C132.006667,42.9466694 132.246665,43.3766651 132.66,43.69 C133.073335,44.0033349 133.61333,44.16 134.28,44.16 C134.760002,44.16 135.126665,44.0433345 135.38,43.81 C135.633335,43.5766655 135.76,43.2733352 135.76,42.9 C135.76,42.5799984 135.650001,42.320001 135.43,42.12 C135.209999,41.919999 134.936668,41.7666672 134.61,41.66 C134.283332,41.5533328 133.820003,41.4266674 133.22,41.28 C132.393329,41.0933324 131.723336,40.9033343 131.21,40.71 C130.696664,40.5166657 130.256668,40.2066688 129.89,39.78 C129.523331,39.3533312 129.34,38.7666704 129.34,38.02 C129.34,37.0599952 129.706663,36.280003 130.44,35.68 C131.173337,35.079997 132.18666,34.78 133.48,34.78 Z M148.66,34.78 C150.006673,34.78 151.086663,35.1199966 151.9,35.8 C152.713337,36.4800034 153.219999,37.386661 153.42,38.52 L150.78,38.52 C150.673333,37.986664 150.433335,37.5600016 150.06,37.24 C149.686665,36.9199984 149.200003,36.76 148.6,36.76 C148.119998,36.76 147.746668,36.8733322 147.48,37.1 C147.213332,37.3266678 147.08,37.6333314 147.08,38.02 C147.08,38.3266682 147.186666,38.5733324 147.4,38.76 C147.613334,38.9466676 147.879998,39.0933328 148.2,39.2 C148.520002,39.3066672 148.979997,39.4333326 149.58,39.58 C150.420004,39.7666676 151.103331,39.9633323 151.63,40.17 C152.156669,40.3766677 152.609998,40.7033311 152.99,41.15 C153.370002,41.5966689 153.56,42.1999962 153.56,42.96 C153.56,43.9066714 153.190004,44.6733304 152.45,45.26 C151.709996,45.8466696 150.71334,46.14 149.46,46.14 C148.019993,46.14 146.866671,45.8166699 146,45.17 C145.133329,44.5233301 144.606668,43.600006 144.42,42.4 L147.12,42.4 C147.186667,42.9466694 147.426665,43.3766651 147.84,43.69 C148.253335,44.0033349 148.79333,44.16 149.46,44.16 C149.940002,44.16 150.306665,44.0433345 150.56,43.81 C150.813335,43.5766655 150.94,43.2733352 150.94,42.9 C150.94,42.5799984 150.830001,42.320001 150.61,42.12 C150.389999,41.919999 150.116668,41.7666672 149.79,41.66 C149.463332,41.5533328 149.000003,41.4266674 148.4,41.28 C147.573329,41.0933324 146.903336,40.9033343 146.39,40.71 C145.876664,40.5166657 145.436668,40.2066688 145.07,39.78 C144.703331,39.3533312 144.52,38.7666704 144.52,38.02 C144.52,37.0599952 144.886663,36.280003 145.62,35.68 C146.353337,35.079997 147.36666,34.78 148.66,34.78 Z M166.26,34.92 L166.26,46 L163.44,46 L163.44,43.76 C163.146665,44.5066704 162.663337,45.0899979 161.99,45.51 C161.316663,45.9300021 160.540004,46.14 159.66,46.14 C158.379994,46.14 157.360004,45.7200042 156.6,44.88 C155.839996,44.0399958 155.46,42.8666742 155.46,41.36 L155.46,34.92 L158.26,34.92 L158.26,41.04 C158.26,41.9200044 158.486664,42.6033309 158.94,43.09 C159.393336,43.5766691 160.006663,43.82 160.78,43.82 C161.593337,43.82 162.239998,43.5600026 162.72,43.04 C163.200002,42.5199974 163.44,41.7733382 163.44,40.8 L163.44,34.92 L166.26,34.92 Z M175.42,34.76 C176.700006,34.76 177.719996,35.1799958 178.48,36.02 C179.240004,36.8600042 179.62,38.0399924 179.62,39.56 L179.62,46 L176.82,46 L176.82,39.88 C176.82,38.9999956 176.593336,38.3166691 176.14,37.83 C175.686664,37.3433309 175.066671,37.1 174.28,37.1 C173.479996,37.1 172.840002,37.3599974 172.36,37.88 C171.879998,38.4000026 171.64,39.1466618 171.64,40.12 L171.64,46 L168.82,46 L168.82,34.92 L171.64,34.92 L171.64,37.14 C171.933335,36.3933296 172.416663,35.8100021 173.09,35.39 C173.763337,34.9699979 174.539996,34.76 175.42,34.76 Z M188.7,34.76 C189.980006,34.76 190.999996,35.1799958 191.76,36.02 C192.520004,36.8600042 192.9,38.0399924 192.9,39.56 L192.9,46 L190.1,46 L190.1,39.88 C190.1,38.9999956 189.873336,38.3166691 189.42,37.83 C188.966664,37.3433309 188.346671,37.1 187.56,37.1 C186.759996,37.1 186.120002,37.3599974 185.64,37.88 C185.159998,38.4000026 184.92,39.1466618 184.92,40.12 L184.92,46 L182.1,46 L182.1,34.92 L184.92,34.92 L184.92,37.14 C185.213335,36.3933296 185.696663,35.8100021 186.37,35.39 C187.043337,34.9699979 187.819996,34.76 188.7,34.76 Z M197.28,34.92 L200.3,42.44 L203.1,34.92 L206.2,34.92 L199.42,51.28 L196.3,51.28 L198.8,45.68 L194.14,34.92 L197.28,34.92 Z M217,34.78 C218.080005,34.78 219.049996,35.0066644 219.91,35.46 C220.770004,35.9133356 221.446664,36.5699957 221.94,37.43 C222.433336,38.2900043 222.68,39.2999942 222.68,40.46 C222.68,41.6200058 222.433336,42.6266624 221.94,43.48 C221.446664,44.3333376 220.770004,44.9899977 219.91,45.45 C219.049996,45.9100023 218.080005,46.14 217,46.14 C215.919995,46.14 214.950004,45.9100023 214.09,45.45 C213.229996,44.9899977 212.553336,44.3333376 212.06,43.48 C211.566664,42.6266624 211.32,41.6200058 211.32,40.46 C211.32,39.2999942 211.566664,38.2900043 212.06,37.43 C212.553336,36.5699957 213.229996,35.9133356 214.09,35.46 C214.950004,35.0066644 215.919995,34.78 217,34.78 Z M217,37.22 C216.213329,37.22 215.546669,37.4966639 215,38.05 C214.453331,38.6033361 214.18,39.4066614 214.18,40.46 C214.18,41.5133386 214.453331,42.3166639 215,42.87 C215.546669,43.4233361 216.213329,43.7 217,43.7 C217.786671,43.7 218.453331,43.4233361 219,42.87 C219.546669,42.3166639 219.82,41.5133386 219.82,40.46 C219.82,39.4066614 219.546669,38.6033361 219,38.05 C218.453331,37.4966639 217.786671,37.22 217,37.22 Z M235.28,34.92 L235.28,46 L232.46,46 L232.46,43.76 C232.166665,44.5066704 231.683337,45.0899979 231.01,45.51 C230.336663,45.9300021 229.560004,46.14 228.68,46.14 C227.399994,46.14 226.380004,45.7200042 225.62,44.88 C224.859996,44.0399958 224.48,42.8666742 224.48,41.36 L224.48,34.92 L227.28,34.92 L227.28,41.04 C227.28,41.9200044 227.506664,42.6033309 227.96,43.09 C228.413336,43.5766691 229.026663,43.82 229.8,43.82 C230.613337,43.82 231.259998,43.5600026 231.74,43.04 C232.220002,42.5199974 232.46,41.7733382 232.46,40.8 L232.46,34.92 L235.28,34.92 Z M243.76,43.58 L243.76,46 L242.28,46 C241.039994,46 240.090003,45.700003 239.43,45.1 C238.769997,44.499997 238.44,43.500007 238.44,42.1 L238.44,37.3 L236.9,37.3 L236.9,34.92 L238.44,34.92 L238.44,32.18 L241.26,32.18 L241.26,34.92 L243.74,34.92 L243.74,37.3 L241.26,37.3 L241.26,42.14 C241.26,42.673336 241.366666,43.0466656 241.58,43.26 C241.793334,43.4733344 242.153331,43.58 242.66,43.58 L243.76,43.58 Z M249.6,34.78 C250.946673,34.78 252.026663,35.1199966 252.84,35.8 C253.653337,36.4800034 254.159999,37.386661 254.36,38.52 L251.72,38.52 C251.613333,37.986664 251.373335,37.5600016 251,37.24 C250.626665,36.9199984 250.140003,36.76 249.54,36.76 C249.059998,36.76 248.686668,36.8733322 248.42,37.1 C248.153332,37.3266678 248.02,37.6333314 248.02,38.02 C248.02,38.3266682 248.126666,38.5733324 248.34,38.76 C248.553334,38.9466676 248.819998,39.0933328 249.14,39.2 C249.460002,39.3066672 249.919997,39.4333326 250.52,39.58 C251.360004,39.7666676 252.043331,39.9633323 252.57,40.17 C253.096669,40.3766677 253.549998,40.7033311 253.93,41.15 C254.310002,41.5966689 254.5,42.1999962 254.5,42.96 C254.5,43.9066714 254.130004,44.6733304 253.39,45.26 C252.649996,45.8466696 251.65334,46.14 250.4,46.14 C248.959993,46.14 247.806671,45.8166699 246.94,45.17 C246.073329,44.5233301 245.546668,43.600006 245.36,42.4 L248.06,42.4 C248.126667,42.9466694 248.366665,43.3766651 248.78,43.69 C249.193335,44.0033349 249.73333,44.16 250.4,44.16 C250.880002,44.16 251.246665,44.0433345 251.5,43.81 C251.753335,43.5766655 251.88,43.2733352 251.88,42.9 C251.88,42.5799984 251.770001,42.320001 251.55,42.12 C251.329999,41.919999 251.056668,41.7666672 250.73,41.66 C250.403332,41.5533328 249.940003,41.4266674 249.34,41.28 C248.513329,41.0933324 247.843336,40.9033343 247.33,40.71 C246.816664,40.5166657 246.376668,40.2066688 246.01,39.78 C245.643331,39.3533312 245.46,38.7666704 245.46,38.02 C245.46,37.0599952 245.826663,36.280003 246.56,35.68 C247.293337,35.079997 248.30666,34.78 249.6,34.78 Z M256.28,31.74 C256.28,31.2866644 256.439998,30.9166681 256.76,30.63 C257.080002,30.3433319 257.499997,30.2 258.02,30.2 C258.540003,30.2 258.959998,30.3433319 259.28,30.63 C259.600002,30.9166681 259.76,31.2866644 259.76,31.74 C259.76,32.1800022 259.600002,32.5433319 259.28,32.83 C258.959998,33.1166681 258.540003,33.26 258.02,33.26 C257.499997,33.26 257.080002,33.1166681 256.76,32.83 C256.439998,32.5433319 256.28,32.1800022 256.28,31.74 Z M259.42,34.92 L259.42,46 L256.6,46 L256.6,34.92 L259.42,34.92 Z M266.32,34.78 C267.253338,34.78 268.049997,34.9999978 268.71,35.44 C269.370003,35.8800022 269.846665,36.4733296 270.14,37.22 L270.14,31.2 L272.94,31.2 L272.94,46 L270.14,46 L270.14,43.68 C269.846665,44.4266704 269.370003,45.0233311 268.71,45.47 C268.049997,45.9166689 267.253338,46.14 266.32,46.14 C265.386662,46.14 264.54667,45.9133356 263.8,45.46 C263.05333,45.0066644 262.470002,44.3500043 262.05,43.49 C261.629998,42.6299957 261.42,41.6200058 261.42,40.46 C261.42,39.2999942 261.629998,38.2900043 262.05,37.43 C262.470002,36.5699957 263.05333,35.9133356 263.8,35.46 C264.54667,35.0066644 265.386662,34.78 266.32,34.78 Z M267.2,37.24 C266.319996,37.24 265.613336,37.5266638 265.08,38.1 C264.546664,38.6733362 264.28,39.459995 264.28,40.46 C264.28,41.460005 264.546664,42.2433305 265.08,42.81 C265.613336,43.3766695 266.319996,43.66 267.2,43.66 C268.053338,43.66 268.756664,43.3700029 269.31,42.79 C269.863336,42.2099971 270.14,41.4333382 270.14,40.46 C270.14,39.4733284 269.863336,38.6900029 269.31,38.11 C268.756664,37.5299971 268.053338,37.24 267.2,37.24 Z M285.92,40.04 C285.92,40.3200014 285.886667,40.6399982 285.82,41 L277.7,41 C277.74,41.9866716 278.006664,42.713331 278.5,43.18 C278.993336,43.646669 279.606663,43.88 280.34,43.88 C280.993337,43.88 281.536664,43.7200016 281.97,43.4 C282.403335,43.0799984 282.679999,42.6466694 282.8,42.1 L285.78,42.1 C285.633333,42.8733372 285.320002,43.5666636 284.84,44.18 C284.359998,44.7933364 283.743337,45.2733316 282.99,45.62 C282.236663,45.9666684 281.400005,46.14 280.48,46.14 C279.399995,46.14 278.440004,45.9100023 277.6,45.45 C276.759996,44.9899977 276.106669,44.3333376 275.64,43.48 C275.173331,42.6266624 274.94,41.6200058 274.94,40.46 C274.94,39.2999942 275.173331,38.2900043 275.64,37.43 C276.106669,36.5699957 276.759996,35.9133356 277.6,35.46 C278.440004,35.0066644 279.399995,34.78 280.48,34.78 C281.573339,34.78 282.529996,35.0066644 283.35,35.46 C284.170004,35.9133356 284.803331,36.5366627 285.25,37.33 C285.696669,38.1233373 285.92,39.0266616 285.92,40.04 Z M283.08,39.76 C283.12,38.8533288 282.883336,38.166669 282.37,37.7 C281.856664,37.233331 281.22667,37 280.48,37 C279.719996,37 279.080003,37.233331 278.56,37.7 C278.039997,38.166669 277.753334,38.8533288 277.7,39.76 L283.08,39.76 Z M291.82,31.3 L291.46,41.3 L289.08,41.3 L288.72,31.3 L291.82,31.3 Z M291.8,43.06 L291.8,46 L288.76,46 L288.76,43.06 L291.8,43.06 Z M52.47,66.92 C52.47,68.320007 52.1766696,69.553328 51.59,70.62 C51.0033304,71.686672 50.1533389,72.5166637 49.04,73.11 C47.9266611,73.7033363 46.603341,74 45.07,74 L40.05,74 L40.05,59.88 L45.07,59.88 C46.603341,59.88 47.9266611,60.1699971 49.04,60.75 C50.1533389,61.3300029 51.0033304,62.1499947 51.59,63.21 C52.1766696,64.2700053 52.47,65.5066596 52.47,66.92 Z M44.83,71.48 C46.3500076,71.48 47.5266625,71.080004 48.36,70.28 C49.1933375,69.479996 49.61,68.3600072 49.61,66.92 C49.61,65.4666594 49.1933375,64.340004 48.36,63.54 C47.5266625,62.739996 46.3500076,62.34 44.83,62.34 L42.87,62.34 L42.87,71.48 L44.83,71.48 Z M57.41,65.04 C57.8233354,64.3333298 58.3699966,63.7766687 59.05,63.37 C59.7300034,62.9633313 60.4899958,62.76 61.33,62.76 L61.33,65.78 L60.51,65.78 C58.443323,65.78 57.41,66.7399904 57.41,68.66 L57.41,74 L54.59,74 L54.59,62.92 L57.41,62.92 L57.41,65.04 Z M73.31,68.04 C73.31,68.3200014 73.276667,68.6399982 73.21,69 L65.09,69 C65.1300002,69.9866716 65.3966642,70.713331 65.89,71.18 C66.3833358,71.646669 66.996663,71.88 67.73,71.88 C68.3833366,71.88 68.9266645,71.7200016 69.36,71.4 C69.7933355,71.0799984 70.0699994,70.6466694 70.19,70.1 L73.17,70.1 C73.0233326,70.8733372 72.7100024,71.5666636 72.23,72.18 C71.7499976,72.7933364 71.1333371,73.2733316 70.38,73.62 C69.6266629,73.9666684 68.7900046,74.14 67.87,74.14 C66.7899946,74.14 65.8300042,73.9100023 64.99,73.45 C64.1499958,72.9899977 63.496669,72.3333376 63.03,71.48 C62.563331,70.6266624 62.33,69.6200058 62.33,68.46 C62.33,67.2999942 62.563331,66.2900043 63.03,65.43 C63.496669,64.5699957 64.1499958,63.9133356 64.99,63.46 C65.8300042,63.0066644 66.7899946,62.78 67.87,62.78 C68.9633388,62.78 69.9199959,63.0066644 70.74,63.46 C71.5600041,63.9133356 72.1933311,64.5366627 72.64,65.33 C73.0866689,66.1233373 73.31,67.0266616 73.31,68.04 Z M70.47,67.76 C70.5100002,66.8533288 70.2733359,66.166669 69.76,65.7 C69.2466641,65.233331 68.6166704,65 67.87,65 C67.1099962,65 66.4700026,65.233331 65.95,65.7 C65.4299974,66.166669 65.1433336,66.8533288 65.09,67.76 L70.47,67.76 Z M79.13,62.78 C80.4766734,62.78 81.5566626,63.1199966 82.37,63.8 C83.1833374,64.4800034 83.689999,65.386661 83.89,66.52 L81.25,66.52 C81.1433328,65.986664 80.9033352,65.5600016 80.53,65.24 C80.1566648,64.9199984 79.670003,64.76 79.07,64.76 C78.5899976,64.76 78.216668,64.8733322 77.95,65.1 C77.683332,65.3266678 77.55,65.6333314 77.55,66.02 C77.55,66.3266682 77.6566656,66.5733324 77.87,66.76 C78.0833344,66.9466676 78.3499984,67.0933328 78.67,67.2 C78.9900016,67.3066672 79.449997,67.4333326 80.05,67.58 C80.8900042,67.7666676 81.5733307,67.9633323 82.1,68.17 C82.6266693,68.3766677 83.0799981,68.7033311 83.46,69.15 C83.8400019,69.5966689 84.03,70.1999962 84.03,70.96 C84.03,71.9066714 83.6600037,72.6733304 82.92,73.26 C82.1799963,73.8466696 81.1833396,74.14 79.93,74.14 C78.4899928,74.14 77.336671,73.8166699 76.47,73.17 C75.603329,72.5233301 75.0766676,71.600006 74.89,70.4 L77.59,70.4 C77.656667,70.9466694 77.8966646,71.3766651 78.31,71.69 C78.7233354,72.0033349 79.26333,72.16 79.93,72.16 C80.4100024,72.16 80.7766654,72.0433345 81.03,71.81 C81.2833346,71.5766655 81.41,71.2733352 81.41,70.9 C81.41,70.5799984 81.3000011,70.320001 81.08,70.12 C80.8599989,69.919999 80.5866683,69.7666672 80.26,69.66 C79.9333317,69.5533328 79.470003,69.4266674 78.87,69.28 C78.0433292,69.0933324 77.3733359,68.9033343 76.86,68.71 C76.3466641,68.5166657 75.9066685,68.2066688 75.54,67.78 C75.1733315,67.3533312 74.99,66.7666704 74.99,66.02 C74.99,65.0599952 75.356663,64.280003 76.09,63.68 C76.823337,63.079997 77.8366602,62.78 79.13,62.78 Z M89.95,62.78 C91.2966734,62.78 92.3766626,63.1199966 93.19,63.8 C94.0033374,64.4800034 94.509999,65.386661 94.71,66.52 L92.07,66.52 C91.9633328,65.986664 91.7233352,65.5600016 91.35,65.24 C90.9766648,64.9199984 90.490003,64.76 89.89,64.76 C89.4099976,64.76 89.036668,64.8733322 88.77,65.1 C88.503332,65.3266678 88.37,65.6333314 88.37,66.02 C88.37,66.3266682 88.4766656,66.5733324 88.69,66.76 C88.9033344,66.9466676 89.1699984,67.0933328 89.49,67.2 C89.8100016,67.3066672 90.269997,67.4333326 90.87,67.58 C91.7100042,67.7666676 92.3933307,67.9633323 92.92,68.17 C93.4466693,68.3766677 93.8999981,68.7033311 94.28,69.15 C94.6600019,69.5966689 94.85,70.1999962 94.85,70.96 C94.85,71.9066714 94.4800037,72.6733304 93.74,73.26 C92.9999963,73.8466696 92.0033396,74.14 90.75,74.14 C89.3099928,74.14 88.156671,73.8166699 87.29,73.17 C86.423329,72.5233301 85.8966676,71.600006 85.71,70.4 L88.41,70.4 C88.476667,70.9466694 88.7166646,71.3766651 89.13,71.69 C89.5433354,72.0033349 90.08333,72.16 90.75,72.16 C91.2300024,72.16 91.5966654,72.0433345 91.85,71.81 C92.1033346,71.5766655 92.23,71.2733352 92.23,70.9 C92.23,70.5799984 92.1200011,70.320001 91.9,70.12 C91.6799989,69.919999 91.4066683,69.7666672 91.08,69.66 C90.7533317,69.5533328 90.290003,69.4266674 89.69,69.28 C88.8633292,69.0933324 88.1933359,68.9033343 87.68,68.71 C87.1666641,68.5166657 86.7266685,68.2066688 86.36,67.78 C85.9933315,67.3533312 85.81,66.7666704 85.81,66.02 C85.81,65.0599952 86.176663,64.280003 86.91,63.68 C87.643337,63.079997 88.6566602,62.78 89.95,62.78 Z M115.41,62.76 C116.756673,62.76 117.819996,63.1766625 118.6,64.01 C119.380004,64.8433375 119.77,66.026659 119.77,67.56 L119.77,74 L116.97,74 L116.97,67.88 C116.97,67.0266624 116.753336,66.3700023 116.32,65.91 C115.886665,65.4499977 115.290004,65.22 114.53,65.22 C113.743329,65.22 113.116669,65.4666642 112.65,65.96 C112.183331,66.4533358 111.95,67.1733286 111.95,68.12 L111.95,74 L109.15,74 L109.15,67.88 C109.15,67.0266624 108.933336,66.3700023 108.5,65.91 C108.066665,65.4499977 107.470004,65.22 106.71,65.22 C105.923329,65.22 105.296669,65.4666642 104.83,65.96 C104.363331,66.4533358 104.13,67.1733286 104.13,68.12 L104.13,74 L101.31,74 L101.31,62.92 L104.13,62.92 L104.13,65.02 C104.423335,64.2999964 104.886664,63.7433353 105.52,63.35 C106.153337,62.9566647 106.889996,62.76 107.73,62.76 C108.623338,62.76 109.399997,62.9733312 110.06,63.4 C110.720003,63.8266688 111.216665,64.439996 111.55,65.24 C111.896668,64.4799962 112.41333,63.8766689 113.1,63.43 C113.78667,62.9833311 114.556662,62.76 115.41,62.76 Z M132.67,68.04 C132.67,68.3200014 132.636667,68.6399982 132.57,69 L124.45,69 C124.49,69.9866716 124.756664,70.713331 125.25,71.18 C125.743336,71.646669 126.356663,71.88 127.09,71.88 C127.743337,71.88 128.286665,71.7200016 128.72,71.4 C129.153336,71.0799984 129.429999,70.6466694 129.55,70.1 L132.53,70.1 C132.383333,70.8733372 132.070002,71.5666636 131.59,72.18 C131.109998,72.7933364 130.493337,73.2733316 129.74,73.62 C128.986663,73.9666684 128.150005,74.14 127.23,74.14 C126.149995,74.14 125.190004,73.9100023 124.35,73.45 C123.509996,72.9899977 122.856669,72.3333376 122.39,71.48 C121.923331,70.6266624 121.69,69.6200058 121.69,68.46 C121.69,67.2999942 121.923331,66.2900043 122.39,65.43 C122.856669,64.5699957 123.509996,63.9133356 124.35,63.46 C125.190004,63.0066644 126.149995,62.78 127.23,62.78 C128.323339,62.78 129.279996,63.0066644 130.1,63.46 C130.920004,63.9133356 131.553331,64.5366627 132,65.33 C132.446669,66.1233373 132.67,67.0266616 132.67,68.04 Z M129.83,67.76 C129.87,66.8533288 129.633336,66.166669 129.12,65.7 C128.606664,65.233331 127.97667,65 127.23,65 C126.469996,65 125.830003,65.233331 125.31,65.7 C124.789997,66.166669 124.503334,66.8533288 124.45,67.76 L129.83,67.76 Z M142.85,62.78 C144.196673,62.78 145.276663,63.1199966 146.09,63.8 C146.903337,64.4800034 147.409999,65.386661 147.61,66.52 L144.97,66.52 C144.863333,65.986664 144.623335,65.5600016 144.25,65.24 C143.876665,64.9199984 143.390003,64.76 142.79,64.76 C142.309998,64.76 141.936668,64.8733322 141.67,65.1 C141.403332,65.3266678 141.27,65.6333314 141.27,66.02 C141.27,66.3266682 141.376666,66.5733324 141.59,66.76 C141.803334,66.9466676 142.069998,67.0933328 142.39,67.2 C142.710002,67.3066672 143.169997,67.4333326 143.77,67.58 C144.610004,67.7666676 145.293331,67.9633323 145.82,68.17 C146.346669,68.3766677 146.799998,68.7033311 147.18,69.15 C147.560002,69.5966689 147.75,70.1999962 147.75,70.96 C147.75,71.9066714 147.380004,72.6733304 146.64,73.26 C145.899996,73.8466696 144.90334,74.14 143.65,74.14 C142.209993,74.14 141.056671,73.8166699 140.19,73.17 C139.323329,72.5233301 138.796668,71.600006 138.61,70.4 L141.31,70.4 C141.376667,70.9466694 141.616665,71.3766651 142.03,71.69 C142.443335,72.0033349 142.98333,72.16 143.65,72.16 C144.130002,72.16 144.496665,72.0433345 144.75,71.81 C145.003335,71.5766655 145.13,71.2733352 145.13,70.9 C145.13,70.5799984 145.020001,70.320001 144.8,70.12 C144.579999,69.919999 144.306668,69.7666672 143.98,69.66 C143.653332,69.5533328 143.190003,69.4266674 142.59,69.28 C141.763329,69.0933324 141.093336,68.9033343 140.58,68.71 C140.066664,68.5166657 139.626669,68.2066688 139.26,67.78 C138.893332,67.3533312 138.71,66.7666704 138.71,66.02 C138.71,65.0599952 139.076663,64.280003 139.81,63.68 C140.543337,63.079997 141.55666,62.78 142.85,62.78 Z M154.97,62.78 C156.050005,62.78 157.019996,63.0066644 157.88,63.46 C158.740004,63.9133356 159.416664,64.5699957 159.91,65.43 C160.403336,66.2900043 160.65,67.2999942 160.65,68.46 C160.65,69.6200058 160.403336,70.6266624 159.91,71.48 C159.416664,72.3333376 158.740004,72.9899977 157.88,73.45 C157.019996,73.9100023 156.050005,74.14 154.97,74.14 C153.889995,74.14 152.920004,73.9100023 152.06,73.45 C151.199996,72.9899977 150.523336,72.3333376 150.03,71.48 C149.536664,70.6266624 149.29,69.6200058 149.29,68.46 C149.29,67.2999942 149.536664,66.2900043 150.03,65.43 C150.523336,64.5699957 151.199996,63.9133356 152.06,63.46 C152.920004,63.0066644 153.889995,62.78 154.97,62.78 Z M154.97,65.22 C154.183329,65.22 153.516669,65.4966639 152.97,66.05 C152.423331,66.6033361 152.15,67.4066614 152.15,68.46 C152.15,69.5133386 152.423331,70.3166639 152.97,70.87 C153.516669,71.4233361 154.183329,71.7 154.97,71.7 C155.756671,71.7 156.423331,71.4233361 156.97,70.87 C157.516669,70.3166639 157.79,69.5133386 157.79,68.46 C157.79,67.4066614 157.516669,66.6033361 156.97,66.05 C156.423331,65.4966639 155.756671,65.22 154.97,65.22 Z M169.83,59.88 L169.83,74 L167.01,74 L167.01,59.88 L169.83,59.88 Z M181.73,62.78 C183.156674,62.78 184.346662,63.1666628 185.3,63.94 C186.253338,64.7133372 186.849999,65.76666 187.09,67.1 L184.11,67.1 C183.989999,66.5133304 183.716669,66.0500017 183.29,65.71 C182.863331,65.3699983 182.323337,65.2 181.67,65.2 C180.92333,65.2 180.300003,65.4766639 179.8,66.03 C179.299998,66.5833361 179.05,67.393328 179.05,68.46 C179.05,69.526672 179.299998,70.3366639 179.8,70.89 C180.300003,71.4433361 180.92333,71.72 181.67,71.72 C182.323337,71.72 182.863331,71.5500017 183.29,71.21 C183.716669,70.8699983 183.989999,70.4066696 184.11,69.82 L187.09,69.82 C186.849999,71.15334 186.253338,72.2066628 185.3,72.98 C184.346662,73.7533372 183.156674,74.14 181.73,74.14 C180.649995,74.14 179.690004,73.9100023 178.85,73.45 C178.009996,72.9899977 177.356669,72.3333376 176.89,71.48 C176.423331,70.6266624 176.19,69.6200058 176.19,68.46 C176.19,67.2999942 176.423331,66.2900043 176.89,65.43 C177.356669,64.5699957 178.009996,63.9133356 178.85,63.46 C179.690004,63.0066644 180.649995,62.78 181.73,62.78 Z M193.43,62.78 C194.363338,62.78 195.16333,62.9999978 195.83,63.44 C196.49667,63.8800022 196.969999,64.4733296 197.25,65.22 L197.25,62.92 L200.05,62.92 L200.05,74 L197.25,74 L197.25,71.68 C196.969999,72.4266704 196.49667,73.0233311 195.83,73.47 C195.16333,73.9166689 194.363338,74.14 193.43,74.14 C192.496662,74.14 191.65667,73.9133356 190.91,73.46 C190.16333,73.0066644 189.580002,72.3500043 189.16,71.49 C188.739998,70.6299957 188.53,69.6200058 188.53,68.46 C188.53,67.2999942 188.739998,66.2900043 189.16,65.43 C189.580002,64.5699957 190.16333,63.9133356 190.91,63.46 C191.65667,63.0066644 192.496662,62.78 193.43,62.78 Z M194.31,65.24 C193.429996,65.24 192.723336,65.5266638 192.19,66.1 C191.656664,66.6733362 191.39,67.459995 191.39,68.46 C191.39,69.460005 191.656664,70.2433305 192.19,70.81 C192.723336,71.3766695 193.429996,71.66 194.31,71.66 C195.163338,71.66 195.866664,71.3700029 196.42,70.79 C196.973336,70.2099971 197.25,69.4333382 197.25,68.46 C197.25,67.4733284 196.973336,66.6900029 196.42,66.11 C195.866664,65.5299971 195.163338,65.24 194.31,65.24 Z M209.21,62.76 C210.490006,62.76 211.509996,63.1799958 212.27,64.02 C213.030004,64.8600042 213.41,66.0399924 213.41,67.56 L213.41,74 L210.61,74 L210.61,67.88 C210.61,66.9999956 210.383336,66.3166691 209.93,65.83 C209.476664,65.3433309 208.856671,65.1 208.07,65.1 C207.269996,65.1 206.630002,65.3599974 206.15,65.88 C205.669998,66.4000026 205.43,67.1466618 205.43,68.12 L205.43,74 L202.61,74 L202.61,62.92 L205.43,62.92 L205.43,65.14 C205.723335,64.3933296 206.206663,63.8100021 206.88,63.39 C207.553337,62.9699979 208.329996,62.76 209.21,62.76 Z M224.59,62.78 C225.523338,62.78 226.32333,62.9999978 226.99,63.44 C227.65667,63.8800022 228.129999,64.4733296 228.41,65.22 L228.41,62.92 L231.21,62.92 L231.21,74.04 C231.21,75.0666718 231.006669,75.9899959 230.6,76.81 C230.193331,77.6300041 229.586671,78.273331 228.78,78.74 C227.973329,79.206669 226.996672,79.44 225.85,79.44 C224.249992,79.44 222.956672,79.0600038 221.97,78.3 C220.983328,77.5399962 220.383334,76.5066732 220.17,75.2 L222.95,75.2 C223.110001,75.7600028 223.419998,76.1966651 223.88,76.51 C224.340002,76.8233349 224.929996,76.98 225.65,76.98 C226.476671,76.98 227.143331,76.7366691 227.65,76.25 C228.156669,75.7633309 228.41,75.0266716 228.41,74.04 L228.41,71.68 C228.129999,72.4266704 227.65667,73.0233311 226.99,73.47 C226.32333,73.9166689 225.523338,74.14 224.59,74.14 C223.656662,74.14 222.81667,73.9133356 222.07,73.46 C221.32333,73.0066644 220.740002,72.3500043 220.32,71.49 C219.899998,70.6299957 219.69,69.6200058 219.69,68.46 C219.69,67.2999942 219.899998,66.2900043 220.32,65.43 C220.740002,64.5699957 221.32333,63.9133356 222.07,63.46 C222.81667,63.0066644 223.656662,62.78 224.59,62.78 Z M225.47,65.24 C224.589996,65.24 223.883336,65.5266638 223.35,66.1 C222.816664,66.6733362 222.55,67.459995 222.55,68.46 C222.55,69.460005 222.816664,70.2433305 223.35,70.81 C223.883336,71.3766695 224.589996,71.66 225.47,71.66 C226.323338,71.66 227.026664,71.3700029 227.58,70.79 C228.133336,70.2099971 228.41,69.4333382 228.41,68.46 C228.41,67.4733284 228.133336,66.6900029 227.58,66.11 C227.026664,65.5299971 226.323338,65.24 225.47,65.24 Z M238.89,62.78 C239.970005,62.78 240.939996,63.0066644 241.8,63.46 C242.660004,63.9133356 243.336664,64.5699957 243.83,65.43 C244.323336,66.2900043 244.57,67.2999942 244.57,68.46 C244.57,69.6200058 244.323336,70.6266624 243.83,71.48 C243.336664,72.3333376 242.660004,72.9899977 241.8,73.45 C240.939996,73.9100023 239.970005,74.14 238.89,74.14 C237.809995,74.14 236.840004,73.9100023 235.98,73.45 C235.119996,72.9899977 234.443336,72.3333376 233.95,71.48 C233.456664,70.6266624 233.21,69.6200058 233.21,68.46 C233.21,67.2999942 233.456664,66.2900043 233.95,65.43 C234.443336,64.5699957 235.119996,63.9133356 235.98,63.46 C236.840004,63.0066644 237.809995,62.78 238.89,62.78 Z M238.89,65.22 C238.103329,65.22 237.436669,65.4966639 236.89,66.05 C236.343331,66.6033361 236.07,67.4066614 236.07,68.46 C236.07,69.5133386 236.343331,70.3166639 236.89,70.87 C237.436669,71.4233361 238.103329,71.7 238.89,71.7 C239.676671,71.7 240.343331,71.4233361 240.89,70.87 C241.436669,70.3166639 241.71,69.5133386 241.71,68.46 C241.71,67.4066614 241.436669,66.6033361 240.89,66.05 C240.343331,65.4966639 239.676671,65.22 238.89,65.22 Z M257.55,62.78 C258.483338,62.78 259.32333,63.0066644 260.07,63.46 C260.81667,63.9133356 261.399998,64.5699957 261.82,65.43 C262.240002,66.2900043 262.45,67.2999942 262.45,68.46 C262.45,69.6200058 262.240002,70.6299957 261.82,71.49 C261.399998,72.3500043 260.81667,73.0066644 260.07,73.46 C259.32333,73.9133356 258.483338,74.14 257.55,74.14 C256.616662,74.14 255.820003,73.9166689 255.16,73.47 C254.499997,73.0233311 254.030001,72.4266704 253.75,71.68 L253.75,79.28 L250.93,79.28 L250.93,62.92 L253.75,62.92 L253.75,65.22 C254.030001,64.4733296 254.499997,63.8800022 255.16,63.44 C255.820003,62.9999978 256.616662,62.78 257.55,62.78 Z M256.67,65.24 C255.816662,65.24 255.113336,65.5299971 254.56,66.11 C254.006664,66.6900029 253.73,67.4733284 253.73,68.46 C253.73,69.4333382 254.006664,70.2099971 254.56,70.79 C255.113336,71.3700029 255.816662,71.66 256.67,71.66 C257.550004,71.66 258.256664,71.3766695 258.79,70.81 C259.323336,70.2433305 259.59,69.460005 259.59,68.46 C259.59,67.459995 259.323336,66.6733362 258.79,66.1 C258.256664,65.5266638 257.550004,65.24 256.67,65.24 Z M267.27,59.2 L267.27,74 L264.45,74 L264.45,59.2 L267.27,59.2 Z M274.17,62.78 C275.103338,62.78 275.90333,62.9999978 276.57,63.44 C277.23667,63.8800022 277.709999,64.4733296 277.99,65.22 L277.99,62.92 L280.79,62.92 L280.79,74 L277.99,74 L277.99,71.68 C277.709999,72.4266704 277.23667,73.0233311 276.57,73.47 C275.90333,73.9166689 275.103338,74.14 274.17,74.14 C273.236662,74.14 272.39667,73.9133356 271.65,73.46 C270.90333,73.0066644 270.320002,72.3500043 269.9,71.49 C269.479998,70.6299957 269.27,69.6200058 269.27,68.46 C269.27,67.2999942 269.479998,66.2900043 269.9,65.43 C270.320002,64.5699957 270.90333,63.9133356 271.65,63.46 C272.39667,63.0066644 273.236662,62.78 274.17,62.78 Z M275.05,65.24 C274.169996,65.24 273.463336,65.5266638 272.93,66.1 C272.396664,66.6733362 272.13,67.459995 272.13,68.46 C272.13,69.460005 272.396664,70.2433305 272.93,70.81 C273.463336,71.3766695 274.169996,71.66 275.05,71.66 C275.903338,71.66 276.606664,71.3700029 277.16,70.79 C277.713336,70.2099971 277.99,69.4333382 277.99,68.46 C277.99,67.4733284 277.713336,66.6900029 277.16,66.11 C276.606664,65.5299971 275.903338,65.24 275.05,65.24 Z M285.25,62.92 L288.27,70.44 L291.07,62.92 L294.17,62.92 L287.39,79.28 L284.27,79.28 L286.77,73.68 L282.11,62.92 L285.25,62.92 Z M299.39,59.3 L299.03,69.3 L296.65,69.3 L296.29,59.3 L299.39,59.3 Z M299.37,71.06 L299.37,74 L296.33,74 L296.33,71.06 L299.37,71.06 Z" fill="#000000" fill-rule="nonzero" id="Woof!It'ssunnyoutside!DressmesoIcangoplay!"></path>
                        </g>
                      </g>
                    </g>
                  </svg>