<svg viewBox="0 0 66 45" xmlns="http://www.w3.org/2000/svg" id="sun-foot">
        <g fill="none" fill-rule="evenodd">
          <path d="M39.9 15.4l-3.6 2.1c2.5 6.5 10.7 5.8 16.5-3.7l2.4 15.9c.4 2.8-1.4 4.9-3.1 4.9H23c-8.8-1.1-8.1-12.9-2.8-16.1l15.3-9c5.1-3.3 9.5 3.6 4.4 5.9z" fill="#A0E021"></path>
          <path d="M39.9 15.4l-3.6 2.1c2.5 6.5 10.7 5.8 16.5-3.7l2.4 15.9c.4 2.8-1.4 4.9-3.1 4.9H23c-8.8-1.1-8.1-12.9-2.8-16.1l15.3-9c5.1-3.3 9.5 3.6 4.4 5.9z" stroke="#FF9297" stroke-width="2.5" fill="#FF9297" fill-rule="nonzero" stroke-linecap="round" stroke-linejoin="round"></path>
          <path d="M20.7 37.5c-5.3 0-4.9-3.6-3.9-6.3h38.5c1 2.7.8 6.3-4.4 6.3H20.7z" fill="#A0E021"></path>
          <path d="M20.7 37.5c-5.3 0-4.9-3.6-3.9-6.3h38.5c1 2.7.8 6.3-4.4 6.3H20.7z" stroke="#FF9297" stroke-width="2.5" fill="#FF9297" fill-rule="nonzero" stroke-linecap="round" stroke-linejoin="round"></path>
          <path d="M33.1 31.2H17.4c-.6-1.4-1.7-3-.8-7.4 1.5 1.9 4.6 2.8 7.4 1 .2.1 3.1-1.8 4.7-2.8 2.9 2.4 4.7 7.5 4.4 9.2z" fill="#FF0016"></path>
          <path d="M33.1 31.2H17.4c-.6-1.4-1.7-3-.8-7.4 1.5 1.9 4.6 2.8 7.4 1 .2.1 3.1-1.8 4.7-2.8 2.9 2.4 4.7 7.5 4.4 9.2z" stroke="#FF0016" stroke-width="2.5" stroke-linecap="round" stroke-linejoin="round"></path>
          <path d="M35.5 9.6c3.4-.5 5.7 3.1 4.4 5.8l-3.6 2.1c2.3 5.9 9.4 5.7 12.1-3.9.7 2.8 3.5 12.3 2.6 17.6H10.6c-.3-1-.4-2-.4-3.1.2-3.1 1.5-4.4 3.2-5.5L34.9 10l.6-.4z" stroke="#000" stroke-width="2.5" stroke-linecap="round" stroke-linejoin="round"></path>
          <path d="M33.1 31.2H10.6c-.3-1-.4-2-.4-3.1.2-3.1 1.5-4.4 3.2-5.5l1.5-.9c2.1 4 6.3 4.7 9 3.1l4.7-2.8c2.7 2.3 4.4 5.4 4.4 8.9.1.1.1.2.1.3z" stroke="#000" stroke-width="2.5" stroke-linecap="round" stroke-linejoin="round"></path>
          <path d="M50.6 23c.5 2.9.8 5.9.4 8.2h-7.8c.2-4.1 3.3-7.4 7.4-8.2z" fill="#FF0016"></path>
          <path d="M50.6 23c.5 2.9.8 5.9.4 8.2h-7.8c.2-4.1 3.3-7.4 7.4-8.2zm-24-8.2l1.9 2.8m-6.4-.1l1.8 2.8m7.3-8.2l1.9 2.8m2.4-5.3c3.4-.5 5.7 3.1 4.4 5.8L24 24.8c-2.7 1.6-6.9.9-9-3.1L34.9 10l.6-.4z" stroke="#000" stroke-width="2.5" stroke-linecap="round" stroke-linejoin="round"></path>
          <path d="M15.2 37.5c-5.5 0-5.7-3.6-4.6-6.3H51c1.1 2.7.9 6.3-4.6 6.3H15.2z" fill="#FFF"></path>
          <path d="M15.2 37.5c-5.5 0-5.7-3.6-4.6-6.3H51c1.1 2.7.9 6.3-4.6 6.3H15.2z" stroke="#000" stroke-width="2.5" stroke-linecap="round" stroke-linejoin="round"></path>
        </g>
      </svg>