<svg viewBox="0 0 66 45" xmlns="http://www.w3.org/2000/svg" id="sun-head">
        <title>Mask</title>
        <g fill="none" fill-rule="evenodd">
          <path d="M13.211 12.345c-.484 1.238-.363 1.238-.605 2.849-.364 2.353-.606 5.078-.606 8.547 13.568 8.3 21.805 16.846 46.154 9.414 10.176-3.344-2.665-10.157-6.178-12.14-.242-3.344-1.817-8.547-3.27-12.015-7.996 4.46-26.288 6.813-35.495 3.345z" fill="#FF0016"></path>
          <path d="M13.211 12.345c-.484 1.238-.363 1.238-.605 2.849-.364 2.353-.606 5.078-.606 8.547 13.568 8.3 21.805 16.846 46.154 9.414 10.176-3.344-2.665-10.157-6.178-12.14-.242-3.344-1.817-8.547-3.27-12.015-7.996 4.46-26.288 6.813-35.495 3.345z" stroke="#24D3D8" stroke-width="2.5" fill="#24D3D8" fill-rule="nonzero" stroke-linecap="round" stroke-linejoin="round"></path>
          <path d="M47.658 22C42.336 26.271 26.25 27.458 15 25.44c7.62 16.018 33.747 10.204 40.52 5.814 1.331-.83 1.936-1.898 1.09-3.322-.968-1.424-7.016-4.746-8.952-5.932z" stroke="#000" stroke-width="2.5" stroke-linecap="round" stroke-linejoin="round"></path>
          <path d="M45.84 11c1.08 3.222 1.8 6.939 2.16 11.4-7.2 6.195-34.8 6.071-42 0 .48-4.461 1.2-8.178 2.28-11.4 8.64 4.337 29.04 4.337 37.56 0z" stroke="#000" stroke-width="2.5" stroke-linecap="round" stroke-linejoin="round"></path>
        </g>
      </svg>